<?xml version="1.0" encoding="utf-8" standalone="no"?>
<!DOCTYPE svg PUBLIC "-//W3C//DTD SVG 1.1//EN"
  "http://www.w3.org/Graphics/SVG/1.1/DTD/svg11.dtd">
<svg xmlns:xlink="http://www.w3.org/1999/xlink" width="1448.39952pt" height="584.39952pt" viewBox="0 0 1448.39952 584.39952" xmlns="http://www.w3.org/2000/svg" version="1.1">
 <metadata>
  <rdf:RDF xmlns:dc="http://purl.org/dc/elements/1.1/" xmlns:cc="http://creativecommons.org/ns#" xmlns:rdf="http://www.w3.org/1999/02/22-rdf-syntax-ns#">
   <cc:Work>
    <dc:type rdf:resource="http://purl.org/dc/dcmitype/StillImage"/>
    <dc:date>2026-06-29T04:14:51.233585</dc:date>
    <dc:format>image/svg+xml</dc:format>
    <dc:creator>
     <cc:Agent>
      <dc:title>Matplotlib v3.10.9, https://matplotlib.org/</dc:title>
     </cc:Agent>
    </dc:creator>
   </cc:Work>
  </rdf:RDF>
 </metadata>
 <defs>
  <style type="text/css">*{stroke-linejoin: round; stroke-linecap: butt}</style>
 </defs>
 <g id="figure_1">
  <g id="patch_1">
   <path d="M 0 584.39952 
L 1448.39952 584.39952 
L 1448.39952 0 
L 0 0 
L 0 584.39952 
z
" style="fill: none"/>
  </g>
  <g id="axes_1">
   <g id="patch_2">
    <path d="M 127.479375 496.972958 
L 1242.81077 496.972958 
L 1242.81077 15.789375 
L 127.479375 15.789375 
L 127.479375 496.972958 
z
" style="fill: none"/>
   </g>
   <g id="matplotlib.axis_1">
    <g id="xtick_1">
     <g id="line2d_1">
      <path d="M 279.57002 496.972958 
L 279.57002 15.789375 
" clip-path="url(#p6ecf5cd52d)" style="fill: none; stroke: #d3d3d3; stroke-opacity: 0.3; stroke-linecap: round"/>
     </g>
     <g id="text_1">
      <text style="font-size: 24px; font-family: 'Arial', 'DejaVu Sans', 'Liberation Sans', 'Bitstream Vera Sans', sans-serif; text-anchor: middle; fill: #262626" x="279.57002" y="523.651708" transform="rotate(-0 279.57002 523.651708)">1</text>
     </g>
    </g>
    <g id="xtick_2">
     <g id="line2d_2">
      <path d="M 482.357546 496.972958 
L 482.357546 15.789375 
" clip-path="url(#p6ecf5cd52d)" style="fill: none; stroke: #d3d3d3; stroke-opacity: 0.3; stroke-linecap: round"/>
     </g>
     <g id="text_2">
      <text style="font-size: 24px; font-family: 'Arial', 'DejaVu Sans', 'Liberation Sans', 'Bitstream Vera Sans', sans-serif; text-anchor: middle; fill: #262626" x="482.357546" y="523.651708" transform="rotate(-0 482.357546 523.651708)">0</text>
     </g>
    </g>
    <g id="xtick_3">
     <g id="line2d_3">
      <path d="M 685.145073 496.972958 
L 685.145073 15.789375 
" clip-path="url(#p6ecf5cd52d)" style="fill: none; stroke: #d3d3d3; stroke-opacity: 0.3; stroke-linecap: round"/>
     </g>
     <g id="text_3">
      <text style="font-size: 24px; font-family: 'Arial', 'DejaVu Sans', 'Liberation Sans', 'Bitstream Vera Sans', sans-serif; text-anchor: middle; fill: #262626" x="685.145073" y="523.651708" transform="rotate(-0 685.145073 523.651708)">4</text>
     </g>
    </g>
    <g id="xtick_4">
     <g id="line2d_4">
      <path d="M 887.932599 496.972958 
L 887.932599 15.789375 
" clip-path="url(#p6ecf5cd52d)" style="fill: none; stroke: #d3d3d3; stroke-opacity: 0.3; stroke-linecap: round"/>
     </g>
     <g id="text_4">
      <text style="font-size: 24px; font-family: 'Arial', 'DejaVu Sans', 'Liberation Sans', 'Bitstream Vera Sans', sans-serif; text-anchor: middle; fill: #262626" x="887.932599" y="523.651708" transform="rotate(-0 887.932599 523.651708)">2</text>
     </g>
    </g>
    <g id="xtick_5">
     <g id="line2d_5">
      <path d="M 1090.720125 496.972958 
L 1090.720125 15.789375 
" clip-path="url(#p6ecf5cd52d)" style="fill: none; stroke: #d3d3d3; stroke-opacity: 0.3; stroke-linecap: round"/>
     </g>
     <g id="text_5">
      <text style="font-size: 24px; font-family: 'Arial', 'DejaVu Sans', 'Liberation Sans', 'Bitstream Vera Sans', sans-serif; text-anchor: middle; fill: #262626" x="1090.720125" y="523.651708" transform="rotate(-0 1090.720125 523.651708)">3</text>
     </g>
    </g>
    <g id="text_6">
     <text style="font-size: 26px; font-family: 'Arial', 'DejaVu Sans', 'Liberation Sans', 'Bitstream Vera Sans', sans-serif; text-anchor: middle; fill: #262626" x="685.145073" y="572.03202" transform="rotate(-0 685.145073 572.03202)">Socioeconomic Cluster Rank</text>
    </g>
   </g>
   <g id="matplotlib.axis_2">
    <g id="ytick_1">
     <g id="line2d_6">
      <path d="M 127.479375 496.972958 
L 1242.81077 496.972958 
" clip-path="url(#p6ecf5cd52d)" style="fill: none; stroke: #d3d3d3; stroke-opacity: 0.3; stroke-linecap: round"/>
     </g>
     <g id="text_7">
      <text style="font-size: 24px; font-family: 'Arial', 'DejaVu Sans', 'Liberation Sans', 'Bitstream Vera Sans', sans-serif; text-anchor: end; fill: #262626" x="117.979375" y="505.562333" transform="rotate(-0 117.979375 505.562333)">0%</text>
     </g>
    </g>
    <g id="ytick_2">
     <g id="line2d_7">
      <path d="M 127.479375 400.736241 
L 1242.81077 400.736241 
" clip-path="url(#p6ecf5cd52d)" style="fill: none; stroke: #d3d3d3; stroke-opacity: 0.3; stroke-linecap: round"/>
     </g>
     <g id="text_8">
      <text style="font-size: 24px; font-family: 'Arial', 'DejaVu Sans', 'Liberation Sans', 'Bitstream Vera Sans', sans-serif; text-anchor: end; fill: #262626" x="117.979375" y="409.325616" transform="rotate(-0 117.979375 409.325616)">20%</text>
     </g>
    </g>
    <g id="ytick_3">
     <g id="line2d_8">
      <path d="M 127.479375 304.499525 
L 1242.81077 304.499525 
" clip-path="url(#p6ecf5cd52d)" style="fill: none; stroke: #d3d3d3; stroke-opacity: 0.3; stroke-linecap: round"/>
     </g>
     <g id="text_9">
      <text style="font-size: 24px; font-family: 'Arial', 'DejaVu Sans', 'Liberation Sans', 'Bitstream Vera Sans', sans-serif; text-anchor: end; fill: #262626" x="117.979375" y="313.0889" transform="rotate(-0 117.979375 313.0889)">40%</text>
     </g>
    </g>
    <g id="ytick_4">
     <g id="line2d_9">
      <path d="M 127.479375 208.262808 
L 1242.81077 208.262808 
" clip-path="url(#p6ecf5cd52d)" style="fill: none; stroke: #d3d3d3; stroke-opacity: 0.3; stroke-linecap: round"/>
     </g>
     <g id="text_10">
      <text style="font-size: 24px; font-family: 'Arial', 'DejaVu Sans', 'Liberation Sans', 'Bitstream Vera Sans', sans-serif; text-anchor: end; fill: #262626" x="117.979375" y="216.852183" transform="rotate(-0 117.979375 216.852183)">60%</text>
     </g>
    </g>
    <g id="ytick_5">
     <g id="line2d_10">
      <path d="M 127.479375 112.026091 
L 1242.81077 112.026091 
" clip-path="url(#p6ecf5cd52d)" style="fill: none; stroke: #d3d3d3; stroke-opacity: 0.3; stroke-linecap: round"/>
     </g>
     <g id="text_11">
      <text style="font-size: 24px; font-family: 'Arial', 'DejaVu Sans', 'Liberation Sans', 'Bitstream Vera Sans', sans-serif; text-anchor: end; fill: #262626" x="117.979375" y="120.615466" transform="rotate(-0 117.979375 120.615466)">80%</text>
     </g>
    </g>
    <g id="ytick_6">
     <g id="line2d_11">
      <path d="M 127.479375 15.789375 
L 1242.81077 15.789375 
" clip-path="url(#p6ecf5cd52d)" style="fill: none; stroke: #d3d3d3; stroke-opacity: 0.3; stroke-linecap: round"/>
     </g>
     <g id="text_12">
      <text style="font-size: 24px; font-family: 'Arial', 'DejaVu Sans', 'Liberation Sans', 'Bitstream Vera Sans', sans-serif; text-anchor: end; fill: #262626" x="117.979375" y="24.37875" transform="rotate(-0 117.979375 24.37875)">100%</text>
     </g>
    </g>
    <g id="text_13">
     <text style="font-size: 26px; font-family: 'Arial', 'DejaVu Sans', 'Liberation Sans', 'Bitstream Vera Sans', sans-serif; text-anchor: middle; fill: #262626" x="26.127188" y="256.381166" transform="rotate(-90 26.127188 256.381166)">Proportion (%)</text>
    </g>
   </g>
   <g id="patch_3">
    <path d="M 178.176257 496.972958 
L 380.963783 496.972958 
L 380.963783 172.377594 
L 178.176257 172.377594 
z
" clip-path="url(#p6ecf5cd52d)" style="fill: #e69f00; stroke: #ffffff; stroke-linejoin: miter"/>
   </g>
   <g id="patch_4">
    <path d="M 380.963783 496.972958 
L 583.751309 496.972958 
L 583.751309 476.314588 
L 380.963783 476.314588 
z
" clip-path="url(#p6ecf5cd52d)" style="fill: #e69f00; stroke: #ffffff; stroke-linejoin: miter"/>
   </g>
   <g id="patch_5">
    <path d="M 583.751309 496.972958 
L 786.538836 496.972958 
L 786.538836 496.972958 
L 583.751309 496.972958 
z
" clip-path="url(#p6ecf5cd52d)" style="fill: #e69f00; stroke: #ffffff; stroke-linejoin: miter"/>
   </g>
   <g id="patch_6">
    <path d="M 786.538836 496.972958 
L 989.326362 496.972958 
L 989.326362 496.972958 
L 786.538836 496.972958 
z
" clip-path="url(#p6ecf5cd52d)" style="fill: #e69f00; stroke: #ffffff; stroke-linejoin: miter"/>
   </g>
   <g id="patch_7">
    <path d="M 989.326362 496.972958 
L 1192.113888 496.972958 
L 1192.113888 496.972958 
L 989.326362 496.972958 
z
" clip-path="url(#p6ecf5cd52d)" style="fill: #e69f00; stroke: #ffffff; stroke-linejoin: miter"/>
   </g>
   <g id="patch_8">
    <path d="M 178.176257 172.377594 
L 380.963783 172.377594 
L 380.963783 23.534385 
L 178.176257 23.534385 
z
" clip-path="url(#p6ecf5cd52d)" style="fill: #56b4e9; stroke: #ffffff; stroke-linejoin: miter"/>
   </g>
   <g id="patch_9">
    <path d="M 380.963783 476.314588 
L 583.751309 476.314588 
L 583.751309 405.008154 
L 380.963783 405.008154 
z
" clip-path="url(#p6ecf5cd52d)" style="fill: #56b4e9; stroke: #ffffff; stroke-linejoin: miter"/>
   </g>
   <g id="patch_10">
    <path d="M 583.751309 496.972958 
L 786.538836 496.972958 
L 786.538836 496.972958 
L 583.751309 496.972958 
z
" clip-path="url(#p6ecf5cd52d)" style="fill: #56b4e9; stroke: #ffffff; stroke-linejoin: miter"/>
   </g>
   <g id="patch_11">
    <path d="M 786.538836 496.972958 
L 989.326362 496.972958 
L 989.326362 496.972958 
L 786.538836 496.972958 
z
" clip-path="url(#p6ecf5cd52d)" style="fill: #56b4e9; stroke: #ffffff; stroke-linejoin: miter"/>
   </g>
   <g id="patch_12">
    <path d="M 989.326362 496.972958 
L 1192.113888 496.972958 
L 1192.113888 496.972958 
L 989.326362 496.972958 
z
" clip-path="url(#p6ecf5cd52d)" style="fill: #56b4e9; stroke: #ffffff; stroke-linejoin: miter"/>
   </g>
   <g id="patch_13">
    <path d="M 178.176257 23.534385 
L 380.963783 23.534385 
L 380.963783 15.789375 
L 178.176257 15.789375 
z
" clip-path="url(#p6ecf5cd52d)" style="fill: #009e73; stroke: #ffffff; stroke-linejoin: miter"/>
   </g>
   <g id="patch_14">
    <path d="M 380.963783 405.008154 
L 583.751309 405.008154 
L 583.751309 177.010956 
L 380.963783 177.010956 
z
" clip-path="url(#p6ecf5cd52d)" style="fill: #009e73; stroke: #ffffff; stroke-linejoin: miter"/>
   </g>
   <g id="patch_15">
    <path d="M 583.751309 496.972958 
L 786.538836 496.972958 
L 786.538836 417.326607 
L 583.751309 417.326607 
z
" clip-path="url(#p6ecf5cd52d)" style="fill: #009e73; stroke: #ffffff; stroke-linejoin: miter"/>
   </g>
   <g id="patch_16">
    <path d="M 786.538836 496.972958 
L 989.326362 496.972958 
L 989.326362 496.972958 
L 786.538836 496.972958 
z
" clip-path="url(#p6ecf5cd52d)" style="fill: #009e73; stroke: #ffffff; stroke-linejoin: miter"/>
   </g>
   <g id="patch_17">
    <path d="M 989.326362 496.972958 
L 1192.113888 496.972958 
L 1192.113888 496.972958 
L 989.326362 496.972958 
z
" clip-path="url(#p6ecf5cd52d)" style="fill: #009e73; stroke: #ffffff; stroke-linejoin: miter"/>
   </g>
   <g id="patch_18">
    <path d="M 178.176257 15.789375 
L 380.963783 15.789375 
L 380.963783 15.789375 
L 178.176257 15.789375 
z
" clip-path="url(#p6ecf5cd52d)" style="fill: #f0e442; stroke: #ffffff; stroke-linejoin: miter"/>
   </g>
   <g id="patch_19">
    <path d="M 380.963783 177.010956 
L 583.751309 177.010956 
L 583.751309 15.789375 
L 380.963783 15.789375 
z
" clip-path="url(#p6ecf5cd52d)" style="fill: #f0e442; stroke: #ffffff; stroke-linejoin: miter"/>
   </g>
   <g id="patch_20">
    <path d="M 583.751309 417.326607 
L 786.538836 417.326607 
L 786.538836 284.556456 
L 583.751309 284.556456 
z
" clip-path="url(#p6ecf5cd52d)" style="fill: #f0e442; stroke: #ffffff; stroke-linejoin: miter"/>
   </g>
   <g id="patch_21">
    <path d="M 786.538836 496.972958 
L 989.326362 496.972958 
L 989.326362 496.972958 
L 786.538836 496.972958 
z
" clip-path="url(#p6ecf5cd52d)" style="fill: #f0e442; stroke: #ffffff; stroke-linejoin: miter"/>
   </g>
   <g id="patch_22">
    <path d="M 989.326362 496.972958 
L 1192.113888 496.972958 
L 1192.113888 496.972958 
L 989.326362 496.972958 
z
" clip-path="url(#p6ecf5cd52d)" style="fill: #f0e442; stroke: #ffffff; stroke-linejoin: miter"/>
   </g>
   <g id="patch_23">
    <path d="M 178.176257 15.789375 
L 380.963783 15.789375 
L 380.963783 15.789375 
L 178.176257 15.789375 
z
" clip-path="url(#p6ecf5cd52d)" style="fill: #0072b2; stroke: #ffffff; stroke-linejoin: miter"/>
   </g>
   <g id="patch_24">
    <path d="M 380.963783 15.789375 
L 583.751309 15.789375 
L 583.751309 15.789375 
L 380.963783 15.789375 
z
" clip-path="url(#p6ecf5cd52d)" style="fill: #0072b2; stroke: #ffffff; stroke-linejoin: miter"/>
   </g>
   <g id="patch_25">
    <path d="M 583.751309 284.556456 
L 786.538836 284.556456 
L 786.538836 140.846737 
L 583.751309 140.846737 
z
" clip-path="url(#p6ecf5cd52d)" style="fill: #0072b2; stroke: #ffffff; stroke-linejoin: miter"/>
   </g>
   <g id="patch_26">
    <path d="M 786.538836 496.972958 
L 989.326362 496.972958 
L 989.326362 355.391088 
L 786.538836 355.391088 
z
" clip-path="url(#p6ecf5cd52d)" style="fill: #0072b2; stroke: #ffffff; stroke-linejoin: miter"/>
   </g>
   <g id="patch_27">
    <path d="M 989.326362 496.972958 
L 1192.113888 496.972958 
L 1192.113888 496.718026 
L 989.326362 496.718026 
z
" clip-path="url(#p6ecf5cd52d)" style="fill: #0072b2; stroke: #ffffff; stroke-linejoin: miter"/>
   </g>
   <g id="patch_28">
    <path d="M 178.176257 15.789375 
L 380.963783 15.789375 
L 380.963783 15.789375 
L 178.176257 15.789375 
z
" clip-path="url(#p6ecf5cd52d)" style="fill: #d55e00; stroke: #ffffff; stroke-linejoin: miter"/>
   </g>
   <g id="patch_29">
    <path d="M 380.963783 15.789375 
L 583.751309 15.789375 
L 583.751309 15.789375 
L 380.963783 15.789375 
z
" clip-path="url(#p6ecf5cd52d)" style="fill: #d55e00; stroke: #ffffff; stroke-linejoin: miter"/>
   </g>
   <g id="patch_30">
    <path d="M 583.751309 140.846737 
L 786.538836 140.846737 
L 786.538836 73.16308 
L 583.751309 73.16308 
z
" clip-path="url(#p6ecf5cd52d)" style="fill: #d55e00; stroke: #ffffff; stroke-linejoin: miter"/>
   </g>
   <g id="patch_31">
    <path d="M 786.538836 355.391088 
L 989.326362 355.391088 
L 989.326362 226.23763 
L 786.538836 226.23763 
z
" clip-path="url(#p6ecf5cd52d)" style="fill: #d55e00; stroke: #ffffff; stroke-linejoin: miter"/>
   </g>
   <g id="patch_32">
    <path d="M 989.326362 496.718026 
L 1192.113888 496.718026 
L 1192.113888 473.774173 
L 989.326362 473.774173 
z
" clip-path="url(#p6ecf5cd52d)" style="fill: #d55e00; stroke: #ffffff; stroke-linejoin: miter"/>
   </g>
   <g id="patch_33">
    <path d="M 178.176257 15.789375 
L 380.963783 15.789375 
L 380.963783 15.789375 
L 178.176257 15.789375 
z
" clip-path="url(#p6ecf5cd52d)" style="fill: #cc79a7; stroke: #ffffff; stroke-linejoin: miter"/>
   </g>
   <g id="patch_34">
    <path d="M 380.963783 15.789375 
L 583.751309 15.789375 
L 583.751309 15.789375 
L 380.963783 15.789375 
z
" clip-path="url(#p6ecf5cd52d)" style="fill: #cc79a7; stroke: #ffffff; stroke-linejoin: miter"/>
   </g>
   <g id="patch_35">
    <path d="M 583.751309 73.16308 
L 786.538836 73.16308 
L 786.538836 27.358558 
L 583.751309 27.358558 
z
" clip-path="url(#p6ecf5cd52d)" style="fill: #cc79a7; stroke: #ffffff; stroke-linejoin: miter"/>
   </g>
   <g id="patch_36">
    <path d="M 786.538836 226.23763 
L 989.326362 226.23763 
L 989.326362 121.801872 
L 786.538836 121.801872 
z
" clip-path="url(#p6ecf5cd52d)" style="fill: #cc79a7; stroke: #ffffff; stroke-linejoin: miter"/>
   </g>
   <g id="patch_37">
    <path d="M 989.326362 473.774173 
L 1192.113888 473.774173 
L 1192.113888 413.227894 
L 989.326362 413.227894 
z
" clip-path="url(#p6ecf5cd52d)" style="fill: #cc79a7; stroke: #ffffff; stroke-linejoin: miter"/>
   </g>
   <g id="patch_38">
    <path d="M 178.176257 15.789375 
L 380.963783 15.789375 
L 380.963783 15.789375 
L 178.176257 15.789375 
z
" clip-path="url(#p6ecf5cd52d)" style="stroke: #ffffff; stroke-linejoin: miter"/>
   </g>
   <g id="patch_39">
    <path d="M 380.963783 15.789375 
L 583.751309 15.789375 
L 583.751309 15.789375 
L 380.963783 15.789375 
z
" clip-path="url(#p6ecf5cd52d)" style="stroke: #ffffff; stroke-linejoin: miter"/>
   </g>
   <g id="patch_40">
    <path d="M 583.751309 27.358558 
L 786.538836 27.358558 
L 786.538836 16.182885 
L 583.751309 16.182885 
z
" clip-path="url(#p6ecf5cd52d)" style="stroke: #ffffff; stroke-linejoin: miter"/>
   </g>
   <g id="patch_41">
    <path d="M 786.538836 121.801872 
L 989.326362 121.801872 
L 989.326362 42.269312 
L 786.538836 42.269312 
z
" clip-path="url(#p6ecf5cd52d)" style="stroke: #ffffff; stroke-linejoin: miter"/>
   </g>
   <g id="patch_42">
    <path d="M 989.326362 413.227894 
L 1192.113888 413.227894 
L 1192.113888 319.158097 
L 989.326362 319.158097 
z
" clip-path="url(#p6ecf5cd52d)" style="stroke: #ffffff; stroke-linejoin: miter"/>
   </g>
   <g id="patch_43">
    <path d="M 178.176257 15.789375 
L 380.963783 15.789375 
L 380.963783 15.789375 
L 178.176257 15.789375 
z
" clip-path="url(#p6ecf5cd52d)" style="fill: #795548; stroke: #ffffff; stroke-linejoin: miter"/>
   </g>
   <g id="patch_44">
    <path d="M 380.963783 15.789375 
L 583.751309 15.789375 
L 583.751309 15.789375 
L 380.963783 15.789375 
z
" clip-path="url(#p6ecf5cd52d)" style="fill: #795548; stroke: #ffffff; stroke-linejoin: miter"/>
   </g>
   <g id="patch_45">
    <path d="M 583.751309 16.182885 
L 786.538836 16.182885 
L 786.538836 16.025481 
L 583.751309 16.025481 
z
" clip-path="url(#p6ecf5cd52d)" style="fill: #795548; stroke: #ffffff; stroke-linejoin: miter"/>
   </g>
   <g id="patch_46">
    <path d="M 786.538836 42.269312 
L 989.326362 42.269312 
L 989.326362 18.293607 
L 786.538836 18.293607 
z
" clip-path="url(#p6ecf5cd52d)" style="fill: #795548; stroke: #ffffff; stroke-linejoin: miter"/>
   </g>
   <g id="patch_47">
    <path d="M 989.326362 319.158097 
L 1192.113888 319.158097 
L 1192.113888 156.894071 
L 989.326362 156.894071 
z
" clip-path="url(#p6ecf5cd52d)" style="fill: #795548; stroke: #ffffff; stroke-linejoin: miter"/>
   </g>
   <g id="patch_48">
    <path d="M 178.176257 15.789375 
L 380.963783 15.789375 
L 380.963783 15.789375 
L 178.176257 15.789375 
z
" clip-path="url(#p6ecf5cd52d)" style="fill: #607d8b; stroke: #ffffff; stroke-linejoin: miter"/>
   </g>
   <g id="patch_49">
    <path d="M 380.963783 15.789375 
L 583.751309 15.789375 
L 583.751309 15.789375 
L 380.963783 15.789375 
z
" clip-path="url(#p6ecf5cd52d)" style="fill: #607d8b; stroke: #ffffff; stroke-linejoin: miter"/>
   </g>
   <g id="patch_50">
    <path d="M 583.751309 16.025481 
L 786.538836 16.025481 
L 786.538836 15.789375 
L 583.751309 15.789375 
z
" clip-path="url(#p6ecf5cd52d)" style="fill: #607d8b; stroke: #ffffff; stroke-linejoin: miter"/>
   </g>
   <g id="patch_51">
    <path d="M 786.538836 18.293607 
L 989.326362 18.293607 
L 989.326362 15.789375 
L 786.538836 15.789375 
z
" clip-path="url(#p6ecf5cd52d)" style="fill: #607d8b; stroke: #ffffff; stroke-linejoin: miter"/>
   </g>
   <g id="patch_52">
    <path d="M 989.326362 156.894071 
L 1192.113888 156.894071 
L 1192.113888 15.789375 
L 989.326362 15.789375 
z
" clip-path="url(#p6ecf5cd52d)" style="fill: #607d8b; stroke: #ffffff; stroke-linejoin: miter"/>
   </g>
   <g id="patch_53">
    <path d="M 127.479375 496.972958 
L 127.479375 15.789375 
" style="fill: none; stroke: #cccccc; stroke-width: 1.25; stroke-linejoin: miter; stroke-linecap: square"/>
   </g>
   <g id="patch_54">
    <path d="M 1242.81077 496.972958 
L 1242.81077 15.789375 
" style="fill: none; stroke: #cccccc; stroke-width: 1.25; stroke-linejoin: miter; stroke-linecap: square"/>
   </g>
   <g id="patch_55">
    <path d="M 127.479375 496.972958 
L 1242.81077 496.972958 
" style="fill: none; stroke: #cccccc; stroke-width: 1.25; stroke-linejoin: miter; stroke-linecap: square"/>
   </g>
   <g id="patch_56">
    <path d="M 127.479375 15.789375 
L 1242.81077 15.789375 
" style="fill: none; stroke: #cccccc; stroke-width: 1.25; stroke-linejoin: miter; stroke-linecap: square"/>
   </g>
   <g id="legend_1">
    <g id="patch_57">
     <path d="M 1247.61077 398.254688 
L 1436.39952 398.254688 
Q 1441.19952 398.254688 1441.19952 393.454688 
L 1441.19952 20.589375 
Q 1441.19952 15.789375 1436.39952 15.789375 
L 1247.61077 15.789375 
Q 1242.81077 15.789375 1242.81077 20.589375 
L 1242.81077 393.454688 
Q 1242.81077 398.254688 1247.61077 398.254688 
z
" style="fill: #ffffff; stroke: #000000; stroke-linejoin: miter"/>
    </g>
    <g id="text_14">
     <text style="font-size: 26px; font-family: 'Arial', 'DejaVu Sans', 'Liberation Sans', 'Bitstream Vera Sans', sans-serif; text-anchor: start; fill: #262626" x="1252.41077" y="43.999688" transform="rotate(-0 1252.41077 43.999688)">ADI State Rank</text>
    </g>
    <g id="patch_58">
     <path d="M 1295.058895 78.345938 
L 1343.058895 78.345938 
L 1343.058895 61.545938 
L 1295.058895 61.545938 
z
" style="fill: #e69f00; stroke: #ffffff; stroke-linejoin: miter"/>
    </g>
    <g id="text_15">
     <text style="font-size: 24px; font-family: 'Arial', 'DejaVu Sans', 'Liberation Sans', 'Bitstream Vera Sans', sans-serif; text-anchor: start; fill: #262626" x="1362.258895" y="78.345938" transform="rotate(-0 1362.258895 78.345938)">1</text>
    </g>
    <g id="patch_59">
     <path d="M 1295.058895 112.294688 
L 1343.058895 112.294688 
L 1343.058895 95.494688 
L 1295.058895 95.494688 
z
" style="fill: #56b4e9; stroke: #ffffff; stroke-linejoin: miter"/>
    </g>
    <g id="text_16">
     <text style="font-size: 24px; font-family: 'Arial', 'DejaVu Sans', 'Liberation Sans', 'Bitstream Vera Sans', sans-serif; text-anchor: start; fill: #262626" x="1362.258895" y="112.294688" transform="rotate(-0 1362.258895 112.294688)">2</text>
    </g>
    <g id="patch_60">
     <path d="M 1295.058895 146.243438 
L 1343.058895 146.243438 
L 1343.058895 129.443438 
L 1295.058895 129.443438 
z
" style="fill: #009e73; stroke: #ffffff; stroke-linejoin: miter"/>
    </g>
    <g id="text_17">
     <text style="font-size: 24px; font-family: 'Arial', 'DejaVu Sans', 'Liberation Sans', 'Bitstream Vera Sans', sans-serif; text-anchor: start; fill: #262626" x="1362.258895" y="146.243438" transform="rotate(-0 1362.258895 146.243438)">3</text>
    </g>
    <g id="patch_61">
     <path d="M 1295.058895 180.192188 
L 1343.058895 180.192188 
L 1343.058895 163.392188 
L 1295.058895 163.392188 
z
" style="fill: #f0e442; stroke: #ffffff; stroke-linejoin: miter"/>
    </g>
    <g id="text_18">
     <text style="font-size: 24px; font-family: 'Arial', 'DejaVu Sans', 'Liberation Sans', 'Bitstream Vera Sans', sans-serif; text-anchor: start; fill: #262626" x="1362.258895" y="180.192188" transform="rotate(-0 1362.258895 180.192188)">4</text>
    </g>
    <g id="patch_62">
     <path d="M 1295.058895 214.140938 
L 1343.058895 214.140938 
L 1343.058895 197.340938 
L 1295.058895 197.340938 
z
" style="fill: #0072b2; stroke: #ffffff; stroke-linejoin: miter"/>
    </g>
    <g id="text_19">
     <text style="font-size: 24px; font-family: 'Arial', 'DejaVu Sans', 'Liberation Sans', 'Bitstream Vera Sans', sans-serif; text-anchor: start; fill: #262626" x="1362.258895" y="214.140938" transform="rotate(-0 1362.258895 214.140938)">5</text>
    </g>
    <g id="patch_63">
     <path d="M 1295.058895 248.089688 
L 1343.058895 248.089688 
L 1343.058895 231.289688 
L 1295.058895 231.289688 
z
" style="fill: #d55e00; stroke: #ffffff; stroke-linejoin: miter"/>
    </g>
    <g id="text_20">
     <text style="font-size: 24px; font-family: 'Arial', 'DejaVu Sans', 'Liberation Sans', 'Bitstream Vera Sans', sans-serif; text-anchor: start; fill: #262626" x="1362.258895" y="248.089688" transform="rotate(-0 1362.258895 248.089688)">6</text>
    </g>
    <g id="patch_64">
     <path d="M 1295.058895 282.038438 
L 1343.058895 282.038438 
L 1343.058895 265.238438 
L 1295.058895 265.238438 
z
" style="fill: #cc79a7; stroke: #ffffff; stroke-linejoin: miter"/>
    </g>
    <g id="text_21">
     <text style="font-size: 24px; font-family: 'Arial', 'DejaVu Sans', 'Liberation Sans', 'Bitstream Vera Sans', sans-serif; text-anchor: start; fill: #262626" x="1362.258895" y="282.038438" transform="rotate(-0 1362.258895 282.038438)">7</text>
    </g>
    <g id="patch_65">
     <path d="M 1295.058895 315.987188 
L 1343.058895 315.987188 
L 1343.058895 299.187188 
L 1295.058895 299.187188 
z
" style="stroke: #ffffff; stroke-linejoin: miter"/>
    </g>
    <g id="text_22">
     <text style="font-size: 24px; font-family: 'Arial', 'DejaVu Sans', 'Liberation Sans', 'Bitstream Vera Sans', sans-serif; text-anchor: start; fill: #262626" x="1362.258895" y="315.987188" transform="rotate(-0 1362.258895 315.987188)">8</text>
    </g>
    <g id="patch_66">
     <path d="M 1295.058895 349.935938 
L 1343.058895 349.935938 
L 1343.058895 333.135938 
L 1295.058895 333.135938 
z
" style="fill: #795548; stroke: #ffffff; stroke-linejoin: miter"/>
    </g>
    <g id="text_23">
     <text style="font-size: 24px; font-family: 'Arial', 'DejaVu Sans', 'Liberation Sans', 'Bitstream Vera Sans', sans-serif; text-anchor: start; fill: #262626" x="1362.258895" y="349.935938" transform="rotate(-0 1362.258895 349.935938)">9</text>
    </g>
    <g id="patch_67">
     <path d="M 1295.058895 383.884688 
L 1343.058895 383.884688 
L 1343.058895 367.084688 
L 1295.058895 367.084688 
z
" style="fill: #607d8b; stroke: #ffffff; stroke-linejoin: miter"/>
    </g>
    <g id="text_24">
     <text style="font-size: 24px; font-family: 'Arial', 'DejaVu Sans', 'Liberation Sans', 'Bitstream Vera Sans', sans-serif; text-anchor: start; fill: #262626" x="1362.258895" y="383.884688" transform="rotate(-0 1362.258895 383.884688)">10</text>
    </g>
   </g>
  </g>
 </g>
 <defs>
  <clipPath id="p6ecf5cd52d">
   <rect x="127.479375" y="15.789375" width="1115.331395" height="481.183582"/>
  </clipPath>
 </defs>
</svg>
