<?xml version="1.0" encoding="utf-8" standalone="no"?>
<!DOCTYPE svg PUBLIC "-//W3C//DTD SVG 1.1//EN"
  "http://www.w3.org/Graphics/SVG/1.1/DTD/svg11.dtd">
<svg xmlns:xlink="http://www.w3.org/1999/xlink" width="1448.39952pt" height="584.39952pt" viewBox="0 0 1448.39952 584.39952" xmlns="http://www.w3.org/2000/svg" version="1.1">
 <metadata>
  <rdf:RDF xmlns:dc="http://purl.org/dc/elements/1.1/" xmlns:cc="http://creativecommons.org/ns#" xmlns:rdf="http://www.w3.org/1999/02/22-rdf-syntax-ns#">
   <cc:Work>
    <dc:type rdf:resource="http://purl.org/dc/dcmitype/StillImage"/>
    <dc:date>2026-06-29T04:14:51.785621</dc:date>
    <dc:format>image/svg+xml</dc:format>
    <dc:creator>
     <cc:Agent>
      <dc:title>Matplotlib v3.10.9, https://matplotlib.org/</dc:title>
     </cc:Agent>
    </dc:creator>
   </cc:Work>
  </rdf:RDF>
 </metadata>
 <defs>
  <style type="text/css">*{stroke-linejoin: round; stroke-linecap: butt}</style>
 </defs>
 <g id="figure_1">
  <g id="patch_1">
   <path d="M 0 584.39952 
L 1448.39952 584.39952 
L 1448.39952 0 
L 0 0 
L 0 584.39952 
z
" style="fill: none"/>
  </g>
  <g id="axes_1">
   <g id="patch_2">
    <path d="M 127.479375 496.972957 
L 1242.81077 496.972957 
L 1242.81077 15.789375 
L 127.479375 15.789375 
L 127.479375 496.972957 
z
" style="fill: none"/>
   </g>
   <g id="matplotlib.axis_1">
    <g id="xtick_1">
     <g id="line2d_1">
      <path d="M 207.145903 496.972957 
L 207.145903 15.789375 
" clip-path="url(#pefa00d30ed)" style="fill: none; stroke: #d3d3d3; stroke-opacity: 0.3; stroke-linecap: round"/>
     </g>
     <g id="text_1">
      <text style="font-size: 24px; font-family: 'Arial', 'DejaVu Sans', 'Liberation Sans', 'Bitstream Vera Sans', sans-serif; text-anchor: middle; fill: #262626" x="207.145903" y="523.651707" transform="rotate(-0 207.145903 523.651707)">2</text>
     </g>
    </g>
    <g id="xtick_2">
     <g id="line2d_2">
      <path d="M 313.367941 496.972957 
L 313.367941 15.789375 
" clip-path="url(#pefa00d30ed)" style="fill: none; stroke: #d3d3d3; stroke-opacity: 0.3; stroke-linecap: round"/>
     </g>
     <g id="text_2">
      <text style="font-size: 24px; font-family: 'Arial', 'DejaVu Sans', 'Liberation Sans', 'Bitstream Vera Sans', sans-serif; text-anchor: middle; fill: #262626" x="313.367941" y="523.651707" transform="rotate(-0 313.367941 523.651707)">5</text>
     </g>
    </g>
    <g id="xtick_3">
     <g id="line2d_3">
      <path d="M 419.589978 496.972957 
L 419.589978 15.789375 
" clip-path="url(#pefa00d30ed)" style="fill: none; stroke: #d3d3d3; stroke-opacity: 0.3; stroke-linecap: round"/>
     </g>
     <g id="text_3">
      <text style="font-size: 24px; font-family: 'Arial', 'DejaVu Sans', 'Liberation Sans', 'Bitstream Vera Sans', sans-serif; text-anchor: middle; fill: #262626" x="419.589978" y="523.651707" transform="rotate(-0 419.589978 523.651707)">4</text>
     </g>
    </g>
    <g id="xtick_4">
     <g id="line2d_4">
      <path d="M 525.812016 496.972957 
L 525.812016 15.789375 
" clip-path="url(#pefa00d30ed)" style="fill: none; stroke: #d3d3d3; stroke-opacity: 0.3; stroke-linecap: round"/>
     </g>
     <g id="text_4">
      <text style="font-size: 24px; font-family: 'Arial', 'DejaVu Sans', 'Liberation Sans', 'Bitstream Vera Sans', sans-serif; text-anchor: middle; fill: #262626" x="525.812016" y="523.651707" transform="rotate(-0 525.812016 523.651707)">0</text>
     </g>
    </g>
    <g id="xtick_5">
     <g id="line2d_5">
      <path d="M 632.034054 496.972957 
L 632.034054 15.789375 
" clip-path="url(#pefa00d30ed)" style="fill: none; stroke: #d3d3d3; stroke-opacity: 0.3; stroke-linecap: round"/>
     </g>
     <g id="text_5">
      <text style="font-size: 24px; font-family: 'Arial', 'DejaVu Sans', 'Liberation Sans', 'Bitstream Vera Sans', sans-serif; text-anchor: middle; fill: #262626" x="632.034054" y="523.651707" transform="rotate(-0 632.034054 523.651707)">3</text>
     </g>
    </g>
    <g id="xtick_6">
     <g id="line2d_6">
      <path d="M 738.256091 496.972957 
L 738.256091 15.789375 
" clip-path="url(#pefa00d30ed)" style="fill: none; stroke: #d3d3d3; stroke-opacity: 0.3; stroke-linecap: round"/>
     </g>
     <g id="text_6">
      <text style="font-size: 24px; font-family: 'Arial', 'DejaVu Sans', 'Liberation Sans', 'Bitstream Vera Sans', sans-serif; text-anchor: middle; fill: #262626" x="738.256091" y="523.651707" transform="rotate(-0 738.256091 523.651707)">7</text>
     </g>
    </g>
    <g id="xtick_7">
     <g id="line2d_7">
      <path d="M 844.478129 496.972957 
L 844.478129 15.789375 
" clip-path="url(#pefa00d30ed)" style="fill: none; stroke: #d3d3d3; stroke-opacity: 0.3; stroke-linecap: round"/>
     </g>
     <g id="text_7">
      <text style="font-size: 24px; font-family: 'Arial', 'DejaVu Sans', 'Liberation Sans', 'Bitstream Vera Sans', sans-serif; text-anchor: middle; fill: #262626" x="844.478129" y="523.651707" transform="rotate(-0 844.478129 523.651707)">8</text>
     </g>
    </g>
    <g id="xtick_8">
     <g id="line2d_8">
      <path d="M 950.700167 496.972957 
L 950.700167 15.789375 
" clip-path="url(#pefa00d30ed)" style="fill: none; stroke: #d3d3d3; stroke-opacity: 0.3; stroke-linecap: round"/>
     </g>
     <g id="text_8">
      <text style="font-size: 24px; font-family: 'Arial', 'DejaVu Sans', 'Liberation Sans', 'Bitstream Vera Sans', sans-serif; text-anchor: middle; fill: #262626" x="950.700167" y="523.651707" transform="rotate(-0 950.700167 523.651707)">1</text>
     </g>
    </g>
    <g id="xtick_9">
     <g id="line2d_9">
      <path d="M 1056.922204 496.972957 
L 1056.922204 15.789375 
" clip-path="url(#pefa00d30ed)" style="fill: none; stroke: #d3d3d3; stroke-opacity: 0.3; stroke-linecap: round"/>
     </g>
     <g id="text_9">
      <text style="font-size: 24px; font-family: 'Arial', 'DejaVu Sans', 'Liberation Sans', 'Bitstream Vera Sans', sans-serif; text-anchor: middle; fill: #262626" x="1056.922204" y="523.651707" transform="rotate(-0 1056.922204 523.651707)">6</text>
     </g>
    </g>
    <g id="xtick_10">
     <g id="line2d_10">
      <path d="M 1163.144242 496.972957 
L 1163.144242 15.789375 
" clip-path="url(#pefa00d30ed)" style="fill: none; stroke: #d3d3d3; stroke-opacity: 0.3; stroke-linecap: round"/>
     </g>
     <g id="text_10">
      <text style="font-size: 24px; font-family: 'Arial', 'DejaVu Sans', 'Liberation Sans', 'Bitstream Vera Sans', sans-serif; text-anchor: middle; fill: #262626" x="1163.144242" y="523.651707" transform="rotate(-0 1163.144242 523.651707)">9</text>
     </g>
    </g>
    <g id="text_11">
     <text style="font-size: 26px; font-family: 'Arial', 'DejaVu Sans', 'Liberation Sans', 'Bitstream Vera Sans', sans-serif; text-anchor: middle; fill: #262626" x="685.145073" y="572.03202" transform="rotate(-0 685.145073 572.03202)">Socioeconomic Cluster Rank</text>
    </g>
   </g>
   <g id="matplotlib.axis_2">
    <g id="ytick_1">
     <g id="line2d_11">
      <path d="M 127.479375 496.972957 
L 1242.81077 496.972957 
" clip-path="url(#pefa00d30ed)" style="fill: none; stroke: #d3d3d3; stroke-opacity: 0.3; stroke-linecap: round"/>
     </g>
     <g id="text_12">
      <text style="font-size: 24px; font-family: 'Arial', 'DejaVu Sans', 'Liberation Sans', 'Bitstream Vera Sans', sans-serif; text-anchor: end; fill: #262626" x="117.979375" y="505.562332" transform="rotate(-0 117.979375 505.562332)">0%</text>
     </g>
    </g>
    <g id="ytick_2">
     <g id="line2d_12">
      <path d="M 127.479375 400.736241 
L 1242.81077 400.736241 
" clip-path="url(#pefa00d30ed)" style="fill: none; stroke: #d3d3d3; stroke-opacity: 0.3; stroke-linecap: round"/>
     </g>
     <g id="text_13">
      <text style="font-size: 24px; font-family: 'Arial', 'DejaVu Sans', 'Liberation Sans', 'Bitstream Vera Sans', sans-serif; text-anchor: end; fill: #262626" x="117.979375" y="409.325616" transform="rotate(-0 117.979375 409.325616)">20%</text>
     </g>
    </g>
    <g id="ytick_3">
     <g id="line2d_13">
      <path d="M 127.479375 304.499524 
L 1242.81077 304.499524 
" clip-path="url(#pefa00d30ed)" style="fill: none; stroke: #d3d3d3; stroke-opacity: 0.3; stroke-linecap: round"/>
     </g>
     <g id="text_14">
      <text style="font-size: 24px; font-family: 'Arial', 'DejaVu Sans', 'Liberation Sans', 'Bitstream Vera Sans', sans-serif; text-anchor: end; fill: #262626" x="117.979375" y="313.088899" transform="rotate(-0 117.979375 313.088899)">40%</text>
     </g>
    </g>
    <g id="ytick_4">
     <g id="line2d_14">
      <path d="M 127.479375 208.262808 
L 1242.81077 208.262808 
" clip-path="url(#pefa00d30ed)" style="fill: none; stroke: #d3d3d3; stroke-opacity: 0.3; stroke-linecap: round"/>
     </g>
     <g id="text_15">
      <text style="font-size: 24px; font-family: 'Arial', 'DejaVu Sans', 'Liberation Sans', 'Bitstream Vera Sans', sans-serif; text-anchor: end; fill: #262626" x="117.979375" y="216.852183" transform="rotate(-0 117.979375 216.852183)">60%</text>
     </g>
    </g>
    <g id="ytick_5">
     <g id="line2d_15">
      <path d="M 127.479375 112.026091 
L 1242.81077 112.026091 
" clip-path="url(#pefa00d30ed)" style="fill: none; stroke: #d3d3d3; stroke-opacity: 0.3; stroke-linecap: round"/>
     </g>
     <g id="text_16">
      <text style="font-size: 24px; font-family: 'Arial', 'DejaVu Sans', 'Liberation Sans', 'Bitstream Vera Sans', sans-serif; text-anchor: end; fill: #262626" x="117.979375" y="120.615466" transform="rotate(-0 117.979375 120.615466)">80%</text>
     </g>
    </g>
    <g id="ytick_6">
     <g id="line2d_16">
      <path d="M 127.479375 15.789375 
L 1242.81077 15.789375 
" clip-path="url(#pefa00d30ed)" style="fill: none; stroke: #d3d3d3; stroke-opacity: 0.3; stroke-linecap: round"/>
     </g>
     <g id="text_17">
      <text style="font-size: 24px; font-family: 'Arial', 'DejaVu Sans', 'Liberation Sans', 'Bitstream Vera Sans', sans-serif; text-anchor: end; fill: #262626" x="117.979375" y="24.37875" transform="rotate(-0 117.979375 24.37875)">100%</text>
     </g>
    </g>
    <g id="text_18">
     <text style="font-size: 26px; font-family: 'Arial', 'DejaVu Sans', 'Liberation Sans', 'Bitstream Vera Sans', sans-serif; text-anchor: middle; fill: #262626" x="26.127188" y="256.381166" transform="rotate(-90 26.127188 256.381166)">Proportion (%)</text>
    </g>
   </g>
   <g id="patch_3">
    <path d="M 154.034884 496.972957 
L 260.256922 496.972957 
L 260.256922 15.789375 
L 154.034884 15.789375 
z
" clip-path="url(#pefa00d30ed)" style="fill: #e69f00; stroke: #ffffff; stroke-linejoin: miter"/>
   </g>
   <g id="patch_4">
    <path d="M 260.256922 496.972957 
L 366.47896 496.972957 
L 366.47896 496.972957 
L 260.256922 496.972957 
z
" clip-path="url(#pefa00d30ed)" style="fill: #e69f00; stroke: #ffffff; stroke-linejoin: miter"/>
   </g>
   <g id="patch_5">
    <path d="M 366.47896 496.972957 
L 472.700997 496.972957 
L 472.700997 496.972957 
L 366.47896 496.972957 
z
" clip-path="url(#pefa00d30ed)" style="fill: #e69f00; stroke: #ffffff; stroke-linejoin: miter"/>
   </g>
   <g id="patch_6">
    <path d="M 472.700997 496.972957 
L 578.923035 496.972957 
L 578.923035 496.972957 
L 472.700997 496.972957 
z
" clip-path="url(#pefa00d30ed)" style="fill: #e69f00; stroke: #ffffff; stroke-linejoin: miter"/>
   </g>
   <g id="patch_7">
    <path d="M 578.923035 496.972957 
L 685.145072 496.972957 
L 685.145072 496.972957 
L 578.923035 496.972957 
z
" clip-path="url(#pefa00d30ed)" style="fill: #e69f00; stroke: #ffffff; stroke-linejoin: miter"/>
   </g>
   <g id="patch_8">
    <path d="M 685.145072 496.972957 
L 791.36711 496.972957 
L 791.36711 496.972957 
L 685.145072 496.972957 
z
" clip-path="url(#pefa00d30ed)" style="fill: #e69f00; stroke: #ffffff; stroke-linejoin: miter"/>
   </g>
   <g id="patch_9">
    <path d="M 791.36711 496.972957 
L 897.589148 496.972957 
L 897.589148 496.972957 
L 791.36711 496.972957 
z
" clip-path="url(#pefa00d30ed)" style="fill: #e69f00; stroke: #ffffff; stroke-linejoin: miter"/>
   </g>
   <g id="patch_10">
    <path d="M 897.589148 496.972957 
L 1003.811185 496.972957 
L 1003.811185 496.972957 
L 897.589148 496.972957 
z
" clip-path="url(#pefa00d30ed)" style="fill: #e69f00; stroke: #ffffff; stroke-linejoin: miter"/>
   </g>
   <g id="patch_11">
    <path d="M 1003.811185 496.972957 
L 1110.033223 496.972957 
L 1110.033223 496.972957 
L 1003.811185 496.972957 
z
" clip-path="url(#pefa00d30ed)" style="fill: #e69f00; stroke: #ffffff; stroke-linejoin: miter"/>
   </g>
   <g id="patch_12">
    <path d="M 1110.033223 496.972957 
L 1216.255261 496.972957 
L 1216.255261 496.972957 
L 1110.033223 496.972957 
z
" clip-path="url(#pefa00d30ed)" style="fill: #e69f00; stroke: #ffffff; stroke-linejoin: miter"/>
   </g>
   <g id="patch_13">
    <path d="M 154.034884 15.789375 
L 260.256922 15.789375 
L 260.256922 15.789375 
L 154.034884 15.789375 
z
" clip-path="url(#pefa00d30ed)" style="fill: #56b4e9; stroke: #ffffff; stroke-linejoin: miter"/>
   </g>
   <g id="patch_14">
    <path d="M 260.256922 496.972957 
L 366.47896 496.972957 
L 366.47896 15.789375 
L 260.256922 15.789375 
z
" clip-path="url(#pefa00d30ed)" style="fill: #56b4e9; stroke: #ffffff; stroke-linejoin: miter"/>
   </g>
   <g id="patch_15">
    <path d="M 366.47896 496.972957 
L 472.700997 496.972957 
L 472.700997 496.972957 
L 366.47896 496.972957 
z
" clip-path="url(#pefa00d30ed)" style="fill: #56b4e9; stroke: #ffffff; stroke-linejoin: miter"/>
   </g>
   <g id="patch_16">
    <path d="M 472.700997 496.972957 
L 578.923035 496.972957 
L 578.923035 496.972957 
L 472.700997 496.972957 
z
" clip-path="url(#pefa00d30ed)" style="fill: #56b4e9; stroke: #ffffff; stroke-linejoin: miter"/>
   </g>
   <g id="patch_17">
    <path d="M 578.923035 496.972957 
L 685.145072 496.972957 
L 685.145072 496.972957 
L 578.923035 496.972957 
z
" clip-path="url(#pefa00d30ed)" style="fill: #56b4e9; stroke: #ffffff; stroke-linejoin: miter"/>
   </g>
   <g id="patch_18">
    <path d="M 685.145072 496.972957 
L 791.36711 496.972957 
L 791.36711 496.972957 
L 685.145072 496.972957 
z
" clip-path="url(#pefa00d30ed)" style="fill: #56b4e9; stroke: #ffffff; stroke-linejoin: miter"/>
   </g>
   <g id="patch_19">
    <path d="M 791.36711 496.972957 
L 897.589148 496.972957 
L 897.589148 496.972957 
L 791.36711 496.972957 
z
" clip-path="url(#pefa00d30ed)" style="fill: #56b4e9; stroke: #ffffff; stroke-linejoin: miter"/>
   </g>
   <g id="patch_20">
    <path d="M 897.589148 496.972957 
L 1003.811185 496.972957 
L 1003.811185 496.972957 
L 897.589148 496.972957 
z
" clip-path="url(#pefa00d30ed)" style="fill: #56b4e9; stroke: #ffffff; stroke-linejoin: miter"/>
   </g>
   <g id="patch_21">
    <path d="M 1003.811185 496.972957 
L 1110.033223 496.972957 
L 1110.033223 496.972957 
L 1003.811185 496.972957 
z
" clip-path="url(#pefa00d30ed)" style="fill: #56b4e9; stroke: #ffffff; stroke-linejoin: miter"/>
   </g>
   <g id="patch_22">
    <path d="M 1110.033223 496.972957 
L 1216.255261 496.972957 
L 1216.255261 496.972957 
L 1110.033223 496.972957 
z
" clip-path="url(#pefa00d30ed)" style="fill: #56b4e9; stroke: #ffffff; stroke-linejoin: miter"/>
   </g>
   <g id="patch_23">
    <path d="M 154.034884 15.789375 
L 260.256922 15.789375 
L 260.256922 15.789375 
L 154.034884 15.789375 
z
" clip-path="url(#pefa00d30ed)" style="fill: #009e73; stroke: #ffffff; stroke-linejoin: miter"/>
   </g>
   <g id="patch_24">
    <path d="M 260.256922 15.789375 
L 366.47896 15.789375 
L 366.47896 15.789375 
L 260.256922 15.789375 
z
" clip-path="url(#pefa00d30ed)" style="fill: #009e73; stroke: #ffffff; stroke-linejoin: miter"/>
   </g>
   <g id="patch_25">
    <path d="M 366.47896 496.972957 
L 472.700997 496.972957 
L 472.700997 15.789375 
L 366.47896 15.789375 
z
" clip-path="url(#pefa00d30ed)" style="fill: #009e73; stroke: #ffffff; stroke-linejoin: miter"/>
   </g>
   <g id="patch_26">
    <path d="M 472.700997 496.972957 
L 578.923035 496.972957 
L 578.923035 496.972957 
L 472.700997 496.972957 
z
" clip-path="url(#pefa00d30ed)" style="fill: #009e73; stroke: #ffffff; stroke-linejoin: miter"/>
   </g>
   <g id="patch_27">
    <path d="M 578.923035 496.972957 
L 685.145072 496.972957 
L 685.145072 496.972957 
L 578.923035 496.972957 
z
" clip-path="url(#pefa00d30ed)" style="fill: #009e73; stroke: #ffffff; stroke-linejoin: miter"/>
   </g>
   <g id="patch_28">
    <path d="M 685.145072 496.972957 
L 791.36711 496.972957 
L 791.36711 496.972957 
L 685.145072 496.972957 
z
" clip-path="url(#pefa00d30ed)" style="fill: #009e73; stroke: #ffffff; stroke-linejoin: miter"/>
   </g>
   <g id="patch_29">
    <path d="M 791.36711 496.972957 
L 897.589148 496.972957 
L 897.589148 496.972957 
L 791.36711 496.972957 
z
" clip-path="url(#pefa00d30ed)" style="fill: #009e73; stroke: #ffffff; stroke-linejoin: miter"/>
   </g>
   <g id="patch_30">
    <path d="M 897.589148 496.972957 
L 1003.811185 496.972957 
L 1003.811185 496.972957 
L 897.589148 496.972957 
z
" clip-path="url(#pefa00d30ed)" style="fill: #009e73; stroke: #ffffff; stroke-linejoin: miter"/>
   </g>
   <g id="patch_31">
    <path d="M 1003.811185 496.972957 
L 1110.033223 496.972957 
L 1110.033223 496.972957 
L 1003.811185 496.972957 
z
" clip-path="url(#pefa00d30ed)" style="fill: #009e73; stroke: #ffffff; stroke-linejoin: miter"/>
   </g>
   <g id="patch_32">
    <path d="M 1110.033223 496.972957 
L 1216.255261 496.972957 
L 1216.255261 496.972957 
L 1110.033223 496.972957 
z
" clip-path="url(#pefa00d30ed)" style="fill: #009e73; stroke: #ffffff; stroke-linejoin: miter"/>
   </g>
   <g id="patch_33">
    <path d="M 154.034884 15.789375 
L 260.256922 15.789375 
L 260.256922 15.789375 
L 154.034884 15.789375 
z
" clip-path="url(#pefa00d30ed)" style="fill: #f0e442; stroke: #ffffff; stroke-linejoin: miter"/>
   </g>
   <g id="patch_34">
    <path d="M 260.256922 15.789375 
L 366.47896 15.789375 
L 366.47896 15.789375 
L 260.256922 15.789375 
z
" clip-path="url(#pefa00d30ed)" style="fill: #f0e442; stroke: #ffffff; stroke-linejoin: miter"/>
   </g>
   <g id="patch_35">
    <path d="M 366.47896 15.789375 
L 472.700997 15.789375 
L 472.700997 15.789375 
L 366.47896 15.789375 
z
" clip-path="url(#pefa00d30ed)" style="fill: #f0e442; stroke: #ffffff; stroke-linejoin: miter"/>
   </g>
   <g id="patch_36">
    <path d="M 472.700997 496.972957 
L 578.923035 496.972957 
L 578.923035 15.789375 
L 472.700997 15.789375 
z
" clip-path="url(#pefa00d30ed)" style="fill: #f0e442; stroke: #ffffff; stroke-linejoin: miter"/>
   </g>
   <g id="patch_37">
    <path d="M 578.923035 496.972957 
L 685.145072 496.972957 
L 685.145072 496.972957 
L 578.923035 496.972957 
z
" clip-path="url(#pefa00d30ed)" style="fill: #f0e442; stroke: #ffffff; stroke-linejoin: miter"/>
   </g>
   <g id="patch_38">
    <path d="M 685.145072 496.972957 
L 791.36711 496.972957 
L 791.36711 496.972957 
L 685.145072 496.972957 
z
" clip-path="url(#pefa00d30ed)" style="fill: #f0e442; stroke: #ffffff; stroke-linejoin: miter"/>
   </g>
   <g id="patch_39">
    <path d="M 791.36711 496.972957 
L 897.589148 496.972957 
L 897.589148 496.972957 
L 791.36711 496.972957 
z
" clip-path="url(#pefa00d30ed)" style="fill: #f0e442; stroke: #ffffff; stroke-linejoin: miter"/>
   </g>
   <g id="patch_40">
    <path d="M 897.589148 496.972957 
L 1003.811185 496.972957 
L 1003.811185 496.972957 
L 897.589148 496.972957 
z
" clip-path="url(#pefa00d30ed)" style="fill: #f0e442; stroke: #ffffff; stroke-linejoin: miter"/>
   </g>
   <g id="patch_41">
    <path d="M 1003.811185 496.972957 
L 1110.033223 496.972957 
L 1110.033223 496.972957 
L 1003.811185 496.972957 
z
" clip-path="url(#pefa00d30ed)" style="fill: #f0e442; stroke: #ffffff; stroke-linejoin: miter"/>
   </g>
   <g id="patch_42">
    <path d="M 1110.033223 496.972957 
L 1216.255261 496.972957 
L 1216.255261 496.972957 
L 1110.033223 496.972957 
z
" clip-path="url(#pefa00d30ed)" style="fill: #f0e442; stroke: #ffffff; stroke-linejoin: miter"/>
   </g>
   <g id="patch_43">
    <path d="M 154.034884 15.789375 
L 260.256922 15.789375 
L 260.256922 15.789375 
L 154.034884 15.789375 
z
" clip-path="url(#pefa00d30ed)" style="fill: #0072b2; stroke: #ffffff; stroke-linejoin: miter"/>
   </g>
   <g id="patch_44">
    <path d="M 260.256922 15.789375 
L 366.47896 15.789375 
L 366.47896 15.789375 
L 260.256922 15.789375 
z
" clip-path="url(#pefa00d30ed)" style="fill: #0072b2; stroke: #ffffff; stroke-linejoin: miter"/>
   </g>
   <g id="patch_45">
    <path d="M 366.47896 15.789375 
L 472.700997 15.789375 
L 472.700997 15.789375 
L 366.47896 15.789375 
z
" clip-path="url(#pefa00d30ed)" style="fill: #0072b2; stroke: #ffffff; stroke-linejoin: miter"/>
   </g>
   <g id="patch_46">
    <path d="M 472.700997 15.789375 
L 578.923035 15.789375 
L 578.923035 15.789375 
L 472.700997 15.789375 
z
" clip-path="url(#pefa00d30ed)" style="fill: #0072b2; stroke: #ffffff; stroke-linejoin: miter"/>
   </g>
   <g id="patch_47">
    <path d="M 578.923035 496.972957 
L 685.145072 496.972957 
L 685.145072 15.789375 
L 578.923035 15.789375 
z
" clip-path="url(#pefa00d30ed)" style="fill: #0072b2; stroke: #ffffff; stroke-linejoin: miter"/>
   </g>
   <g id="patch_48">
    <path d="M 685.145072 496.972957 
L 791.36711 496.972957 
L 791.36711 496.972957 
L 685.145072 496.972957 
z
" clip-path="url(#pefa00d30ed)" style="fill: #0072b2; stroke: #ffffff; stroke-linejoin: miter"/>
   </g>
   <g id="patch_49">
    <path d="M 791.36711 496.972957 
L 897.589148 496.972957 
L 897.589148 496.972957 
L 791.36711 496.972957 
z
" clip-path="url(#pefa00d30ed)" style="fill: #0072b2; stroke: #ffffff; stroke-linejoin: miter"/>
   </g>
   <g id="patch_50">
    <path d="M 897.589148 496.972957 
L 1003.811185 496.972957 
L 1003.811185 496.972957 
L 897.589148 496.972957 
z
" clip-path="url(#pefa00d30ed)" style="fill: #0072b2; stroke: #ffffff; stroke-linejoin: miter"/>
   </g>
   <g id="patch_51">
    <path d="M 1003.811185 496.972957 
L 1110.033223 496.972957 
L 1110.033223 496.972957 
L 1003.811185 496.972957 
z
" clip-path="url(#pefa00d30ed)" style="fill: #0072b2; stroke: #ffffff; stroke-linejoin: miter"/>
   </g>
   <g id="patch_52">
    <path d="M 1110.033223 496.972957 
L 1216.255261 496.972957 
L 1216.255261 496.972957 
L 1110.033223 496.972957 
z
" clip-path="url(#pefa00d30ed)" style="fill: #0072b2; stroke: #ffffff; stroke-linejoin: miter"/>
   </g>
   <g id="patch_53">
    <path d="M 154.034884 15.789375 
L 260.256922 15.789375 
L 260.256922 15.789375 
L 154.034884 15.789375 
z
" clip-path="url(#pefa00d30ed)" style="fill: #d55e00; stroke: #ffffff; stroke-linejoin: miter"/>
   </g>
   <g id="patch_54">
    <path d="M 260.256922 15.789375 
L 366.47896 15.789375 
L 366.47896 15.789375 
L 260.256922 15.789375 
z
" clip-path="url(#pefa00d30ed)" style="fill: #d55e00; stroke: #ffffff; stroke-linejoin: miter"/>
   </g>
   <g id="patch_55">
    <path d="M 366.47896 15.789375 
L 472.700997 15.789375 
L 472.700997 15.789375 
L 366.47896 15.789375 
z
" clip-path="url(#pefa00d30ed)" style="fill: #d55e00; stroke: #ffffff; stroke-linejoin: miter"/>
   </g>
   <g id="patch_56">
    <path d="M 472.700997 15.789375 
L 578.923035 15.789375 
L 578.923035 15.789375 
L 472.700997 15.789375 
z
" clip-path="url(#pefa00d30ed)" style="fill: #d55e00; stroke: #ffffff; stroke-linejoin: miter"/>
   </g>
   <g id="patch_57">
    <path d="M 578.923035 15.789375 
L 685.145072 15.789375 
L 685.145072 15.789375 
L 578.923035 15.789375 
z
" clip-path="url(#pefa00d30ed)" style="fill: #d55e00; stroke: #ffffff; stroke-linejoin: miter"/>
   </g>
   <g id="patch_58">
    <path d="M 685.145072 496.972957 
L 791.36711 496.972957 
L 791.36711 15.789375 
L 685.145072 15.789375 
z
" clip-path="url(#pefa00d30ed)" style="fill: #d55e00; stroke: #ffffff; stroke-linejoin: miter"/>
   </g>
   <g id="patch_59">
    <path d="M 791.36711 496.972957 
L 897.589148 496.972957 
L 897.589148 496.972957 
L 791.36711 496.972957 
z
" clip-path="url(#pefa00d30ed)" style="fill: #d55e00; stroke: #ffffff; stroke-linejoin: miter"/>
   </g>
   <g id="patch_60">
    <path d="M 897.589148 496.972957 
L 1003.811185 496.972957 
L 1003.811185 496.972957 
L 897.589148 496.972957 
z
" clip-path="url(#pefa00d30ed)" style="fill: #d55e00; stroke: #ffffff; stroke-linejoin: miter"/>
   </g>
   <g id="patch_61">
    <path d="M 1003.811185 496.972957 
L 1110.033223 496.972957 
L 1110.033223 496.972957 
L 1003.811185 496.972957 
z
" clip-path="url(#pefa00d30ed)" style="fill: #d55e00; stroke: #ffffff; stroke-linejoin: miter"/>
   </g>
   <g id="patch_62">
    <path d="M 1110.033223 496.972957 
L 1216.255261 496.972957 
L 1216.255261 496.972957 
L 1110.033223 496.972957 
z
" clip-path="url(#pefa00d30ed)" style="fill: #d55e00; stroke: #ffffff; stroke-linejoin: miter"/>
   </g>
   <g id="patch_63">
    <path d="M 154.034884 15.789375 
L 260.256922 15.789375 
L 260.256922 15.789375 
L 154.034884 15.789375 
z
" clip-path="url(#pefa00d30ed)" style="fill: #cc79a7; stroke: #ffffff; stroke-linejoin: miter"/>
   </g>
   <g id="patch_64">
    <path d="M 260.256922 15.789375 
L 366.47896 15.789375 
L 366.47896 15.789375 
L 260.256922 15.789375 
z
" clip-path="url(#pefa00d30ed)" style="fill: #cc79a7; stroke: #ffffff; stroke-linejoin: miter"/>
   </g>
   <g id="patch_65">
    <path d="M 366.47896 15.789375 
L 472.700997 15.789375 
L 472.700997 15.789375 
L 366.47896 15.789375 
z
" clip-path="url(#pefa00d30ed)" style="fill: #cc79a7; stroke: #ffffff; stroke-linejoin: miter"/>
   </g>
   <g id="patch_66">
    <path d="M 472.700997 15.789375 
L 578.923035 15.789375 
L 578.923035 15.789375 
L 472.700997 15.789375 
z
" clip-path="url(#pefa00d30ed)" style="fill: #cc79a7; stroke: #ffffff; stroke-linejoin: miter"/>
   </g>
   <g id="patch_67">
    <path d="M 578.923035 15.789375 
L 685.145072 15.789375 
L 685.145072 15.789375 
L 578.923035 15.789375 
z
" clip-path="url(#pefa00d30ed)" style="fill: #cc79a7; stroke: #ffffff; stroke-linejoin: miter"/>
   </g>
   <g id="patch_68">
    <path d="M 685.145072 15.789375 
L 791.36711 15.789375 
L 791.36711 15.789375 
L 685.145072 15.789375 
z
" clip-path="url(#pefa00d30ed)" style="fill: #cc79a7; stroke: #ffffff; stroke-linejoin: miter"/>
   </g>
   <g id="patch_69">
    <path d="M 791.36711 496.972957 
L 897.589148 496.972957 
L 897.589148 15.789375 
L 791.36711 15.789375 
z
" clip-path="url(#pefa00d30ed)" style="fill: #cc79a7; stroke: #ffffff; stroke-linejoin: miter"/>
   </g>
   <g id="patch_70">
    <path d="M 897.589148 496.972957 
L 1003.811185 496.972957 
L 1003.811185 496.972957 
L 897.589148 496.972957 
z
" clip-path="url(#pefa00d30ed)" style="fill: #cc79a7; stroke: #ffffff; stroke-linejoin: miter"/>
   </g>
   <g id="patch_71">
    <path d="M 1003.811185 496.972957 
L 1110.033223 496.972957 
L 1110.033223 496.972957 
L 1003.811185 496.972957 
z
" clip-path="url(#pefa00d30ed)" style="fill: #cc79a7; stroke: #ffffff; stroke-linejoin: miter"/>
   </g>
   <g id="patch_72">
    <path d="M 1110.033223 496.972957 
L 1216.255261 496.972957 
L 1216.255261 496.972957 
L 1110.033223 496.972957 
z
" clip-path="url(#pefa00d30ed)" style="fill: #cc79a7; stroke: #ffffff; stroke-linejoin: miter"/>
   </g>
   <g id="patch_73">
    <path d="M 154.034884 15.789375 
L 260.256922 15.789375 
L 260.256922 15.789375 
L 154.034884 15.789375 
z
" clip-path="url(#pefa00d30ed)" style="stroke: #ffffff; stroke-linejoin: miter"/>
   </g>
   <g id="patch_74">
    <path d="M 260.256922 15.789375 
L 366.47896 15.789375 
L 366.47896 15.789375 
L 260.256922 15.789375 
z
" clip-path="url(#pefa00d30ed)" style="stroke: #ffffff; stroke-linejoin: miter"/>
   </g>
   <g id="patch_75">
    <path d="M 366.47896 15.789375 
L 472.700997 15.789375 
L 472.700997 15.789375 
L 366.47896 15.789375 
z
" clip-path="url(#pefa00d30ed)" style="stroke: #ffffff; stroke-linejoin: miter"/>
   </g>
   <g id="patch_76">
    <path d="M 472.700997 15.789375 
L 578.923035 15.789375 
L 578.923035 15.789375 
L 472.700997 15.789375 
z
" clip-path="url(#pefa00d30ed)" style="stroke: #ffffff; stroke-linejoin: miter"/>
   </g>
   <g id="patch_77">
    <path d="M 578.923035 15.789375 
L 685.145072 15.789375 
L 685.145072 15.789375 
L 578.923035 15.789375 
z
" clip-path="url(#pefa00d30ed)" style="stroke: #ffffff; stroke-linejoin: miter"/>
   </g>
   <g id="patch_78">
    <path d="M 685.145072 15.789375 
L 791.36711 15.789375 
L 791.36711 15.789375 
L 685.145072 15.789375 
z
" clip-path="url(#pefa00d30ed)" style="stroke: #ffffff; stroke-linejoin: miter"/>
   </g>
   <g id="patch_79">
    <path d="M 791.36711 15.789375 
L 897.589148 15.789375 
L 897.589148 15.789375 
L 791.36711 15.789375 
z
" clip-path="url(#pefa00d30ed)" style="stroke: #ffffff; stroke-linejoin: miter"/>
   </g>
   <g id="patch_80">
    <path d="M 897.589148 496.972957 
L 1003.811185 496.972957 
L 1003.811185 15.789375 
L 897.589148 15.789375 
z
" clip-path="url(#pefa00d30ed)" style="stroke: #ffffff; stroke-linejoin: miter"/>
   </g>
   <g id="patch_81">
    <path d="M 1003.811185 496.972957 
L 1110.033223 496.972957 
L 1110.033223 496.972957 
L 1003.811185 496.972957 
z
" clip-path="url(#pefa00d30ed)" style="stroke: #ffffff; stroke-linejoin: miter"/>
   </g>
   <g id="patch_82">
    <path d="M 1110.033223 496.972957 
L 1216.255261 496.972957 
L 1216.255261 496.972957 
L 1110.033223 496.972957 
z
" clip-path="url(#pefa00d30ed)" style="stroke: #ffffff; stroke-linejoin: miter"/>
   </g>
   <g id="patch_83">
    <path d="M 154.034884 15.789375 
L 260.256922 15.789375 
L 260.256922 15.789375 
L 154.034884 15.789375 
z
" clip-path="url(#pefa00d30ed)" style="fill: #795548; stroke: #ffffff; stroke-linejoin: miter"/>
   </g>
   <g id="patch_84">
    <path d="M 260.256922 15.789375 
L 366.47896 15.789375 
L 366.47896 15.789375 
L 260.256922 15.789375 
z
" clip-path="url(#pefa00d30ed)" style="fill: #795548; stroke: #ffffff; stroke-linejoin: miter"/>
   </g>
   <g id="patch_85">
    <path d="M 366.47896 15.789375 
L 472.700997 15.789375 
L 472.700997 15.789375 
L 366.47896 15.789375 
z
" clip-path="url(#pefa00d30ed)" style="fill: #795548; stroke: #ffffff; stroke-linejoin: miter"/>
   </g>
   <g id="patch_86">
    <path d="M 472.700997 15.789375 
L 578.923035 15.789375 
L 578.923035 15.789375 
L 472.700997 15.789375 
z
" clip-path="url(#pefa00d30ed)" style="fill: #795548; stroke: #ffffff; stroke-linejoin: miter"/>
   </g>
   <g id="patch_87">
    <path d="M 578.923035 15.789375 
L 685.145072 15.789375 
L 685.145072 15.789375 
L 578.923035 15.789375 
z
" clip-path="url(#pefa00d30ed)" style="fill: #795548; stroke: #ffffff; stroke-linejoin: miter"/>
   </g>
   <g id="patch_88">
    <path d="M 685.145072 15.789375 
L 791.36711 15.789375 
L 791.36711 15.789375 
L 685.145072 15.789375 
z
" clip-path="url(#pefa00d30ed)" style="fill: #795548; stroke: #ffffff; stroke-linejoin: miter"/>
   </g>
   <g id="patch_89">
    <path d="M 791.36711 15.789375 
L 897.589148 15.789375 
L 897.589148 15.789375 
L 791.36711 15.789375 
z
" clip-path="url(#pefa00d30ed)" style="fill: #795548; stroke: #ffffff; stroke-linejoin: miter"/>
   </g>
   <g id="patch_90">
    <path d="M 897.589148 15.789375 
L 1003.811185 15.789375 
L 1003.811185 15.789375 
L 897.589148 15.789375 
z
" clip-path="url(#pefa00d30ed)" style="fill: #795548; stroke: #ffffff; stroke-linejoin: miter"/>
   </g>
   <g id="patch_91">
    <path d="M 1003.811185 496.972957 
L 1110.033223 496.972957 
L 1110.033223 15.789375 
L 1003.811185 15.789375 
z
" clip-path="url(#pefa00d30ed)" style="fill: #795548; stroke: #ffffff; stroke-linejoin: miter"/>
   </g>
   <g id="patch_92">
    <path d="M 1110.033223 496.972957 
L 1216.255261 496.972957 
L 1216.255261 496.972957 
L 1110.033223 496.972957 
z
" clip-path="url(#pefa00d30ed)" style="fill: #795548; stroke: #ffffff; stroke-linejoin: miter"/>
   </g>
   <g id="patch_93">
    <path d="M 154.034884 15.789375 
L 260.256922 15.789375 
L 260.256922 15.789375 
L 154.034884 15.789375 
z
" clip-path="url(#pefa00d30ed)" style="fill: #607d8b; stroke: #ffffff; stroke-linejoin: miter"/>
   </g>
   <g id="patch_94">
    <path d="M 260.256922 15.789375 
L 366.47896 15.789375 
L 366.47896 15.789375 
L 260.256922 15.789375 
z
" clip-path="url(#pefa00d30ed)" style="fill: #607d8b; stroke: #ffffff; stroke-linejoin: miter"/>
   </g>
   <g id="patch_95">
    <path d="M 366.47896 15.789375 
L 472.700997 15.789375 
L 472.700997 15.789375 
L 366.47896 15.789375 
z
" clip-path="url(#pefa00d30ed)" style="fill: #607d8b; stroke: #ffffff; stroke-linejoin: miter"/>
   </g>
   <g id="patch_96">
    <path d="M 472.700997 15.789375 
L 578.923035 15.789375 
L 578.923035 15.789375 
L 472.700997 15.789375 
z
" clip-path="url(#pefa00d30ed)" style="fill: #607d8b; stroke: #ffffff; stroke-linejoin: miter"/>
   </g>
   <g id="patch_97">
    <path d="M 578.923035 15.789375 
L 685.145072 15.789375 
L 685.145072 15.789375 
L 578.923035 15.789375 
z
" clip-path="url(#pefa00d30ed)" style="fill: #607d8b; stroke: #ffffff; stroke-linejoin: miter"/>
   </g>
   <g id="patch_98">
    <path d="M 685.145072 15.789375 
L 791.36711 15.789375 
L 791.36711 15.789375 
L 685.145072 15.789375 
z
" clip-path="url(#pefa00d30ed)" style="fill: #607d8b; stroke: #ffffff; stroke-linejoin: miter"/>
   </g>
   <g id="patch_99">
    <path d="M 791.36711 15.789375 
L 897.589148 15.789375 
L 897.589148 15.789375 
L 791.36711 15.789375 
z
" clip-path="url(#pefa00d30ed)" style="fill: #607d8b; stroke: #ffffff; stroke-linejoin: miter"/>
   </g>
   <g id="patch_100">
    <path d="M 897.589148 15.789375 
L 1003.811185 15.789375 
L 1003.811185 15.789375 
L 897.589148 15.789375 
z
" clip-path="url(#pefa00d30ed)" style="fill: #607d8b; stroke: #ffffff; stroke-linejoin: miter"/>
   </g>
   <g id="patch_101">
    <path d="M 1003.811185 15.789375 
L 1110.033223 15.789375 
L 1110.033223 15.789375 
L 1003.811185 15.789375 
z
" clip-path="url(#pefa00d30ed)" style="fill: #607d8b; stroke: #ffffff; stroke-linejoin: miter"/>
   </g>
   <g id="patch_102">
    <path d="M 1110.033223 496.972957 
L 1216.255261 496.972957 
L 1216.255261 15.789375 
L 1110.033223 15.789375 
z
" clip-path="url(#pefa00d30ed)" style="fill: #607d8b; stroke: #ffffff; stroke-linejoin: miter"/>
   </g>
   <g id="patch_103">
    <path d="M 127.479375 496.972957 
L 127.479375 15.789375 
" style="fill: none; stroke: #cccccc; stroke-width: 1.25; stroke-linejoin: miter; stroke-linecap: square"/>
   </g>
   <g id="patch_104">
    <path d="M 1242.81077 496.972957 
L 1242.81077 15.789375 
" style="fill: none; stroke: #cccccc; stroke-width: 1.25; stroke-linejoin: miter; stroke-linecap: square"/>
   </g>
   <g id="patch_105">
    <path d="M 127.479375 496.972957 
L 1242.81077 496.972957 
" style="fill: none; stroke: #cccccc; stroke-width: 1.25; stroke-linejoin: miter; stroke-linecap: square"/>
   </g>
   <g id="patch_106">
    <path d="M 127.479375 15.789375 
L 1242.81077 15.789375 
" style="fill: none; stroke: #cccccc; stroke-width: 1.25; stroke-linejoin: miter; stroke-linecap: square"/>
   </g>
   <g id="legend_1">
    <g id="patch_107">
     <path d="M 1247.61077 398.254688 
L 1436.39952 398.254688 
Q 1441.19952 398.254688 1441.19952 393.454688 
L 1441.19952 20.589375 
Q 1441.19952 15.789375 1436.39952 15.789375 
L 1247.61077 15.789375 
Q 1242.81077 15.789375 1242.81077 20.589375 
L 1242.81077 393.454688 
Q 1242.81077 398.254688 1247.61077 398.254688 
z
" style="fill: #ffffff; stroke: #000000; stroke-linejoin: miter"/>
    </g>
    <g id="text_19">
     <text style="font-size: 26px; font-family: 'Arial', 'DejaVu Sans', 'Liberation Sans', 'Bitstream Vera Sans', sans-serif; text-anchor: start; fill: #262626" x="1252.41077" y="43.999687" transform="rotate(-0 1252.41077 43.999687)">ADI State Rank</text>
    </g>
    <g id="patch_108">
     <path d="M 1295.058895 78.345937 
L 1343.058895 78.345937 
L 1343.058895 61.545937 
L 1295.058895 61.545937 
z
" style="fill: #e69f00; stroke: #ffffff; stroke-linejoin: miter"/>
    </g>
    <g id="text_20">
     <text style="font-size: 24px; font-family: 'Arial', 'DejaVu Sans', 'Liberation Sans', 'Bitstream Vera Sans', sans-serif; text-anchor: start; fill: #262626" x="1362.258895" y="78.345937" transform="rotate(-0 1362.258895 78.345937)">1</text>
    </g>
    <g id="patch_109">
     <path d="M 1295.058895 112.294687 
L 1343.058895 112.294687 
L 1343.058895 95.494687 
L 1295.058895 95.494687 
z
" style="fill: #56b4e9; stroke: #ffffff; stroke-linejoin: miter"/>
    </g>
    <g id="text_21">
     <text style="font-size: 24px; font-family: 'Arial', 'DejaVu Sans', 'Liberation Sans', 'Bitstream Vera Sans', sans-serif; text-anchor: start; fill: #262626" x="1362.258895" y="112.294687" transform="rotate(-0 1362.258895 112.294687)">2</text>
    </g>
    <g id="patch_110">
     <path d="M 1295.058895 146.243437 
L 1343.058895 146.243437 
L 1343.058895 129.443437 
L 1295.058895 129.443437 
z
" style="fill: #009e73; stroke: #ffffff; stroke-linejoin: miter"/>
    </g>
    <g id="text_22">
     <text style="font-size: 24px; font-family: 'Arial', 'DejaVu Sans', 'Liberation Sans', 'Bitstream Vera Sans', sans-serif; text-anchor: start; fill: #262626" x="1362.258895" y="146.243437" transform="rotate(-0 1362.258895 146.243437)">3</text>
    </g>
    <g id="patch_111">
     <path d="M 1295.058895 180.192187 
L 1343.058895 180.192187 
L 1343.058895 163.392187 
L 1295.058895 163.392187 
z
" style="fill: #f0e442; stroke: #ffffff; stroke-linejoin: miter"/>
    </g>
    <g id="text_23">
     <text style="font-size: 24px; font-family: 'Arial', 'DejaVu Sans', 'Liberation Sans', 'Bitstream Vera Sans', sans-serif; text-anchor: start; fill: #262626" x="1362.258895" y="180.192187" transform="rotate(-0 1362.258895 180.192187)">4</text>
    </g>
    <g id="patch_112">
     <path d="M 1295.058895 214.140937 
L 1343.058895 214.140937 
L 1343.058895 197.340937 
L 1295.058895 197.340937 
z
" style="fill: #0072b2; stroke: #ffffff; stroke-linejoin: miter"/>
    </g>
    <g id="text_24">
     <text style="font-size: 24px; font-family: 'Arial', 'DejaVu Sans', 'Liberation Sans', 'Bitstream Vera Sans', sans-serif; text-anchor: start; fill: #262626" x="1362.258895" y="214.140937" transform="rotate(-0 1362.258895 214.140937)">5</text>
    </g>
    <g id="patch_113">
     <path d="M 1295.058895 248.089687 
L 1343.058895 248.089687 
L 1343.058895 231.289687 
L 1295.058895 231.289687 
z
" style="fill: #d55e00; stroke: #ffffff; stroke-linejoin: miter"/>
    </g>
    <g id="text_25">
     <text style="font-size: 24px; font-family: 'Arial', 'DejaVu Sans', 'Liberation Sans', 'Bitstream Vera Sans', sans-serif; text-anchor: start; fill: #262626" x="1362.258895" y="248.089687" transform="rotate(-0 1362.258895 248.089687)">6</text>
    </g>
    <g id="patch_114">
     <path d="M 1295.058895 282.038437 
L 1343.058895 282.038437 
L 1343.058895 265.238437 
L 1295.058895 265.238437 
z
" style="fill: #cc79a7; stroke: #ffffff; stroke-linejoin: miter"/>
    </g>
    <g id="text_26">
     <text style="font-size: 24px; font-family: 'Arial', 'DejaVu Sans', 'Liberation Sans', 'Bitstream Vera Sans', sans-serif; text-anchor: start; fill: #262626" x="1362.258895" y="282.038437" transform="rotate(-0 1362.258895 282.038437)">7</text>
    </g>
    <g id="patch_115">
     <path d="M 1295.058895 315.987188 
L 1343.058895 315.987188 
L 1343.058895 299.187187 
L 1295.058895 299.187187 
z
" style="stroke: #ffffff; stroke-linejoin: miter"/>
    </g>
    <g id="text_27">
     <text style="font-size: 24px; font-family: 'Arial', 'DejaVu Sans', 'Liberation Sans', 'Bitstream Vera Sans', sans-serif; text-anchor: start; fill: #262626" x="1362.258895" y="315.987188" transform="rotate(-0 1362.258895 315.987188)">8</text>
    </g>
    <g id="patch_116">
     <path d="M 1295.058895 349.935937 
L 1343.058895 349.935937 
L 1343.058895 333.135937 
L 1295.058895 333.135937 
z
" style="fill: #795548; stroke: #ffffff; stroke-linejoin: miter"/>
    </g>
    <g id="text_28">
     <text style="font-size: 24px; font-family: 'Arial', 'DejaVu Sans', 'Liberation Sans', 'Bitstream Vera Sans', sans-serif; text-anchor: start; fill: #262626" x="1362.258895" y="349.935937" transform="rotate(-0 1362.258895 349.935937)">9</text>
    </g>
    <g id="patch_117">
     <path d="M 1295.058895 383.884687 
L 1343.058895 383.884687 
L 1343.058895 367.084687 
L 1295.058895 367.084687 
z
" style="fill: #607d8b; stroke: #ffffff; stroke-linejoin: miter"/>
    </g>
    <g id="text_29">
     <text style="font-size: 24px; font-family: 'Arial', 'DejaVu Sans', 'Liberation Sans', 'Bitstream Vera Sans', sans-serif; text-anchor: start; fill: #262626" x="1362.258895" y="383.884687" transform="rotate(-0 1362.258895 383.884687)">10</text>
    </g>
   </g>
  </g>
 </g>
 <defs>
  <clipPath id="pefa00d30ed">
   <rect x="127.479375" y="15.789375" width="1115.331395" height="481.183582"/>
  </clipPath>
 </defs>
</svg>
