<?xml version="1.0" encoding="utf-8" standalone="no"?>
<!DOCTYPE svg PUBLIC "-//W3C//DTD SVG 1.1//EN"
  "http://www.w3.org/Graphics/SVG/1.1/DTD/svg11.dtd">
<svg xmlns:xlink="http://www.w3.org/1999/xlink" width="1070.551875pt" height="566.526562pt" viewBox="0 0 1070.551875 566.526562" xmlns="http://www.w3.org/2000/svg" version="1.1">
 <metadata>
  <rdf:RDF xmlns:dc="http://purl.org/dc/elements/1.1/" xmlns:cc="http://creativecommons.org/ns#" xmlns:rdf="http://www.w3.org/1999/02/22-rdf-syntax-ns#">
   <cc:Work>
    <dc:type rdf:resource="http://purl.org/dc/dcmitype/StillImage"/>
    <dc:date>2026-06-29T04:14:54.876602</dc:date>
    <dc:format>image/svg+xml</dc:format>
    <dc:creator>
     <cc:Agent>
      <dc:title>Matplotlib v3.10.9, https://matplotlib.org/</dc:title>
     </cc:Agent>
    </dc:creator>
   </cc:Work>
  </rdf:RDF>
 </metadata>
 <defs>
  <style type="text/css">*{stroke-linejoin: round; stroke-linecap: butt}</style>
 </defs>
 <g id="figure_1">
  <g id="patch_1">
   <path d="M 0 566.526562 
L 1070.551875 566.526562 
L 1070.551875 0 
L 0 0 
L 0 566.526562 
z
" style="fill: none"/>
  </g>
  <g id="axes_1">
   <g id="patch_2">
    <path d="M 92.791875 479.1 
L 1063.351875 479.1 
L 1063.351875 7.2 
L 92.791875 7.2 
L 92.791875 479.1 
z
" style="fill: none"/>
   </g>
   <g id="matplotlib.axis_1">
    <g id="xtick_1">
     <g id="line2d_1">
      <path d="M 189.847875 479.1 
L 189.847875 7.2 
" clip-path="url(#p73bdee25f2)" style="fill: none; stroke: #d3d3d3; stroke-opacity: 0.3; stroke-linecap: round"/>
     </g>
     <g id="text_1">
      <text style="font-size: 24px; font-family: 'Arial', 'DejaVu Sans', 'Liberation Sans', 'Bitstream Vera Sans', sans-serif; text-anchor: middle; fill: #262626" x="189.847875" y="505.77875" transform="rotate(-0 189.847875 505.77875)">1</text>
     </g>
    </g>
    <g id="xtick_2">
     <g id="line2d_2">
      <path d="M 383.959875 479.1 
L 383.959875 7.2 
" clip-path="url(#p73bdee25f2)" style="fill: none; stroke: #d3d3d3; stroke-opacity: 0.3; stroke-linecap: round"/>
     </g>
     <g id="text_2">
      <text style="font-size: 24px; font-family: 'Arial', 'DejaVu Sans', 'Liberation Sans', 'Bitstream Vera Sans', sans-serif; text-anchor: middle; fill: #262626" x="383.959875" y="505.77875" transform="rotate(-0 383.959875 505.77875)">0</text>
     </g>
    </g>
    <g id="xtick_3">
     <g id="line2d_3">
      <path d="M 578.071875 479.1 
L 578.071875 7.2 
" clip-path="url(#p73bdee25f2)" style="fill: none; stroke: #d3d3d3; stroke-opacity: 0.3; stroke-linecap: round"/>
     </g>
     <g id="text_3">
      <text style="font-size: 24px; font-family: 'Arial', 'DejaVu Sans', 'Liberation Sans', 'Bitstream Vera Sans', sans-serif; text-anchor: middle; fill: #262626" x="578.071875" y="505.77875" transform="rotate(-0 578.071875 505.77875)">4</text>
     </g>
    </g>
    <g id="xtick_4">
     <g id="line2d_4">
      <path d="M 772.183875 479.1 
L 772.183875 7.2 
" clip-path="url(#p73bdee25f2)" style="fill: none; stroke: #d3d3d3; stroke-opacity: 0.3; stroke-linecap: round"/>
     </g>
     <g id="text_4">
      <text style="font-size: 24px; font-family: 'Arial', 'DejaVu Sans', 'Liberation Sans', 'Bitstream Vera Sans', sans-serif; text-anchor: middle; fill: #262626" x="772.183875" y="505.77875" transform="rotate(-0 772.183875 505.77875)">2</text>
     </g>
    </g>
    <g id="xtick_5">
     <g id="line2d_5">
      <path d="M 966.295875 479.1 
L 966.295875 7.2 
" clip-path="url(#p73bdee25f2)" style="fill: none; stroke: #d3d3d3; stroke-opacity: 0.3; stroke-linecap: round"/>
     </g>
     <g id="text_5">
      <text style="font-size: 24px; font-family: 'Arial', 'DejaVu Sans', 'Liberation Sans', 'Bitstream Vera Sans', sans-serif; text-anchor: middle; fill: #262626" x="966.295875" y="505.77875" transform="rotate(-0 966.295875 505.77875)">3</text>
     </g>
    </g>
    <g id="text_6">
     <text style="font-size: 26px; font-family: 'Arial', 'DejaVu Sans', 'Liberation Sans', 'Bitstream Vera Sans', sans-serif; text-anchor: middle; fill: #262626" x="578.071875" y="554.159063" transform="rotate(-0 578.071875 554.159063)">Socioeconomic Cluster Rank</text>
    </g>
   </g>
   <g id="matplotlib.axis_2">
    <g id="ytick_1">
     <g id="line2d_6">
      <path d="M 92.791875 401.957556 
L 1063.351875 401.957556 
" clip-path="url(#p73bdee25f2)" style="fill: none; stroke: #d3d3d3; stroke-opacity: 0.3; stroke-linecap: round"/>
     </g>
     <g id="text_7">
      <text style="font-size: 24px; font-family: 'Arial', 'DejaVu Sans', 'Liberation Sans', 'Bitstream Vera Sans', sans-serif; text-anchor: end; fill: #262626" x="83.291875" y="410.546931" transform="rotate(-0 83.291875 410.546931)">2</text>
     </g>
    </g>
    <g id="ytick_2">
     <g id="line2d_7">
      <path d="M 92.791875 313.586309 
L 1063.351875 313.586309 
" clip-path="url(#p73bdee25f2)" style="fill: none; stroke: #d3d3d3; stroke-opacity: 0.3; stroke-linecap: round"/>
     </g>
     <g id="text_8">
      <text style="font-size: 24px; font-family: 'Arial', 'DejaVu Sans', 'Liberation Sans', 'Bitstream Vera Sans', sans-serif; text-anchor: end; fill: #262626" x="83.291875" y="322.175684" transform="rotate(-0 83.291875 322.175684)">4</text>
     </g>
    </g>
    <g id="ytick_3">
     <g id="line2d_8">
      <path d="M 92.791875 225.215061 
L 1063.351875 225.215061 
" clip-path="url(#p73bdee25f2)" style="fill: none; stroke: #d3d3d3; stroke-opacity: 0.3; stroke-linecap: round"/>
     </g>
     <g id="text_9">
      <text style="font-size: 24px; font-family: 'Arial', 'DejaVu Sans', 'Liberation Sans', 'Bitstream Vera Sans', sans-serif; text-anchor: end; fill: #262626" x="83.291875" y="233.804436" transform="rotate(-0 83.291875 233.804436)">6</text>
     </g>
    </g>
    <g id="ytick_4">
     <g id="line2d_9">
      <path d="M 92.791875 136.843814 
L 1063.351875 136.843814 
" clip-path="url(#p73bdee25f2)" style="fill: none; stroke: #d3d3d3; stroke-opacity: 0.3; stroke-linecap: round"/>
     </g>
     <g id="text_10">
      <text style="font-size: 24px; font-family: 'Arial', 'DejaVu Sans', 'Liberation Sans', 'Bitstream Vera Sans', sans-serif; text-anchor: end; fill: #262626" x="83.291875" y="145.433189" transform="rotate(-0 83.291875 145.433189)">8</text>
     </g>
    </g>
    <g id="ytick_5">
     <g id="line2d_10">
      <path d="M 92.791875 48.472566 
L 1063.351875 48.472566 
" clip-path="url(#p73bdee25f2)" style="fill: none; stroke: #d3d3d3; stroke-opacity: 0.3; stroke-linecap: round"/>
     </g>
     <g id="text_11">
      <text style="font-size: 24px; font-family: 'Arial', 'DejaVu Sans', 'Liberation Sans', 'Bitstream Vera Sans', sans-serif; text-anchor: end; fill: #262626" x="83.291875" y="57.061941" transform="rotate(-0 83.291875 57.061941)">10</text>
     </g>
    </g>
    <g id="text_12">
     <text style="font-size: 26px; font-family: 'Arial', 'DejaVu Sans', 'Liberation Sans', 'Bitstream Vera Sans', sans-serif; text-anchor: middle; fill: #262626" x="26.127188" y="243.15" transform="rotate(-90 26.127188 243.15)">Median Area Deprivation Index (ADI)</text>
    </g>
   </g>
   <g id="FillBetweenPolyCollection_1">
    <defs>
     <path id="m87dc47d050" d="M 200.36119 -113.23709 
L 179.33456 -113.23709 
L 171.837041 -114.274098 
L 161.485169 -115.311107 
L 148.791443 -116.348115 
L 135.217466 -117.385124 
L 123.027733 -118.422132 
L 114.720185 -119.459141 
L 112.203075 -120.496149 
L 116.083882 -121.533157 
L 125.431518 -122.570166 
L 138.138701 -123.607174 
L 151.692235 -124.644183 
L 163.967558 -125.681191 
L 173.711717 -126.718199 
L 180.59982 -127.755208 
L 184.975729 -128.792216 
L 187.488429 -129.829225 
L 188.797561 -130.866233 
L 189.418093 -131.903242 
L 189.686217 -132.94025 
L 189.791981 -133.977258 
L 189.83011 -135.014267 
L 189.842685 -136.051275 
L 189.846481 -137.088284 
L 189.847531 -138.125292 
L 189.847797 -139.1623 
L 189.847859 -140.199309 
L 189.847872 -141.236317 
L 189.847874 -142.273326 
L 189.847874 -143.310334 
L 189.847871 -144.347342 
L 189.847855 -145.384351 
L 189.847786 -146.421359 
L 189.847502 -147.458368 
L 189.846438 -148.495376 
L 189.842791 -149.532385 
L 189.831343 -150.569393 
L 189.798458 -151.606401 
L 189.712093 -152.64341 
L 189.504929 -153.680418 
L 189.051662 -154.717427 
L 188.148645 -155.754435 
L 186.514421 -156.791443 
L 183.836739 -157.828452 
L 179.883769 -158.86546 
L 174.665496 -159.902469 
L 168.583088 -160.939477 
L 162.469862 -161.976485 
L 157.446568 -163.013494 
L 154.599197 -164.050502 
L 154.599197 -165.087511 
L 157.446568 -166.124519 
L 162.469862 -167.161528 
L 168.583088 -168.198536 
L 174.665496 -169.235544 
L 179.883769 -170.272553 
L 183.836739 -171.309561 
L 186.514421 -172.34657 
L 188.148645 -173.383578 
L 189.051662 -174.420586 
L 189.504929 -175.457595 
L 189.712093 -176.494603 
L 189.798458 -177.531612 
L 189.831343 -178.56862 
L 189.842791 -179.605628 
L 189.846438 -180.642637 
L 189.847502 -181.679645 
L 189.847786 -182.716654 
L 189.847855 -183.753662 
L 189.847871 -184.790671 
L 189.847874 -185.827679 
L 189.847875 -186.864687 
L 189.847875 -187.901696 
L 189.847875 -188.938704 
L 189.847873 -189.975713 
L 189.847867 -191.012721 
L 189.847842 -192.049729 
L 189.847751 -193.086738 
L 189.847451 -194.123746 
L 189.846541 -195.160755 
L 189.844018 -196.197763 
L 189.83762 -197.234771 
L 189.822814 -198.27178 
L 189.791577 -199.308788 
L 189.731623 -200.345797 
L 189.627212 -201.382805 
L 189.462858 -202.419814 
L 189.230357 -203.456822 
L 188.937462 -204.49383 
L 188.614068 -205.530839 
L 188.310868 -206.567847 
L 188.087829 -207.604856 
L 187.995231 -208.641864 
L 188.05529 -209.678872 
L 188.253512 -210.715881 
L 188.544366 -211.752889 
L 188.868248 -212.789898 
L 189.171126 -213.826906 
L 189.418127 -214.863915 
L 189.597022 -215.900923 
L 190.098728 -215.900923 
L 190.098728 -215.900923 
L 190.277623 -214.863915 
L 190.524624 -213.826906 
L 190.827502 -212.789898 
L 191.151384 -211.752889 
L 191.442238 -210.715881 
L 191.64046 -209.678872 
L 191.700519 -208.641864 
L 191.607921 -207.604856 
L 191.384882 -206.567847 
L 191.081682 -205.530839 
L 190.758288 -204.49383 
L 190.465393 -203.456822 
L 190.232892 -202.419814 
L 190.068538 -201.382805 
L 189.964127 -200.345797 
L 189.904173 -199.308788 
L 189.872936 -198.27178 
L 189.85813 -197.234771 
L 189.851732 -196.197763 
L 189.849209 -195.160755 
L 189.848299 -194.123746 
L 189.847999 -193.086738 
L 189.847908 -192.049729 
L 189.847883 -191.012721 
L 189.847877 -189.975713 
L 189.847875 -188.938704 
L 189.847875 -187.901696 
L 189.847875 -186.864687 
L 189.847876 -185.827679 
L 189.847879 -184.790671 
L 189.847895 -183.753662 
L 189.847964 -182.716654 
L 189.848248 -181.679645 
L 189.849312 -180.642637 
L 189.852959 -179.605628 
L 189.864407 -178.56862 
L 189.897292 -177.531612 
L 189.983657 -176.494603 
L 190.190821 -175.457595 
L 190.644088 -174.420586 
L 191.547105 -173.383578 
L 193.181329 -172.34657 
L 195.859011 -171.309561 
L 199.811981 -170.272553 
L 205.030254 -169.235544 
L 211.112662 -168.198536 
L 217.225888 -167.161528 
L 222.249182 -166.124519 
L 225.096553 -165.087511 
L 225.096553 -164.050502 
L 222.249182 -163.013494 
L 217.225888 -161.976485 
L 211.112662 -160.939477 
L 205.030254 -159.902469 
L 199.811981 -158.86546 
L 195.859011 -157.828452 
L 193.181329 -156.791443 
L 191.547105 -155.754435 
L 190.644088 -154.717427 
L 190.190821 -153.680418 
L 189.983657 -152.64341 
L 189.897292 -151.606401 
L 189.864407 -150.569393 
L 189.852959 -149.532385 
L 189.849312 -148.495376 
L 189.848248 -147.458368 
L 189.847964 -146.421359 
L 189.847895 -145.384351 
L 189.847879 -144.347342 
L 189.847876 -143.310334 
L 189.847876 -142.273326 
L 189.847878 -141.236317 
L 189.847891 -140.199309 
L 189.847953 -139.1623 
L 189.848219 -138.125292 
L 189.849269 -137.088284 
L 189.853065 -136.051275 
L 189.86564 -135.014267 
L 189.903769 -133.977258 
L 190.009533 -132.94025 
L 190.277657 -131.903242 
L 190.898189 -130.866233 
L 192.207321 -129.829225 
L 194.720021 -128.792216 
L 199.09593 -127.755208 
L 205.984033 -126.718199 
L 215.728192 -125.681191 
L 228.003515 -124.644183 
L 241.557049 -123.607174 
L 254.264232 -122.570166 
L 263.611868 -121.533157 
L 267.492675 -120.496149 
L 264.975565 -119.459141 
L 256.668017 -118.422132 
L 244.478284 -117.385124 
L 230.904307 -116.348115 
L 218.210581 -115.311107 
L 207.858709 -114.274098 
L 200.36119 -113.23709 
z
" style="stroke: #2f2f2f; stroke-width: 1.25"/>
    </defs>
    <g clip-path="url(#p73bdee25f2)">
     <use xlink:href="#m87dc47d050" x="0" y="566.526562" style="fill: #68afd7; stroke: #2f2f2f; stroke-width: 1.25"/>
    </g>
   </g>
   <g id="FillBetweenPolyCollection_2">
    <defs>
     <path id="m87d3c2e3e0" d="M 384.918918 -108.876563 
L 383.000832 -108.876563 
L 382.364453 -110.447982 
L 381.496589 -112.019401 
L 380.430026 -113.59082 
L 379.265265 -115.16224 
L 378.164989 -116.733659 
L 377.321033 -118.305078 
L 376.900898 -119.876498 
L 376.993719 -121.447917 
L 377.579492 -123.019336 
L 378.536093 -124.590756 
L 379.680702 -126.162175 
L 380.826449 -127.733594 
L 381.830358 -129.305014 
L 382.616662 -130.876433 
L 383.173531 -132.447852 
L 383.532611 -134.019271 
L 383.744349 -135.590691 
L 383.858749 -137.16211 
L 383.91505 -138.733529 
L 383.938856 -140.304949 
L 383.943026 -141.876368 
L 383.928606 -143.447787 
L 383.883057 -145.019207 
L 383.774248 -146.590626 
L 383.540456 -148.162045 
L 383.079523 -149.733465 
L 382.244674 -151.304884 
L 380.858304 -152.876303 
L 378.754509 -154.447722 
L 375.851704 -156.019142 
L 372.238014 -157.590561 
L 368.231919 -159.16198 
L 364.373682 -160.7334 
L 361.322306 -162.304819 
L 359.676358 -163.876238 
L 359.783265 -165.447658 
L 361.619973 -167.019077 
L 364.801038 -168.590496 
L 368.710254 -170.161916 
L 372.694361 -171.733335 
L 376.235827 -173.304754 
L 379.044675 -174.876174 
L 381.056918 -176.447593 
L 382.368573 -178.019012 
L 383.150124 -179.590431 
L 383.576835 -181.161851 
L 383.789533 -182.73327 
L 383.882373 -184.304689 
L 383.905342 -185.876109 
L 383.868626 -187.447528 
L 383.739093 -189.018947 
L 383.423376 -190.590367 
L 382.737417 -192.161786 
L 381.371348 -193.733205 
L 378.871945 -195.304625 
L 374.67791 -196.876044 
L 368.243884 -198.447463 
L 359.262787 -200.018882 
L 347.939205 -201.590302 
L 335.200307 -203.161721 
L 322.700871 -204.73314 
L 312.529644 -206.30456 
L 306.656902 -207.875979 
L 306.315075 -209.447398 
L 311.577875 -211.018818 
L 321.334431 -212.590237 
L 333.670866 -214.161656 
L 346.480066 -215.733076 
L 358.034581 -217.304495 
L 367.316091 -218.875914 
L 374.04282 -220.447334 
L 378.475626 -222.018753 
L 381.14494 -223.590172 
L 382.618528 -225.161591 
L 383.365326 -226.733011 
L 383.710846 -228.30443 
L 383.849325 -229.875849 
L 383.875562 -231.447269 
L 383.811318 -233.018688 
L 383.614766 -234.590107 
L 383.172002 -236.161527 
L 382.278218 -237.732946 
L 380.625512 -239.304365 
L 377.823125 -240.875785 
L 373.477205 -242.447204 
L 367.340749 -244.018623 
L 359.506065 -245.590042 
L 350.564452 -247.161462 
L 341.631715 -248.732881 
L 334.166236 -250.3043 
L 329.594754 -251.87572 
L 328.870367 -253.447139 
L 332.149176 -255.018558 
L 338.735556 -256.589978 
L 347.322306 -258.161397 
L 356.412305 -259.732816 
L 364.735954 -261.304236 
L 371.50892 -262.875655 
L 376.47533 -264.447074 
L 391.44442 -264.447074 
L 391.44442 -264.447074 
L 396.41083 -262.875655 
L 403.183796 -261.304236 
L 411.507445 -259.732816 
L 420.597444 -258.161397 
L 429.184194 -256.589978 
L 435.770574 -255.018558 
L 439.049383 -253.447139 
L 438.324996 -251.87572 
L 433.753514 -250.3043 
L 426.288035 -248.732881 
L 417.355298 -247.161462 
L 408.413685 -245.590042 
L 400.579001 -244.018623 
L 394.442545 -242.447204 
L 390.096625 -240.875785 
L 387.294238 -239.304365 
L 385.641532 -237.732946 
L 384.747748 -236.161527 
L 384.304984 -234.590107 
L 384.108432 -233.018688 
L 384.044188 -231.447269 
L 384.070425 -229.875849 
L 384.208904 -228.30443 
L 384.554424 -226.733011 
L 385.301222 -225.161591 
L 386.77481 -223.590172 
L 389.444124 -222.018753 
L 393.87693 -220.447334 
L 400.603659 -218.875914 
L 409.885169 -217.304495 
L 421.439684 -215.733076 
L 434.248884 -214.161656 
L 446.585319 -212.590237 
L 456.341875 -211.018818 
L 461.604675 -209.447398 
L 461.262848 -207.875979 
L 455.390106 -206.30456 
L 445.218879 -204.73314 
L 432.719443 -203.161721 
L 419.980545 -201.590302 
L 408.656963 -200.018882 
L 399.675866 -198.447463 
L 393.24184 -196.876044 
L 389.047805 -195.304625 
L 386.548402 -193.733205 
L 385.182333 -192.161786 
L 384.496374 -190.590367 
L 384.180657 -189.018947 
L 384.051124 -187.447528 
L 384.014408 -185.876109 
L 384.037377 -184.304689 
L 384.130217 -182.73327 
L 384.342915 -181.161851 
L 384.769626 -179.590431 
L 385.551177 -178.019012 
L 386.862832 -176.447593 
L 388.875075 -174.876174 
L 391.683923 -173.304754 
L 395.225389 -171.733335 
L 399.209496 -170.161916 
L 403.118712 -168.590496 
L 406.299777 -167.019077 
L 408.136485 -165.447658 
L 408.243392 -163.876238 
L 406.597444 -162.304819 
L 403.546068 -160.7334 
L 399.687831 -159.16198 
L 395.681736 -157.590561 
L 392.068046 -156.019142 
L 389.165241 -154.447722 
L 387.061446 -152.876303 
L 385.675076 -151.304884 
L 384.840227 -149.733465 
L 384.379294 -148.162045 
L 384.145502 -146.590626 
L 384.036693 -145.019207 
L 383.991144 -143.447787 
L 383.976724 -141.876368 
L 383.980894 -140.304949 
L 384.0047 -138.733529 
L 384.061001 -137.16211 
L 384.175401 -135.590691 
L 384.387139 -134.019271 
L 384.746219 -132.447852 
L 385.303088 -130.876433 
L 386.089392 -129.305014 
L 387.093301 -127.733594 
L 388.239048 -126.162175 
L 389.383657 -124.590756 
L 390.340258 -123.019336 
L 390.926031 -121.447917 
L 391.018852 -119.876498 
L 390.598717 -118.305078 
L 389.754761 -116.733659 
L 388.654485 -115.16224 
L 387.489724 -113.59082 
L 386.423161 -112.019401 
L 385.555297 -110.447982 
L 384.918918 -108.876563 
z
" style="stroke: #2f2f2f; stroke-width: 1.25"/>
    </defs>
    <g clip-path="url(#p73bdee25f2)">
     <use xlink:href="#m87d3c2e3e0" x="0" y="566.526562" style="fill: #c9941d; stroke: #2f2f2f; stroke-width: 1.25"/>
    </g>
   </g>
   <g id="FillBetweenPolyCollection_3">
    <defs>
     <path id="m3e17139749" d="M 583.929394 -188.932064 
L 572.214356 -188.932064 
L 566.873818 -192.456756 
L 559.207296 -195.981448 
L 550.067409 -199.506139 
L 541.437856 -203.030831 
L 535.841448 -206.555523 
L 535.16944 -210.080215 
L 539.647241 -213.604907 
L 547.679303 -217.129599 
L 556.66198 -220.654291 
L 564.10691 -224.178983 
L 568.291439 -227.703675 
L 568.212657 -231.228367 
L 563.286126 -234.753059 
L 553.404917 -238.27775 
L 539.532591 -241.802442 
L 524.306386 -245.327134 
L 511.793677 -248.851826 
L 506.032718 -252.376518 
L 509.056407 -255.90121 
L 519.770964 -259.425902 
L 534.543359 -262.950594 
L 549.020088 -266.475286 
L 559.824346 -269.999978 
L 565.138692 -273.52467 
L 564.289797 -277.049361 
L 557.226784 -280.574053 
L 544.634636 -284.098745 
L 528.593918 -287.623437 
L 512.921143 -291.148129 
L 502.321827 -294.672821 
L 500.427075 -298.197513 
L 507.925764 -301.722205 
L 522.19671 -305.246897 
L 538.745441 -308.771589 
L 553.361094 -312.29628 
L 563.541569 -315.820972 
L 568.588796 -319.345664 
L 568.881129 -322.870356 
L 565.22275 -326.395048 
L 558.744144 -329.91974 
L 551.135351 -333.444432 
L 544.632766 -336.969124 
L 541.409814 -340.493816 
L 542.632718 -344.018508 
L 547.871378 -347.5432 
L 555.354911 -351.067891 
L 562.892259 -354.592583 
L 568.788071 -358.117275 
L 572.210546 -361.641967 
L 573.004486 -365.166659 
L 571.350076 -368.691351 
L 567.644853 -372.216043 
L 562.650528 -375.740735 
L 557.620934 -379.265427 
L 554.086139 -382.790119 
L 553.263629 -386.314811 
L 555.456512 -389.839502 
L 559.899509 -393.364194 
L 565.188169 -396.888886 
L 569.973774 -400.413578 
L 573.45515 -403.93827 
L 575.444424 -407.462962 
L 576.135223 -410.987654 
L 575.846815 -414.512346 
L 574.91307 -418.037038 
L 573.697344 -421.56173 
L 572.609392 -425.086421 
L 572.03223 -428.611113 
L 572.181565 -432.135805 
L 573.008604 -435.660497 
L 574.236296 -439.185189 
L 575.511076 -442.709881 
L 576.564172 -446.234573 
L 577.286845 -449.759265 
L 577.705434 -453.283957 
L 577.908921 -456.808649 
L 577.987309 -460.333341 
L 578.004604 -463.858032 
L 577.998442 -467.382724 
L 577.989007 -470.907416 
L 577.986241 -474.432108 
L 577.993236 -477.9568 
L 578.008042 -481.481492 
L 578.025888 -485.006184 
L 578.04172 -488.530876 
L 578.051878 -492.055568 
L 578.054298 -495.58026 
L 578.0479 -499.104952 
L 578.032382 -502.629643 
L 578.009044 -506.154335 
L 577.981966 -509.679027 
L 577.958017 -513.203719 
L 577.944705 -516.728411 
L 577.946688 -520.253103 
L 577.963277 -523.777795 
L 577.988858 -527.302487 
L 578.015952 -530.827179 
L 578.038679 -534.351871 
L 578.054511 -537.876563 
L 578.089239 -537.876563 
L 578.089239 -537.876563 
L 578.105071 -534.351871 
L 578.127798 -530.827179 
L 578.154892 -527.302487 
L 578.180473 -523.777795 
L 578.197062 -520.253103 
L 578.199045 -516.728411 
L 578.185733 -513.203719 
L 578.161784 -509.679027 
L 578.134706 -506.154335 
L 578.111368 -502.629643 
L 578.09585 -499.104952 
L 578.089452 -495.58026 
L 578.091872 -492.055568 
L 578.10203 -488.530876 
L 578.117862 -485.006184 
L 578.135708 -481.481492 
L 578.150514 -477.9568 
L 578.157509 -474.432108 
L 578.154743 -470.907416 
L 578.145308 -467.382724 
L 578.139146 -463.858032 
L 578.156441 -460.333341 
L 578.234829 -456.808649 
L 578.438316 -453.283957 
L 578.856905 -449.759265 
L 579.579578 -446.234573 
L 580.632674 -442.709881 
L 581.907454 -439.185189 
L 583.135146 -435.660497 
L 583.962185 -432.135805 
L 584.11152 -428.611113 
L 583.534358 -425.086421 
L 582.446406 -421.56173 
L 581.23068 -418.037038 
L 580.296935 -414.512346 
L 580.008527 -410.987654 
L 580.699326 -407.462962 
L 582.6886 -403.93827 
L 586.169976 -400.413578 
L 590.955581 -396.888886 
L 596.244241 -393.364194 
L 600.687238 -389.839502 
L 602.880121 -386.314811 
L 602.057611 -382.790119 
L 598.522816 -379.265427 
L 593.493222 -375.740735 
L 588.498897 -372.216043 
L 584.793674 -368.691351 
L 583.139264 -365.166659 
L 583.933204 -361.641967 
L 587.355679 -358.117275 
L 593.251491 -354.592583 
L 600.788839 -351.067891 
L 608.272372 -347.5432 
L 613.511032 -344.018508 
L 614.733936 -340.493816 
L 611.510984 -336.969124 
L 605.008399 -333.444432 
L 597.399606 -329.91974 
L 590.921 -326.395048 
L 587.262621 -322.870356 
L 587.554954 -319.345664 
L 592.602181 -315.820972 
L 602.782656 -312.29628 
L 617.398309 -308.771589 
L 633.94704 -305.246897 
L 648.217986 -301.722205 
L 655.716675 -298.197513 
L 653.821923 -294.672821 
L 643.222607 -291.148129 
L 627.549832 -287.623437 
L 611.509114 -284.098745 
L 598.916966 -280.574053 
L 591.853953 -277.049361 
L 591.005058 -273.52467 
L 596.319404 -269.999978 
L 607.123662 -266.475286 
L 621.600391 -262.950594 
L 636.372786 -259.425902 
L 647.087343 -255.90121 
L 650.111032 -252.376518 
L 644.350073 -248.851826 
L 631.837364 -245.327134 
L 616.611159 -241.802442 
L 602.738833 -238.27775 
L 592.857624 -234.753059 
L 587.931093 -231.228367 
L 587.852311 -227.703675 
L 592.03684 -224.178983 
L 599.48177 -220.654291 
L 608.464447 -217.129599 
L 616.496509 -213.604907 
L 620.97431 -210.080215 
L 620.302302 -206.555523 
L 614.705894 -203.030831 
L 606.076341 -199.506139 
L 596.936454 -195.981448 
L 589.269932 -192.456756 
L 583.929394 -188.932064 
z
" style="stroke: #2f2f2f; stroke-width: 1.25"/>
    </defs>
    <g clip-path="url(#p73bdee25f2)">
     <use xlink:href="#m3e17139749" x="0" y="566.526562" style="fill: #166c9c; stroke: #2f2f2f; stroke-width: 1.25"/>
    </g>
   </g>
   <g id="FillBetweenPolyCollection_4">
    <defs>
     <path id="m6bdc4660fe" d="M 782.747467 -279.958342 
L 761.620283 -279.958342 
L 753.770744 -282.536758 
L 742.85757 -285.115174 
L 729.506201 -287.69359 
L 715.434925 -290.272006 
L 703.234769 -292.850422 
L 695.639497 -295.428838 
L 694.539075 -298.007254 
L 700.217672 -300.58567 
L 711.233743 -303.164086 
L 725.009056 -305.742503 
L 738.793963 -308.320919 
L 750.506945 -310.899335 
L 759.095846 -313.477751 
L 764.38541 -316.056167 
L 766.630799 -318.634583 
L 766.069465 -321.212999 
L 762.688595 -323.791415 
L 756.297332 -326.369831 
L 746.866368 -328.948247 
L 734.976516 -331.526663 
L 722.121596 -334.105079 
L 710.610963 -336.683495 
L 702.981388 -339.261911 
L 701.11552 -341.840327 
L 705.495711 -344.418743 
L 715.00351 -346.997159 
L 727.380237 -349.575576 
L 740.088042 -352.153992 
L 751.117343 -354.732408 
L 759.387272 -357.310824 
L 764.666831 -359.88924 
L 767.193904 -362.467656 
L 767.25692 -365.046072 
L 764.945961 -367.624488 
L 760.164427 -370.202904 
L 752.879633 -372.78132 
L 743.489993 -375.359736 
L 733.10543 -377.938152 
L 723.525817 -380.516568 
L 716.818203 -383.094984 
L 714.619725 -385.6734 
L 717.497182 -388.251816 
L 724.71223 -390.830232 
L 734.52718 -393.408648 
L 744.87785 -395.987065 
L 754.053767 -398.565481 
L 761.076863 -401.143897 
L 765.687129 -403.722313 
L 768.057443 -406.300729 
L 768.449448 -408.879145 
L 766.986651 -411.457561 
L 763.629175 -414.035977 
L 758.343101 -416.614393 
L 751.378201 -419.192809 
L 743.503393 -421.771225 
L 736.031209 -424.349641 
L 730.537283 -426.928057 
L 728.346185 -429.506473 
L 730.020692 -432.084889 
L 735.129769 -434.663305 
L 742.428432 -437.241721 
L 750.347899 -439.820138 
L 757.53227 -442.398554 
L 763.172704 -444.97697 
L 767.04542 -447.555386 
L 769.32848 -450.133802 
L 770.35063 -452.712218 
L 770.401193 -455.290634 
L 769.65727 -457.86905 
L 768.219284 -460.447466 
L 766.208148 -463.025882 
L 763.861426 -465.604298 
L 761.567645 -468.182714 
L 759.803712 -470.76113 
L 758.990871 -473.339546 
L 759.337369 -475.917962 
L 760.753961 -478.496378 
L 762.891669 -481.074794 
L 765.281065 -483.653211 
L 767.497588 -486.231627 
L 769.274292 -488.810043 
L 770.526399 -491.388459 
L 771.304488 -493.966875 
L 771.720782 -496.545291 
L 771.888211 -499.123707 
L 771.89008 -501.702123 
L 771.777979 -504.280539 
L 771.585876 -506.858955 
L 771.347235 -509.437371 
L 771.105203 -512.015787 
L 770.910817 -514.594203 
L 770.810495 -517.172619 
L 770.829987 -519.751035 
L 770.964335 -522.329451 
L 771.180127 -524.907867 
L 771.429013 -527.486283 
L 771.665165 -530.0647 
L 771.858192 -532.643116 
L 771.997031 -535.221532 
L 772.370719 -535.221532 
L 772.370719 -535.221532 
L 772.509558 -532.643116 
L 772.702585 -530.0647 
L 772.938737 -527.486283 
L 773.187623 -524.907867 
L 773.403415 -522.329451 
L 773.537763 -519.751035 
L 773.557255 -517.172619 
L 773.456933 -514.594203 
L 773.262547 -512.015787 
L 773.020515 -509.437371 
L 772.781874 -506.858955 
L 772.589771 -504.280539 
L 772.47767 -501.702123 
L 772.479539 -499.123707 
L 772.646968 -496.545291 
L 773.063262 -493.966875 
L 773.841351 -491.388459 
L 775.093458 -488.810043 
L 776.870162 -486.231627 
L 779.086685 -483.653211 
L 781.476081 -481.074794 
L 783.613789 -478.496378 
L 785.030381 -475.917962 
L 785.376879 -473.339546 
L 784.564038 -470.76113 
L 782.800105 -468.182714 
L 780.506324 -465.604298 
L 778.159602 -463.025882 
L 776.148466 -460.447466 
L 774.71048 -457.86905 
L 773.966557 -455.290634 
L 774.01712 -452.712218 
L 775.03927 -450.133802 
L 777.32233 -447.555386 
L 781.195046 -444.97697 
L 786.83548 -442.398554 
L 794.019851 -439.820138 
L 801.939318 -437.241721 
L 809.237981 -434.663305 
L 814.347058 -432.084889 
L 816.021565 -429.506473 
L 813.830467 -426.928057 
L 808.336541 -424.349641 
L 800.864357 -421.771225 
L 792.989549 -419.192809 
L 786.024649 -416.614393 
L 780.738575 -414.035977 
L 777.381099 -411.457561 
L 775.918302 -408.879145 
L 776.310307 -406.300729 
L 778.680621 -403.722313 
L 783.290887 -401.143897 
L 790.313983 -398.565481 
L 799.4899 -395.987065 
L 809.84057 -393.408648 
L 819.65552 -390.830232 
L 826.870568 -388.251816 
L 829.748025 -385.6734 
L 827.549547 -383.094984 
L 820.841933 -380.516568 
L 811.26232 -377.938152 
L 800.877757 -375.359736 
L 791.488117 -372.78132 
L 784.203323 -370.202904 
L 779.421789 -367.624488 
L 777.11083 -365.046072 
L 777.173846 -362.467656 
L 779.700919 -359.88924 
L 784.980478 -357.310824 
L 793.250407 -354.732408 
L 804.279708 -352.153992 
L 816.987513 -349.575576 
L 829.36424 -346.997159 
L 838.872039 -344.418743 
L 843.25223 -341.840327 
L 841.386362 -339.261911 
L 833.756787 -336.683495 
L 822.246154 -334.105079 
L 809.391234 -331.526663 
L 797.501382 -328.948247 
L 788.070418 -326.369831 
L 781.679155 -323.791415 
L 778.298285 -321.212999 
L 777.736951 -318.634583 
L 779.98234 -316.056167 
L 785.271904 -313.477751 
L 793.860805 -310.899335 
L 805.573787 -308.320919 
L 819.358694 -305.742503 
L 833.134007 -303.164086 
L 844.150078 -300.58567 
L 849.828675 -298.007254 
L 848.728253 -295.428838 
L 841.132981 -292.850422 
L 828.932825 -290.272006 
L 814.861549 -287.69359 
L 801.51018 -285.115174 
L 790.597006 -282.536758 
L 782.747467 -279.958342 
z
" style="stroke: #2f2f2f; stroke-width: 1.25"/>
    </defs>
    <g clip-path="url(#p73bdee25f2)">
     <use xlink:href="#m6bdc4660fe" x="0" y="566.526562" style="fill: #148a6a; stroke: #2f2f2f; stroke-width: 1.25"/>
    </g>
   </g>
   <g id="FillBetweenPolyCollection_5">
    <defs>
     <path id="m563a385934" d="M 966.312435 -277.420994 
L 966.279315 -277.420994 
L 966.268622 -280.05067 
L 966.254108 -282.680345 
L 966.236264 -285.310021 
L 966.216645 -287.939697 
L 966.1978 -290.569372 
L 966.182785 -293.199048 
L 966.174312 -295.828723 
L 966.173771 -298.458399 
L 966.180374 -301.088075 
L 966.190462 -303.71775 
L 966.196629 -306.347426 
L 966.186048 -308.977101 
L 966.137373 -311.606777 
L 966.016427 -314.236453 
L 965.772325 -316.866128 
L 965.337647 -319.495804 
L 964.637375 -322.12548 
L 963.610047 -324.755155 
L 962.239607 -327.384831 
L 960.588643 -330.014506 
L 958.816877 -332.644182 
L 957.168594 -335.273858 
L 955.922713 -337.903533 
L 955.31693 -340.533209 
L 955.473376 -343.162884 
L 956.356936 -345.79256 
L 957.784063 -348.422236 
L 959.476146 -351.051911 
L 961.130779 -353.681587 
L 962.47866 -356.311262 
L 963.305879 -358.940938 
L 963.44332 -361.570614 
L 962.744754 -364.200289 
L 961.082892 -366.829965 
L 958.384109 -369.45964 
L 954.699978 -372.089316 
L 950.286045 -374.718992 
L 945.639234 -377.348667 
L 941.449727 -379.978343 
L 938.456216 -382.608019 
L 937.243271 -385.237694 
L 938.058658 -387.86737 
L 940.729969 -390.497045 
L 944.717599 -393.126721 
L 949.277051 -395.756397 
L 953.654729 -398.386072 
L 957.235162 -401.015748 
L 959.594029 -403.645423 
L 960.466344 -406.275099 
L 959.682263 -408.904775 
L 957.134077 -411.53445 
L 952.814557 -414.164126 
L 946.920145 -416.793801 
L 939.963365 -419.423477 
L 932.812093 -422.053153 
L 926.589387 -424.682828 
L 922.428334 -427.312504 
L 921.155936 -429.942179 
L 923.032986 -432.571855 
L 927.665444 -435.201531 
L 934.126402 -437.831206 
L 941.227987 -440.460882 
L 947.817506 -443.090558 
L 952.977157 -445.720233 
L 956.073368 -448.349909 
L 956.688335 -450.979584 
L 954.526067 -453.60926 
L 949.39148 -456.238936 
L 941.293171 -458.868611 
L 930.63967 -461.498287 
L 918.420835 -464.127962 
L 906.233337 -466.757638 
L 896.052862 -469.387314 
L 889.771249 -472.016989 
L 888.651075 -474.646665 
L 892.923198 -477.27634 
L 901.708948 -479.906016 
L 913.302119 -482.535692 
L 925.678697 -485.165367 
L 937.010692 -487.795043 
L 945.99043 -490.424718 
L 951.893042 -493.054394 
L 954.440469 -495.68407 
L 953.609389 -498.313745 
L 949.520308 -500.943421 
L 942.472111 -503.573097 
L 933.086635 -506.202772 
L 922.447726 -508.832448 
L 912.097983 -511.462123 
L 903.812092 -514.091799 
L 899.180317 -516.721475 
L 899.152397 -519.35115 
L 903.74045 -521.980826 
L 912.021693 -524.610501 
L 922.444347 -527.240177 
L 933.301639 -529.869853 
L 943.177731 -532.499528 
L 951.211432 -535.129204 
L 957.130146 -537.758879 
L 975.461604 -537.758879 
L 975.461604 -537.758879 
L 981.380318 -535.129204 
L 989.414019 -532.499528 
L 999.290111 -529.869853 
L 1010.147403 -527.240177 
L 1020.570057 -524.610501 
L 1028.8513 -521.980826 
L 1033.439353 -519.35115 
L 1033.411433 -516.721475 
L 1028.779658 -514.091799 
L 1020.493767 -511.462123 
L 1010.144024 -508.832448 
L 999.505115 -506.202772 
L 990.119639 -503.573097 
L 983.071442 -500.943421 
L 978.982361 -498.313745 
L 978.151281 -495.68407 
L 980.698708 -493.054394 
L 986.60132 -490.424718 
L 995.581058 -487.795043 
L 1006.913053 -485.165367 
L 1019.289631 -482.535692 
L 1030.882802 -479.906016 
L 1039.668552 -477.27634 
L 1043.940675 -474.646665 
L 1042.820501 -472.016989 
L 1036.538888 -469.387314 
L 1026.358413 -466.757638 
L 1014.170915 -464.127962 
L 1001.95208 -461.498287 
L 991.298579 -458.868611 
L 983.20027 -456.238936 
L 978.065683 -453.60926 
L 975.903415 -450.979584 
L 976.518382 -448.349909 
L 979.614593 -445.720233 
L 984.774244 -443.090558 
L 991.363763 -440.460882 
L 998.465348 -437.831206 
L 1004.926306 -435.201531 
L 1009.558764 -432.571855 
L 1011.435814 -429.942179 
L 1010.163416 -427.312504 
L 1006.002363 -424.682828 
L 999.779657 -422.053153 
L 992.628385 -419.423477 
L 985.671605 -416.793801 
L 979.777193 -414.164126 
L 975.457673 -411.53445 
L 972.909487 -408.904775 
L 972.125406 -406.275099 
L 972.997721 -403.645423 
L 975.356588 -401.015748 
L 978.937021 -398.386072 
L 983.314699 -395.756397 
L 987.874151 -393.126721 
L 991.861781 -390.497045 
L 994.533092 -387.86737 
L 995.348479 -385.237694 
L 994.135534 -382.608019 
L 991.142023 -379.978343 
L 986.952516 -377.348667 
L 982.305705 -374.718992 
L 977.891772 -372.089316 
L 974.207641 -369.45964 
L 971.508858 -366.829965 
L 969.846996 -364.200289 
L 969.14843 -361.570614 
L 969.285871 -358.940938 
L 970.11309 -356.311262 
L 971.460971 -353.681587 
L 973.115604 -351.051911 
L 974.807687 -348.422236 
L 976.234814 -345.79256 
L 977.118374 -343.162884 
L 977.27482 -340.533209 
L 976.669037 -337.903533 
L 975.423156 -335.273858 
L 973.774873 -332.644182 
L 972.003107 -330.014506 
L 970.352143 -327.384831 
L 968.981703 -324.755155 
L 967.954375 -322.12548 
L 967.254103 -319.495804 
L 966.819425 -316.866128 
L 966.575323 -314.236453 
L 966.454377 -311.606777 
L 966.405702 -308.977101 
L 966.395121 -306.347426 
L 966.401288 -303.71775 
L 966.411376 -301.088075 
L 966.417979 -298.458399 
L 966.417438 -295.828723 
L 966.408965 -293.199048 
L 966.39395 -290.569372 
L 966.375105 -287.939697 
L 966.355486 -285.310021 
L 966.337642 -282.680345 
L 966.323128 -280.05067 
L 966.312435 -277.420994 
z
" style="stroke: #2f2f2f; stroke-width: 1.25"/>
    </defs>
    <g clip-path="url(#p73bdee25f2)">
     <use xlink:href="#m563a385934" x="0" y="566.526562" style="fill: #dad158; stroke: #2f2f2f; stroke-width: 1.25"/>
    </g>
   </g>
   <g id="line2d_11">
    <path d="M 112.47679 446.14318 
L 267.21896 446.14318 
" clip-path="url(#p73bdee25f2)" style="fill: none; stroke-dasharray: 1.5625,0.9375; stroke-dashoffset: 0; stroke: #2f2f2f; stroke-width: 1.25"/>
   </g>
   <g id="line2d_12">
    <path d="M 112.47679 446.14318 
L 267.21896 446.14318 
" clip-path="url(#p73bdee25f2)" style="fill: none; stroke-dasharray: 3.125,1.25; stroke-dashoffset: 0; stroke: #2f2f2f; stroke-width: 1.25"/>
   </g>
   <g id="line2d_13">
    <path d="M 154.599197 401.957556 
L 225.096553 401.957556 
" clip-path="url(#p73bdee25f2)" style="fill: none; stroke-dasharray: 1.5625,0.9375; stroke-dashoffset: 0; stroke: #2f2f2f; stroke-width: 1.25"/>
   </g>
   <g id="line2d_14">
    <path d="M 306.465771 357.771932 
L 461.453979 357.771932 
" clip-path="url(#p73bdee25f2)" style="fill: none; stroke-dasharray: 1.5625,0.9375; stroke-dashoffset: 0; stroke: #2f2f2f; stroke-width: 1.25"/>
   </g>
   <g id="line2d_15">
    <path d="M 306.465771 357.771932 
L 461.453979 357.771932 
" clip-path="url(#p73bdee25f2)" style="fill: none; stroke-dasharray: 3.125,1.25; stroke-dashoffset: 0; stroke: #2f2f2f; stroke-width: 1.25"/>
   </g>
   <g id="line2d_16">
    <path d="M 329.104029 313.586309 
L 438.815721 313.586309 
" clip-path="url(#p73bdee25f2)" style="fill: none; stroke-dasharray: 1.5625,0.9375; stroke-dashoffset: 0; stroke: #2f2f2f; stroke-width: 1.25"/>
   </g>
   <g id="line2d_17">
    <path d="M 506.516323 313.586309 
L 649.627427 313.586309 
" clip-path="url(#p73bdee25f2)" style="fill: none; stroke-dasharray: 1.5625,0.9375; stroke-dashoffset: 0; stroke: #2f2f2f; stroke-width: 1.25"/>
   </g>
   <g id="line2d_18">
    <path d="M 501.003149 269.400685 
L 655.140601 269.400685 
" clip-path="url(#p73bdee25f2)" style="fill: none; stroke-dasharray: 3.125,1.25; stroke-dashoffset: 0; stroke: #2f2f2f; stroke-width: 1.25"/>
   </g>
   <g id="line2d_19">
    <path d="M 541.693513 225.215061 
L 614.450237 225.215061 
" clip-path="url(#p73bdee25f2)" style="fill: none; stroke-dasharray: 1.5625,0.9375; stroke-dashoffset: 0; stroke: #2f2f2f; stroke-width: 1.25"/>
   </g>
   <g id="line2d_20">
    <path d="M 694.915231 269.400685 
L 849.452519 269.400685 
" clip-path="url(#p73bdee25f2)" style="fill: none; stroke-dasharray: 1.5625,0.9375; stroke-dashoffset: 0; stroke: #2f2f2f; stroke-width: 1.25"/>
   </g>
   <g id="line2d_21">
    <path d="M 701.498204 225.215061 
L 842.869546 225.215061 
" clip-path="url(#p73bdee25f2)" style="fill: none; stroke-dasharray: 3.125,1.25; stroke-dashoffset: 0; stroke: #2f2f2f; stroke-width: 1.25"/>
   </g>
   <g id="line2d_22">
    <path d="M 714.770026 181.029438 
L 829.597724 181.029438 
" clip-path="url(#p73bdee25f2)" style="fill: none; stroke-dasharray: 1.5625,0.9375; stroke-dashoffset: 0; stroke: #2f2f2f; stroke-width: 1.25"/>
   </g>
   <g id="line2d_23">
    <path d="M 921.281464 136.843814 
L 1011.310286 136.843814 
" clip-path="url(#p73bdee25f2)" style="fill: none; stroke-dasharray: 1.5625,0.9375; stroke-dashoffset: 0; stroke: #2f2f2f; stroke-width: 1.25"/>
   </g>
   <g id="line2d_24">
    <path d="M 888.982608 92.65819 
L 1043.609142 92.65819 
" clip-path="url(#p73bdee25f2)" style="fill: none; stroke-dasharray: 3.125,1.25; stroke-dashoffset: 0; stroke: #2f2f2f; stroke-width: 1.25"/>
   </g>
   <g id="line2d_25">
    <path d="M 899.166169 48.472566 
L 1033.425581 48.472566 
" clip-path="url(#p73bdee25f2)" style="fill: none; stroke-dasharray: 1.5625,0.9375; stroke-dashoffset: 0; stroke: #2f2f2f; stroke-width: 1.25"/>
   </g>
   <g id="patch_3">
    <path d="M 92.791875 479.1 
L 92.791875 7.2 
" style="fill: none; stroke: #cccccc; stroke-width: 1.25; stroke-linejoin: miter; stroke-linecap: square"/>
   </g>
   <g id="patch_4">
    <path d="M 1063.351875 479.1 
L 1063.351875 7.2 
" style="fill: none; stroke: #cccccc; stroke-width: 1.25; stroke-linejoin: miter; stroke-linecap: square"/>
   </g>
   <g id="patch_5">
    <path d="M 92.791875 479.1 
L 1063.351875 479.1 
" style="fill: none; stroke: #cccccc; stroke-width: 1.25; stroke-linejoin: miter; stroke-linecap: square"/>
   </g>
   <g id="patch_6">
    <path d="M 92.791875 7.2 
L 1063.351875 7.2 
" style="fill: none; stroke: #cccccc; stroke-width: 1.25; stroke-linejoin: miter; stroke-linecap: square"/>
   </g>
  </g>
 </g>
 <defs>
  <clipPath id="p73bdee25f2">
   <rect x="92.791875" y="7.2" width="970.56" height="471.9"/>
  </clipPath>
 </defs>
</svg>
