<?xml version="1.0" encoding="utf-8" standalone="no"?>
<!DOCTYPE svg PUBLIC "-//W3C//DTD SVG 1.1//EN"
  "http://www.w3.org/Graphics/SVG/1.1/DTD/svg11.dtd">
<svg xmlns:xlink="http://www.w3.org/1999/xlink" width="1070.551875pt" height="566.526562pt" viewBox="0 0 1070.551875 566.526562" xmlns="http://www.w3.org/2000/svg" version="1.1">
 <metadata>
  <rdf:RDF xmlns:dc="http://purl.org/dc/elements/1.1/" xmlns:cc="http://creativecommons.org/ns#" xmlns:rdf="http://www.w3.org/1999/02/22-rdf-syntax-ns#">
   <cc:Work>
    <dc:type rdf:resource="http://purl.org/dc/dcmitype/StillImage"/>
    <dc:date>2026-06-29T04:14:54.178564</dc:date>
    <dc:format>image/svg+xml</dc:format>
    <dc:creator>
     <cc:Agent>
      <dc:title>Matplotlib v3.10.9, https://matplotlib.org/</dc:title>
     </cc:Agent>
    </dc:creator>
   </cc:Work>
  </rdf:RDF>
 </metadata>
 <defs>
  <style type="text/css">*{stroke-linejoin: round; stroke-linecap: butt}</style>
 </defs>
 <g id="figure_1">
  <g id="patch_1">
   <path d="M 0 566.526562 
L 1070.551875 566.526562 
L 1070.551875 0 
L 0 0 
L 0 566.526562 
z
" style="fill: none"/>
  </g>
  <g id="axes_1">
   <g id="patch_2">
    <path d="M 92.791875 479.1 
L 1063.351875 479.1 
L 1063.351875 7.2 
L 92.791875 7.2 
L 92.791875 479.1 
z
" style="fill: none"/>
   </g>
   <g id="matplotlib.axis_1">
    <g id="xtick_1">
     <g id="line2d_1">
      <path d="M 141.319875 479.1 
L 141.319875 7.2 
" clip-path="url(#p42fa483757)" style="fill: none; stroke: #d3d3d3; stroke-opacity: 0.3; stroke-linecap: round"/>
     </g>
     <g id="text_1">
      <text style="font-size: 24px; font-family: 'Arial', 'DejaVu Sans', 'Liberation Sans', 'Bitstream Vera Sans', sans-serif; text-anchor: middle; fill: #262626" x="141.319875" y="505.77875" transform="rotate(-0 141.319875 505.77875)">2</text>
     </g>
    </g>
    <g id="xtick_2">
     <g id="line2d_2">
      <path d="M 238.375875 479.1 
L 238.375875 7.2 
" clip-path="url(#p42fa483757)" style="fill: none; stroke: #d3d3d3; stroke-opacity: 0.3; stroke-linecap: round"/>
     </g>
     <g id="text_2">
      <text style="font-size: 24px; font-family: 'Arial', 'DejaVu Sans', 'Liberation Sans', 'Bitstream Vera Sans', sans-serif; text-anchor: middle; fill: #262626" x="238.375875" y="505.77875" transform="rotate(-0 238.375875 505.77875)">5</text>
     </g>
    </g>
    <g id="xtick_3">
     <g id="line2d_3">
      <path d="M 335.431875 479.1 
L 335.431875 7.2 
" clip-path="url(#p42fa483757)" style="fill: none; stroke: #d3d3d3; stroke-opacity: 0.3; stroke-linecap: round"/>
     </g>
     <g id="text_3">
      <text style="font-size: 24px; font-family: 'Arial', 'DejaVu Sans', 'Liberation Sans', 'Bitstream Vera Sans', sans-serif; text-anchor: middle; fill: #262626" x="335.431875" y="505.77875" transform="rotate(-0 335.431875 505.77875)">4</text>
     </g>
    </g>
    <g id="xtick_4">
     <g id="line2d_4">
      <path d="M 432.487875 479.1 
L 432.487875 7.2 
" clip-path="url(#p42fa483757)" style="fill: none; stroke: #d3d3d3; stroke-opacity: 0.3; stroke-linecap: round"/>
     </g>
     <g id="text_4">
      <text style="font-size: 24px; font-family: 'Arial', 'DejaVu Sans', 'Liberation Sans', 'Bitstream Vera Sans', sans-serif; text-anchor: middle; fill: #262626" x="432.487875" y="505.77875" transform="rotate(-0 432.487875 505.77875)">0</text>
     </g>
    </g>
    <g id="xtick_5">
     <g id="line2d_5">
      <path d="M 529.543875 479.1 
L 529.543875 7.2 
" clip-path="url(#p42fa483757)" style="fill: none; stroke: #d3d3d3; stroke-opacity: 0.3; stroke-linecap: round"/>
     </g>
     <g id="text_5">
      <text style="font-size: 24px; font-family: 'Arial', 'DejaVu Sans', 'Liberation Sans', 'Bitstream Vera Sans', sans-serif; text-anchor: middle; fill: #262626" x="529.543875" y="505.77875" transform="rotate(-0 529.543875 505.77875)">3</text>
     </g>
    </g>
    <g id="xtick_6">
     <g id="line2d_6">
      <path d="M 626.599875 479.1 
L 626.599875 7.2 
" clip-path="url(#p42fa483757)" style="fill: none; stroke: #d3d3d3; stroke-opacity: 0.3; stroke-linecap: round"/>
     </g>
     <g id="text_6">
      <text style="font-size: 24px; font-family: 'Arial', 'DejaVu Sans', 'Liberation Sans', 'Bitstream Vera Sans', sans-serif; text-anchor: middle; fill: #262626" x="626.599875" y="505.77875" transform="rotate(-0 626.599875 505.77875)">7</text>
     </g>
    </g>
    <g id="xtick_7">
     <g id="line2d_7">
      <path d="M 723.655875 479.1 
L 723.655875 7.2 
" clip-path="url(#p42fa483757)" style="fill: none; stroke: #d3d3d3; stroke-opacity: 0.3; stroke-linecap: round"/>
     </g>
     <g id="text_7">
      <text style="font-size: 24px; font-family: 'Arial', 'DejaVu Sans', 'Liberation Sans', 'Bitstream Vera Sans', sans-serif; text-anchor: middle; fill: #262626" x="723.655875" y="505.77875" transform="rotate(-0 723.655875 505.77875)">8</text>
     </g>
    </g>
    <g id="xtick_8">
     <g id="line2d_8">
      <path d="M 820.711875 479.1 
L 820.711875 7.2 
" clip-path="url(#p42fa483757)" style="fill: none; stroke: #d3d3d3; stroke-opacity: 0.3; stroke-linecap: round"/>
     </g>
     <g id="text_8">
      <text style="font-size: 24px; font-family: 'Arial', 'DejaVu Sans', 'Liberation Sans', 'Bitstream Vera Sans', sans-serif; text-anchor: middle; fill: #262626" x="820.711875" y="505.77875" transform="rotate(-0 820.711875 505.77875)">1</text>
     </g>
    </g>
    <g id="xtick_9">
     <g id="line2d_9">
      <path d="M 917.767875 479.1 
L 917.767875 7.2 
" clip-path="url(#p42fa483757)" style="fill: none; stroke: #d3d3d3; stroke-opacity: 0.3; stroke-linecap: round"/>
     </g>
     <g id="text_9">
      <text style="font-size: 24px; font-family: 'Arial', 'DejaVu Sans', 'Liberation Sans', 'Bitstream Vera Sans', sans-serif; text-anchor: middle; fill: #262626" x="917.767875" y="505.77875" transform="rotate(-0 917.767875 505.77875)">6</text>
     </g>
    </g>
    <g id="xtick_10">
     <g id="line2d_10">
      <path d="M 1014.823875 479.1 
L 1014.823875 7.2 
" clip-path="url(#p42fa483757)" style="fill: none; stroke: #d3d3d3; stroke-opacity: 0.3; stroke-linecap: round"/>
     </g>
     <g id="text_10">
      <text style="font-size: 24px; font-family: 'Arial', 'DejaVu Sans', 'Liberation Sans', 'Bitstream Vera Sans', sans-serif; text-anchor: middle; fill: #262626" x="1014.823875" y="505.77875" transform="rotate(-0 1014.823875 505.77875)">9</text>
     </g>
    </g>
    <g id="text_11">
     <text style="font-size: 26px; font-family: 'Arial', 'DejaVu Sans', 'Liberation Sans', 'Bitstream Vera Sans', sans-serif; text-anchor: middle; fill: #262626" x="578.071875" y="554.159063" transform="rotate(-0 578.071875 554.159063)">Socioeconomic Cluster Rank</text>
    </g>
   </g>
   <g id="matplotlib.axis_2">
    <g id="ytick_1">
     <g id="line2d_11">
      <path d="M 92.791875 409.983333 
L 1063.351875 409.983333 
" clip-path="url(#p42fa483757)" style="fill: none; stroke: #d3d3d3; stroke-opacity: 0.3; stroke-linecap: round"/>
     </g>
     <g id="text_12">
      <text style="font-size: 24px; font-family: 'Arial', 'DejaVu Sans', 'Liberation Sans', 'Bitstream Vera Sans', sans-serif; text-anchor: end; fill: #262626" x="83.291875" y="418.572708" transform="rotate(-0 83.291875 418.572708)">2</text>
     </g>
    </g>
    <g id="ytick_2">
     <g id="line2d_12">
      <path d="M 92.791875 314.65 
L 1063.351875 314.65 
" clip-path="url(#p42fa483757)" style="fill: none; stroke: #d3d3d3; stroke-opacity: 0.3; stroke-linecap: round"/>
     </g>
     <g id="text_13">
      <text style="font-size: 24px; font-family: 'Arial', 'DejaVu Sans', 'Liberation Sans', 'Bitstream Vera Sans', sans-serif; text-anchor: end; fill: #262626" x="83.291875" y="323.239375" transform="rotate(-0 83.291875 323.239375)">4</text>
     </g>
    </g>
    <g id="ytick_3">
     <g id="line2d_13">
      <path d="M 92.791875 219.316667 
L 1063.351875 219.316667 
" clip-path="url(#p42fa483757)" style="fill: none; stroke: #d3d3d3; stroke-opacity: 0.3; stroke-linecap: round"/>
     </g>
     <g id="text_14">
      <text style="font-size: 24px; font-family: 'Arial', 'DejaVu Sans', 'Liberation Sans', 'Bitstream Vera Sans', sans-serif; text-anchor: end; fill: #262626" x="83.291875" y="227.906042" transform="rotate(-0 83.291875 227.906042)">6</text>
     </g>
    </g>
    <g id="ytick_4">
     <g id="line2d_14">
      <path d="M 92.791875 123.983333 
L 1063.351875 123.983333 
" clip-path="url(#p42fa483757)" style="fill: none; stroke: #d3d3d3; stroke-opacity: 0.3; stroke-linecap: round"/>
     </g>
     <g id="text_15">
      <text style="font-size: 24px; font-family: 'Arial', 'DejaVu Sans', 'Liberation Sans', 'Bitstream Vera Sans', sans-serif; text-anchor: end; fill: #262626" x="83.291875" y="132.572708" transform="rotate(-0 83.291875 132.572708)">8</text>
     </g>
    </g>
    <g id="ytick_5">
     <g id="line2d_15">
      <path d="M 92.791875 28.65 
L 1063.351875 28.65 
" clip-path="url(#p42fa483757)" style="fill: none; stroke: #d3d3d3; stroke-opacity: 0.3; stroke-linecap: round"/>
     </g>
     <g id="text_16">
      <text style="font-size: 24px; font-family: 'Arial', 'DejaVu Sans', 'Liberation Sans', 'Bitstream Vera Sans', sans-serif; text-anchor: end; fill: #262626" x="83.291875" y="37.239375" transform="rotate(-0 83.291875 37.239375)">10</text>
     </g>
    </g>
    <g id="text_17">
     <text style="font-size: 26px; font-family: 'Arial', 'DejaVu Sans', 'Liberation Sans', 'Bitstream Vera Sans', sans-serif; text-anchor: middle; fill: #262626" x="26.127188" y="243.15" transform="rotate(-90 26.127188 243.15)">Median Area Deprivation Index (ADI)</text>
    </g>
   </g>
   <g id="FillBetweenPolyCollection_1">
    <defs>
     <path id="m3a3ba12c0b" d="M 374.254275 -204.209896 
L 296.609475 -204.209896 
L 296.609475 -204.209896 
L 296.609475 -204.209896 
L 296.609475 -204.209896 
L 296.609475 -204.209896 
L 296.609475 -204.209896 
L 296.609475 -204.209896 
L 296.609475 -204.209896 
L 296.609475 -204.209896 
L 296.609475 -204.209896 
L 296.609475 -204.209896 
L 296.609475 -204.209896 
L 296.609475 -204.209896 
L 296.609475 -204.209896 
L 296.609475 -204.209896 
L 296.609475 -204.209896 
L 296.609475 -204.209896 
L 296.609475 -204.209896 
L 296.609475 -204.209896 
L 296.609475 -204.209896 
L 296.609475 -204.209896 
L 296.609475 -204.209896 
L 296.609475 -204.209896 
L 296.609475 -204.209896 
L 296.609475 -204.209896 
L 296.609475 -204.209896 
L 296.609475 -204.209896 
L 296.609475 -204.209896 
L 296.609475 -204.209896 
L 296.609475 -204.209896 
L 296.609475 -204.209896 
L 296.609475 -204.209896 
L 296.609475 -204.209896 
L 296.609475 -204.209896 
L 296.609475 -204.209896 
L 296.609475 -204.209896 
L 296.609475 -204.209896 
L 296.609475 -204.209896 
L 296.609475 -204.209896 
L 296.609475 -204.209896 
L 296.609475 -204.209896 
L 296.609475 -204.209896 
L 296.609475 -204.209896 
L 296.609475 -204.209896 
L 296.609475 -204.209896 
L 296.609475 -204.209896 
L 296.609475 -204.209896 
L 296.609475 -204.209896 
L 296.609475 -204.209896 
L 296.609475 -204.209896 
L 296.609475 -204.209896 
L 296.609475 -204.209896 
L 296.609475 -204.209896 
L 296.609475 -204.209896 
L 296.609475 -204.209896 
L 296.609475 -204.209896 
L 296.609475 -204.209896 
L 296.609475 -204.209896 
L 296.609475 -204.209896 
L 296.609475 -204.209896 
L 296.609475 -204.209896 
L 296.609475 -204.209896 
L 296.609475 -204.209896 
L 296.609475 -204.209896 
L 296.609475 -204.209896 
L 296.609475 -204.209896 
L 296.609475 -204.209896 
L 296.609475 -204.209896 
L 296.609475 -204.209896 
L 296.609475 -204.209896 
L 296.609475 -204.209896 
L 296.609475 -204.209896 
L 296.609475 -204.209896 
L 296.609475 -204.209896 
L 296.609475 -204.209896 
L 296.609475 -204.209896 
L 296.609475 -204.209896 
L 296.609475 -204.209896 
L 296.609475 -204.209896 
L 296.609475 -204.209896 
L 296.609475 -204.209896 
L 296.609475 -204.209896 
L 296.609475 -204.209896 
L 296.609475 -204.209896 
L 296.609475 -204.209896 
L 296.609475 -204.209896 
L 296.609475 -204.209896 
L 296.609475 -204.209896 
L 296.609475 -204.209896 
L 296.609475 -204.209896 
L 296.609475 -204.209896 
L 296.609475 -204.209896 
L 296.609475 -204.209896 
L 296.609475 -204.209896 
L 296.609475 -204.209896 
L 296.609475 -204.209896 
L 296.609475 -204.209896 
L 296.609475 -204.209896 
L 296.609475 -204.209896 
L 296.609475 -204.209896 
L 374.254275 -204.209896 
L 374.254275 -204.209896 
L 374.254275 -204.209896 
L 374.254275 -204.209896 
L 374.254275 -204.209896 
L 374.254275 -204.209896 
L 374.254275 -204.209896 
L 374.254275 -204.209896 
L 374.254275 -204.209896 
L 374.254275 -204.209896 
L 374.254275 -204.209896 
L 374.254275 -204.209896 
L 374.254275 -204.209896 
L 374.254275 -204.209896 
L 374.254275 -204.209896 
L 374.254275 -204.209896 
L 374.254275 -204.209896 
L 374.254275 -204.209896 
L 374.254275 -204.209896 
L 374.254275 -204.209896 
L 374.254275 -204.209896 
L 374.254275 -204.209896 
L 374.254275 -204.209896 
L 374.254275 -204.209896 
L 374.254275 -204.209896 
L 374.254275 -204.209896 
L 374.254275 -204.209896 
L 374.254275 -204.209896 
L 374.254275 -204.209896 
L 374.254275 -204.209896 
L 374.254275 -204.209896 
L 374.254275 -204.209896 
L 374.254275 -204.209896 
L 374.254275 -204.209896 
L 374.254275 -204.209896 
L 374.254275 -204.209896 
L 374.254275 -204.209896 
L 374.254275 -204.209896 
L 374.254275 -204.209896 
L 374.254275 -204.209896 
L 374.254275 -204.209896 
L 374.254275 -204.209896 
L 374.254275 -204.209896 
L 374.254275 -204.209896 
L 374.254275 -204.209896 
L 374.254275 -204.209896 
L 374.254275 -204.209896 
L 374.254275 -204.209896 
L 374.254275 -204.209896 
L 374.254275 -204.209896 
L 374.254275 -204.209896 
L 374.254275 -204.209896 
L 374.254275 -204.209896 
L 374.254275 -204.209896 
L 374.254275 -204.209896 
L 374.254275 -204.209896 
L 374.254275 -204.209896 
L 374.254275 -204.209896 
L 374.254275 -204.209896 
L 374.254275 -204.209896 
L 374.254275 -204.209896 
L 374.254275 -204.209896 
L 374.254275 -204.209896 
L 374.254275 -204.209896 
L 374.254275 -204.209896 
L 374.254275 -204.209896 
L 374.254275 -204.209896 
L 374.254275 -204.209896 
L 374.254275 -204.209896 
L 374.254275 -204.209896 
L 374.254275 -204.209896 
L 374.254275 -204.209896 
L 374.254275 -204.209896 
L 374.254275 -204.209896 
L 374.254275 -204.209896 
L 374.254275 -204.209896 
L 374.254275 -204.209896 
L 374.254275 -204.209896 
L 374.254275 -204.209896 
L 374.254275 -204.209896 
L 374.254275 -204.209896 
L 374.254275 -204.209896 
L 374.254275 -204.209896 
L 374.254275 -204.209896 
L 374.254275 -204.209896 
L 374.254275 -204.209896 
L 374.254275 -204.209896 
L 374.254275 -204.209896 
L 374.254275 -204.209896 
L 374.254275 -204.209896 
L 374.254275 -204.209896 
L 374.254275 -204.209896 
L 374.254275 -204.209896 
L 374.254275 -204.209896 
L 374.254275 -204.209896 
L 374.254275 -204.209896 
L 374.254275 -204.209896 
L 374.254275 -204.209896 
L 374.254275 -204.209896 
L 374.254275 -204.209896 
L 374.254275 -204.209896 
z
" style="stroke: #000000; stroke-width: 1.25"/>
    </defs>
    <g clip-path="url(#p42fa483757)">
     <use xlink:href="#m3a3ba12c0b" x="0" y="566.526562" style="fill: #166c9c; stroke: #000000; stroke-width: 1.25"/>
    </g>
   </g>
   <g id="FillBetweenPolyCollection_2">
    <defs>
     <path id="mc0d614e50b" d="M 568.366275 -299.543229 
L 490.721475 -299.543229 
L 490.721475 -299.543229 
L 490.721475 -299.543229 
L 490.721475 -299.543229 
L 490.721475 -299.543229 
L 490.721475 -299.543229 
L 490.721475 -299.543229 
L 490.721475 -299.543229 
L 490.721475 -299.543229 
L 490.721475 -299.543229 
L 490.721475 -299.543229 
L 490.721475 -299.543229 
L 490.721475 -299.543229 
L 490.721475 -299.543229 
L 490.721475 -299.543229 
L 490.721475 -299.543229 
L 490.721475 -299.543229 
L 490.721475 -299.543229 
L 490.721475 -299.543229 
L 490.721475 -299.543229 
L 490.721475 -299.543229 
L 490.721475 -299.543229 
L 490.721475 -299.543229 
L 490.721475 -299.543229 
L 490.721475 -299.543229 
L 490.721475 -299.543229 
L 490.721475 -299.543229 
L 490.721475 -299.543229 
L 490.721475 -299.543229 
L 490.721475 -299.543229 
L 490.721475 -299.543229 
L 490.721475 -299.543229 
L 490.721475 -299.543229 
L 490.721475 -299.543229 
L 490.721475 -299.543229 
L 490.721475 -299.543229 
L 490.721475 -299.543229 
L 490.721475 -299.543229 
L 490.721475 -299.543229 
L 490.721475 -299.543229 
L 490.721475 -299.543229 
L 490.721475 -299.543229 
L 490.721475 -299.543229 
L 490.721475 -299.543229 
L 490.721475 -299.543229 
L 490.721475 -299.543229 
L 490.721475 -299.543229 
L 490.721475 -299.543229 
L 490.721475 -299.543229 
L 490.721475 -299.543229 
L 490.721475 -299.543229 
L 490.721475 -299.543229 
L 490.721475 -299.543229 
L 490.721475 -299.543229 
L 490.721475 -299.543229 
L 490.721475 -299.543229 
L 490.721475 -299.543229 
L 490.721475 -299.543229 
L 490.721475 -299.543229 
L 490.721475 -299.543229 
L 490.721475 -299.543229 
L 490.721475 -299.543229 
L 490.721475 -299.543229 
L 490.721475 -299.543229 
L 490.721475 -299.543229 
L 490.721475 -299.543229 
L 490.721475 -299.543229 
L 490.721475 -299.543229 
L 490.721475 -299.543229 
L 490.721475 -299.543229 
L 490.721475 -299.543229 
L 490.721475 -299.543229 
L 490.721475 -299.543229 
L 490.721475 -299.543229 
L 490.721475 -299.543229 
L 490.721475 -299.543229 
L 490.721475 -299.543229 
L 490.721475 -299.543229 
L 490.721475 -299.543229 
L 490.721475 -299.543229 
L 490.721475 -299.543229 
L 490.721475 -299.543229 
L 490.721475 -299.543229 
L 490.721475 -299.543229 
L 490.721475 -299.543229 
L 490.721475 -299.543229 
L 490.721475 -299.543229 
L 490.721475 -299.543229 
L 490.721475 -299.543229 
L 490.721475 -299.543229 
L 490.721475 -299.543229 
L 490.721475 -299.543229 
L 490.721475 -299.543229 
L 490.721475 -299.543229 
L 490.721475 -299.543229 
L 490.721475 -299.543229 
L 490.721475 -299.543229 
L 490.721475 -299.543229 
L 490.721475 -299.543229 
L 490.721475 -299.543229 
L 568.366275 -299.543229 
L 568.366275 -299.543229 
L 568.366275 -299.543229 
L 568.366275 -299.543229 
L 568.366275 -299.543229 
L 568.366275 -299.543229 
L 568.366275 -299.543229 
L 568.366275 -299.543229 
L 568.366275 -299.543229 
L 568.366275 -299.543229 
L 568.366275 -299.543229 
L 568.366275 -299.543229 
L 568.366275 -299.543229 
L 568.366275 -299.543229 
L 568.366275 -299.543229 
L 568.366275 -299.543229 
L 568.366275 -299.543229 
L 568.366275 -299.543229 
L 568.366275 -299.543229 
L 568.366275 -299.543229 
L 568.366275 -299.543229 
L 568.366275 -299.543229 
L 568.366275 -299.543229 
L 568.366275 -299.543229 
L 568.366275 -299.543229 
L 568.366275 -299.543229 
L 568.366275 -299.543229 
L 568.366275 -299.543229 
L 568.366275 -299.543229 
L 568.366275 -299.543229 
L 568.366275 -299.543229 
L 568.366275 -299.543229 
L 568.366275 -299.543229 
L 568.366275 -299.543229 
L 568.366275 -299.543229 
L 568.366275 -299.543229 
L 568.366275 -299.543229 
L 568.366275 -299.543229 
L 568.366275 -299.543229 
L 568.366275 -299.543229 
L 568.366275 -299.543229 
L 568.366275 -299.543229 
L 568.366275 -299.543229 
L 568.366275 -299.543229 
L 568.366275 -299.543229 
L 568.366275 -299.543229 
L 568.366275 -299.543229 
L 568.366275 -299.543229 
L 568.366275 -299.543229 
L 568.366275 -299.543229 
L 568.366275 -299.543229 
L 568.366275 -299.543229 
L 568.366275 -299.543229 
L 568.366275 -299.543229 
L 568.366275 -299.543229 
L 568.366275 -299.543229 
L 568.366275 -299.543229 
L 568.366275 -299.543229 
L 568.366275 -299.543229 
L 568.366275 -299.543229 
L 568.366275 -299.543229 
L 568.366275 -299.543229 
L 568.366275 -299.543229 
L 568.366275 -299.543229 
L 568.366275 -299.543229 
L 568.366275 -299.543229 
L 568.366275 -299.543229 
L 568.366275 -299.543229 
L 568.366275 -299.543229 
L 568.366275 -299.543229 
L 568.366275 -299.543229 
L 568.366275 -299.543229 
L 568.366275 -299.543229 
L 568.366275 -299.543229 
L 568.366275 -299.543229 
L 568.366275 -299.543229 
L 568.366275 -299.543229 
L 568.366275 -299.543229 
L 568.366275 -299.543229 
L 568.366275 -299.543229 
L 568.366275 -299.543229 
L 568.366275 -299.543229 
L 568.366275 -299.543229 
L 568.366275 -299.543229 
L 568.366275 -299.543229 
L 568.366275 -299.543229 
L 568.366275 -299.543229 
L 568.366275 -299.543229 
L 568.366275 -299.543229 
L 568.366275 -299.543229 
L 568.366275 -299.543229 
L 568.366275 -299.543229 
L 568.366275 -299.543229 
L 568.366275 -299.543229 
L 568.366275 -299.543229 
L 568.366275 -299.543229 
L 568.366275 -299.543229 
L 568.366275 -299.543229 
L 568.366275 -299.543229 
L 568.366275 -299.543229 
L 568.366275 -299.543229 
z
" style="stroke: #000000; stroke-width: 1.25"/>
    </defs>
    <g clip-path="url(#p42fa483757)">
     <use xlink:href="#mc0d614e50b" x="0" y="566.526562" style="fill: #dad158; stroke: #000000; stroke-width: 1.25"/>
    </g>
   </g>
   <g id="FillBetweenPolyCollection_3">
    <defs>
     <path id="md4bbe0f451" d="M 631.853915 -347.209896 
L 621.345835 -347.209896 
L 621.345835 -347.209896 
L 621.345835 -347.209896 
L 621.345835 -347.209896 
L 621.345835 -347.209896 
L 621.345835 -347.209896 
L 621.345835 -347.209896 
L 621.345835 -347.209896 
L 621.345835 -347.209896 
L 621.345835 -347.209896 
L 621.345835 -347.209896 
L 621.345835 -347.209896 
L 621.345835 -347.209896 
L 621.345835 -347.209896 
L 621.345835 -347.209896 
L 621.345835 -347.209896 
L 621.345835 -347.209896 
L 621.345835 -347.209896 
L 621.345835 -347.209896 
L 621.345835 -347.209896 
L 621.345835 -347.209896 
L 621.345835 -347.209896 
L 621.345835 -347.209896 
L 621.345835 -347.209896 
L 621.345835 -347.209896 
L 587.777475 -347.209896 
L 587.777475 -347.209896 
L 587.777475 -347.209896 
L 587.777475 -347.209896 
L 587.777475 -347.209896 
L 587.777475 -347.209896 
L 587.777475 -347.209896 
L 587.777475 -347.209896 
L 587.777475 -347.209896 
L 587.777475 -347.209896 
L 587.777475 -347.209896 
L 587.777475 -347.209896 
L 587.777475 -347.209896 
L 587.777475 -347.209896 
L 587.777475 -347.209896 
L 587.777475 -347.209896 
L 587.777475 -347.209896 
L 587.777475 -347.209896 
L 587.777475 -347.209896 
L 587.777475 -347.209896 
L 587.777475 -347.209896 
L 587.777475 -347.209896 
L 587.777475 -347.209896 
L 587.777475 -347.209896 
L 587.777475 -347.209896 
L 587.777475 -347.209896 
L 587.777475 -347.209896 
L 587.777475 -347.209896 
L 587.777475 -347.209896 
L 587.777475 -347.209896 
L 587.777475 -347.209896 
L 587.777475 -347.209896 
L 587.777475 -347.209896 
L 587.777475 -347.209896 
L 587.777475 -347.209896 
L 587.777475 -347.209896 
L 587.777475 -347.209896 
L 587.777475 -347.209896 
L 587.777475 -347.209896 
L 587.777475 -347.209896 
L 587.777475 -347.209896 
L 587.777475 -347.209896 
L 587.777475 -347.209896 
L 587.777475 -347.209896 
L 587.777475 -347.209896 
L 587.777475 -347.209896 
L 587.777475 -347.209896 
L 587.777475 -347.209896 
L 587.777475 -347.209896 
L 587.777475 -347.209896 
L 621.345835 -347.209896 
L 621.345835 -347.209896 
L 621.345835 -347.209896 
L 621.345835 -347.209896 
L 621.345835 -347.209896 
L 621.345835 -347.209896 
L 621.345835 -347.209896 
L 621.345835 -347.209896 
L 621.345835 -347.209896 
L 621.345835 -347.209896 
L 621.345835 -347.209896 
L 621.345835 -347.209896 
L 621.345835 -347.209896 
L 621.345835 -347.209896 
L 621.345835 -347.209896 
L 621.345835 -347.209896 
L 621.345835 -347.209896 
L 621.345835 -347.209896 
L 621.345835 -347.209896 
L 621.345835 -347.209896 
L 621.345835 -347.209896 
L 621.345835 -347.209896 
L 621.345835 -347.209896 
L 621.345835 -347.209896 
L 621.345835 -347.209896 
L 631.853915 -347.209896 
L 631.853915 -347.209896 
L 631.853915 -347.209896 
L 631.853915 -347.209896 
L 631.853915 -347.209896 
L 631.853915 -347.209896 
L 631.853915 -347.209896 
L 631.853915 -347.209896 
L 631.853915 -347.209896 
L 631.853915 -347.209896 
L 631.853915 -347.209896 
L 631.853915 -347.209896 
L 631.853915 -347.209896 
L 631.853915 -347.209896 
L 631.853915 -347.209896 
L 631.853915 -347.209896 
L 631.853915 -347.209896 
L 631.853915 -347.209896 
L 631.853915 -347.209896 
L 631.853915 -347.209896 
L 631.853915 -347.209896 
L 631.853915 -347.209896 
L 631.853915 -347.209896 
L 631.853915 -347.209896 
L 631.853915 -347.209896 
L 631.853915 -347.209896 
L 665.422275 -347.209896 
L 665.422275 -347.209896 
L 665.422275 -347.209896 
L 665.422275 -347.209896 
L 665.422275 -347.209896 
L 665.422275 -347.209896 
L 665.422275 -347.209896 
L 665.422275 -347.209896 
L 665.422275 -347.209896 
L 665.422275 -347.209896 
L 665.422275 -347.209896 
L 665.422275 -347.209896 
L 665.422275 -347.209896 
L 665.422275 -347.209896 
L 665.422275 -347.209896 
L 665.422275 -347.209896 
L 665.422275 -347.209896 
L 665.422275 -347.209896 
L 665.422275 -347.209896 
L 665.422275 -347.209896 
L 665.422275 -347.209896 
L 665.422275 -347.209896 
L 665.422275 -347.209896 
L 665.422275 -347.209896 
L 665.422275 -347.209896 
L 665.422275 -347.209896 
L 665.422275 -347.209896 
L 665.422275 -347.209896 
L 665.422275 -347.209896 
L 665.422275 -347.209896 
L 665.422275 -347.209896 
L 665.422275 -347.209896 
L 665.422275 -347.209896 
L 665.422275 -347.209896 
L 665.422275 -347.209896 
L 665.422275 -347.209896 
L 665.422275 -347.209896 
L 665.422275 -347.209896 
L 665.422275 -347.209896 
L 665.422275 -347.209896 
L 665.422275 -347.209896 
L 665.422275 -347.209896 
L 665.422275 -347.209896 
L 665.422275 -347.209896 
L 665.422275 -347.209896 
L 665.422275 -347.209896 
L 665.422275 -347.209896 
L 665.422275 -347.209896 
L 665.422275 -347.209896 
L 665.422275 -347.209896 
L 631.853915 -347.209896 
L 631.853915 -347.209896 
L 631.853915 -347.209896 
L 631.853915 -347.209896 
L 631.853915 -347.209896 
L 631.853915 -347.209896 
L 631.853915 -347.209896 
L 631.853915 -347.209896 
L 631.853915 -347.209896 
L 631.853915 -347.209896 
L 631.853915 -347.209896 
L 631.853915 -347.209896 
L 631.853915 -347.209896 
L 631.853915 -347.209896 
L 631.853915 -347.209896 
L 631.853915 -347.209896 
L 631.853915 -347.209896 
L 631.853915 -347.209896 
L 631.853915 -347.209896 
L 631.853915 -347.209896 
L 631.853915 -347.209896 
L 631.853915 -347.209896 
L 631.853915 -347.209896 
L 631.853915 -347.209896 
L 631.853915 -347.209896 
z
" style="stroke: #000000; stroke-width: 1.25"/>
    </defs>
    <g clip-path="url(#p42fa483757)">
     <use xlink:href="#md4bbe0f451" x="0" y="566.526562" style="stroke: #000000; stroke-width: 1.25"/>
    </g>
   </g>
   <g id="FillBetweenPolyCollection_4">
    <defs>
     <path id="ma18ea2d559" d="M 1020.077915 -537.876562 
L 1009.569835 -537.876562 
L 1009.569835 -537.876562 
L 1009.569835 -537.876562 
L 1009.569835 -537.876562 
L 1009.569835 -537.876562 
L 1009.569835 -537.876562 
L 1009.569835 -537.876562 
L 1009.569835 -537.876562 
L 1009.569835 -537.876562 
L 1009.569835 -537.876562 
L 1009.569835 -537.876562 
L 1009.569835 -537.876562 
L 1009.569835 -537.876562 
L 1009.569835 -537.876562 
L 1009.569835 -537.876562 
L 1009.569835 -537.876562 
L 1009.569835 -537.876562 
L 1009.569835 -537.876562 
L 1009.569835 -537.876562 
L 1009.569835 -537.876562 
L 1009.569835 -537.876562 
L 1009.569835 -537.876562 
L 1009.569835 -537.876562 
L 1009.569835 -537.876562 
L 1009.569835 -537.876562 
L 976.001475 -537.876562 
L 976.001475 -537.876562 
L 976.001475 -537.876562 
L 976.001475 -537.876562 
L 976.001475 -537.876562 
L 976.001475 -537.876562 
L 976.001475 -537.876562 
L 976.001475 -537.876562 
L 976.001475 -537.876562 
L 976.001475 -537.876562 
L 976.001475 -537.876562 
L 976.001475 -537.876562 
L 976.001475 -537.876562 
L 976.001475 -537.876562 
L 976.001475 -537.876562 
L 976.001475 -537.876562 
L 976.001475 -537.876562 
L 976.001475 -537.876562 
L 976.001475 -537.876562 
L 976.001475 -537.876562 
L 976.001475 -537.876562 
L 976.001475 -537.876562 
L 976.001475 -537.876562 
L 976.001475 -537.876562 
L 976.001475 -537.876562 
L 976.001475 -537.876562 
L 976.001475 -537.876562 
L 976.001475 -537.876562 
L 976.001475 -537.876562 
L 976.001475 -537.876562 
L 976.001475 -537.876562 
L 976.001475 -537.876562 
L 976.001475 -537.876562 
L 976.001475 -537.876562 
L 976.001475 -537.876562 
L 976.001475 -537.876562 
L 976.001475 -537.876562 
L 976.001475 -537.876562 
L 976.001475 -537.876562 
L 976.001475 -537.876562 
L 976.001475 -537.876562 
L 976.001475 -537.876562 
L 976.001475 -537.876562 
L 976.001475 -537.876562 
L 976.001475 -537.876562 
L 976.001475 -537.876562 
L 976.001475 -537.876562 
L 976.001475 -537.876562 
L 976.001475 -537.876562 
L 976.001475 -537.876562 
L 1014.810852 -537.876563 
L 1014.810852 -537.876563 
L 1014.810852 -537.876563 
L 1014.810852 -537.876563 
L 1014.810852 -537.876563 
L 1014.810852 -537.876563 
L 1014.810852 -537.876563 
L 1014.810852 -537.876563 
L 1014.810852 -537.876563 
L 1014.810852 -537.876563 
L 1014.810852 -537.876563 
L 1014.810852 -537.876563 
L 1014.810852 -537.876563 
L 1014.810852 -537.876563 
L 1014.810852 -537.876563 
L 1014.810852 -537.876563 
L 1014.810852 -537.876563 
L 1014.810852 -537.876563 
L 1014.810852 -537.876563 
L 1014.810852 -537.876563 
L 1014.810852 -537.876563 
L 1014.810852 -537.876563 
L 1014.810852 -537.876563 
L 1014.810852 -537.876563 
L 1014.810852 -537.876563 
L 1014.836898 -537.876563 
L 1014.836898 -537.876563 
L 1014.836898 -537.876563 
L 1014.836898 -537.876563 
L 1014.836898 -537.876563 
L 1014.836898 -537.876563 
L 1014.836898 -537.876563 
L 1014.836898 -537.876563 
L 1014.836898 -537.876563 
L 1014.836898 -537.876563 
L 1014.836898 -537.876563 
L 1014.836898 -537.876563 
L 1014.836898 -537.876563 
L 1014.836898 -537.876563 
L 1014.836898 -537.876563 
L 1014.836898 -537.876563 
L 1014.836898 -537.876563 
L 1014.836898 -537.876563 
L 1014.836898 -537.876563 
L 1014.836898 -537.876563 
L 1014.836898 -537.876563 
L 1014.836898 -537.876563 
L 1014.836898 -537.876563 
L 1014.836898 -537.876563 
L 1014.836898 -537.876563 
L 1014.836898 -537.876563 
L 1053.646275 -537.876562 
L 1053.646275 -537.876562 
L 1053.646275 -537.876562 
L 1053.646275 -537.876562 
L 1053.646275 -537.876562 
L 1053.646275 -537.876562 
L 1053.646275 -537.876562 
L 1053.646275 -537.876562 
L 1053.646275 -537.876562 
L 1053.646275 -537.876562 
L 1053.646275 -537.876562 
L 1053.646275 -537.876562 
L 1053.646275 -537.876562 
L 1053.646275 -537.876562 
L 1053.646275 -537.876562 
L 1053.646275 -537.876562 
L 1053.646275 -537.876562 
L 1053.646275 -537.876562 
L 1053.646275 -537.876562 
L 1053.646275 -537.876562 
L 1053.646275 -537.876562 
L 1053.646275 -537.876562 
L 1053.646275 -537.876562 
L 1053.646275 -537.876562 
L 1053.646275 -537.876562 
L 1053.646275 -537.876562 
L 1053.646275 -537.876562 
L 1053.646275 -537.876562 
L 1053.646275 -537.876562 
L 1053.646275 -537.876562 
L 1053.646275 -537.876562 
L 1053.646275 -537.876562 
L 1053.646275 -537.876562 
L 1053.646275 -537.876562 
L 1053.646275 -537.876562 
L 1053.646275 -537.876562 
L 1053.646275 -537.876562 
L 1053.646275 -537.876562 
L 1053.646275 -537.876562 
L 1053.646275 -537.876562 
L 1053.646275 -537.876562 
L 1053.646275 -537.876562 
L 1053.646275 -537.876562 
L 1053.646275 -537.876562 
L 1053.646275 -537.876562 
L 1053.646275 -537.876562 
L 1053.646275 -537.876562 
L 1053.646275 -537.876562 
L 1053.646275 -537.876562 
L 1053.646275 -537.876562 
L 1020.077915 -537.876562 
L 1020.077915 -537.876562 
L 1020.077915 -537.876562 
L 1020.077915 -537.876562 
L 1020.077915 -537.876562 
L 1020.077915 -537.876562 
L 1020.077915 -537.876562 
L 1020.077915 -537.876562 
L 1020.077915 -537.876562 
L 1020.077915 -537.876562 
L 1020.077915 -537.876562 
L 1020.077915 -537.876562 
L 1020.077915 -537.876562 
L 1020.077915 -537.876562 
L 1020.077915 -537.876562 
L 1020.077915 -537.876562 
L 1020.077915 -537.876562 
L 1020.077915 -537.876562 
L 1020.077915 -537.876562 
L 1020.077915 -537.876562 
L 1020.077915 -537.876562 
L 1020.077915 -537.876562 
L 1020.077915 -537.876562 
L 1020.077915 -537.876562 
L 1020.077915 -537.876562 
z
" style="stroke: #000000; stroke-width: 1.25"/>
    </defs>
    <g clip-path="url(#p42fa483757)">
     <use xlink:href="#ma18ea2d559" x="0" y="566.526562" style="fill: #657b86; stroke: #000000; stroke-width: 1.25"/>
    </g>
   </g>
   <g id="line2d_16">
    <path d="M 102.497475 457.65 
L 180.142275 457.65 
" clip-path="url(#p42fa483757)" style="fill: none; stroke: #000000; stroke-width: 1.25; stroke-linecap: round"/>
   </g>
   <g id="line2d_17">
    <path d="M 199.553475 409.983333 
L 277.198275 409.983333 
" clip-path="url(#p42fa483757)" style="fill: none; stroke: #000000; stroke-width: 1.25; stroke-linecap: round"/>
   </g>
   <g id="line2d_18">
    <path d="M 296.609475 362.316667 
L 374.254275 362.316667 
" clip-path="url(#p42fa483757)" style="fill: none; stroke-dasharray: 1.5625,0.9375; stroke-dashoffset: 0; stroke: #000000; stroke-width: 1.25"/>
   </g>
   <g id="line2d_19">
    <path d="M 296.609475 362.316667 
L 374.254275 362.316667 
" clip-path="url(#p42fa483757)" style="fill: none; stroke-dasharray: 3.125,1.25; stroke-dashoffset: 0; stroke: #000000; stroke-width: 1.25"/>
   </g>
   <g id="line2d_20">
    <path d="M 296.609475 362.316667 
L 374.254275 362.316667 
" clip-path="url(#p42fa483757)" style="fill: none; stroke-dasharray: 1.5625,0.9375; stroke-dashoffset: 0; stroke: #000000; stroke-width: 1.25"/>
   </g>
   <g id="line2d_21">
    <path d="M 393.665475 314.65 
L 471.310275 314.65 
" clip-path="url(#p42fa483757)" style="fill: none; stroke: #000000; stroke-width: 1.25; stroke-linecap: round"/>
   </g>
   <g id="line2d_22">
    <path d="M 490.721475 266.983333 
L 568.366275 266.983333 
" clip-path="url(#p42fa483757)" style="fill: none; stroke-dasharray: 1.5625,0.9375; stroke-dashoffset: 0; stroke: #000000; stroke-width: 1.25"/>
   </g>
   <g id="line2d_23">
    <path d="M 490.721475 266.983333 
L 568.366275 266.983333 
" clip-path="url(#p42fa483757)" style="fill: none; stroke-dasharray: 3.125,1.25; stroke-dashoffset: 0; stroke: #000000; stroke-width: 1.25"/>
   </g>
   <g id="line2d_24">
    <path d="M 490.721475 266.983333 
L 568.366275 266.983333 
" clip-path="url(#p42fa483757)" style="fill: none; stroke-dasharray: 1.5625,0.9375; stroke-dashoffset: 0; stroke: #000000; stroke-width: 1.25"/>
   </g>
   <g id="line2d_25">
    <path d="M 587.777475 219.316667 
L 665.422275 219.316667 
" clip-path="url(#p42fa483757)" style="fill: none; stroke-dasharray: 1.5625,0.9375; stroke-dashoffset: 0; stroke: #000000; stroke-width: 1.25"/>
   </g>
   <g id="line2d_26">
    <path d="M 587.777475 219.316667 
L 665.422275 219.316667 
" clip-path="url(#p42fa483757)" style="fill: none; stroke-dasharray: 3.125,1.25; stroke-dashoffset: 0; stroke: #000000; stroke-width: 1.25"/>
   </g>
   <g id="line2d_27">
    <path d="M 587.777475 219.316667 
L 665.422275 219.316667 
" clip-path="url(#p42fa483757)" style="fill: none; stroke-dasharray: 1.5625,0.9375; stroke-dashoffset: 0; stroke: #000000; stroke-width: 1.25"/>
   </g>
   <g id="line2d_28">
    <path d="M 684.833475 171.65 
L 762.478275 171.65 
" clip-path="url(#p42fa483757)" style="fill: none; stroke: #000000; stroke-width: 1.25; stroke-linecap: round"/>
   </g>
   <g id="line2d_29">
    <path d="M 781.889475 123.983333 
L 859.534275 123.983333 
" clip-path="url(#p42fa483757)" style="fill: none; stroke: #000000; stroke-width: 1.25; stroke-linecap: round"/>
   </g>
   <g id="line2d_30">
    <path d="M 878.945475 76.316667 
L 956.590275 76.316667 
" clip-path="url(#p42fa483757)" style="fill: none; stroke: #000000; stroke-width: 1.25; stroke-linecap: round"/>
   </g>
   <g id="line2d_31">
    <path d="M 976.001475 28.65 
L 1053.646275 28.65 
" clip-path="url(#p42fa483757)" style="fill: none; stroke-dasharray: 1.5625,0.9375; stroke-dashoffset: 0; stroke: #000000; stroke-width: 1.25"/>
   </g>
   <g id="line2d_32">
    <path d="M 976.001475 28.65 
L 1053.646275 28.65 
" clip-path="url(#p42fa483757)" style="fill: none; stroke-dasharray: 3.125,1.25; stroke-dashoffset: 0; stroke: #000000; stroke-width: 1.25"/>
   </g>
   <g id="line2d_33">
    <path d="M 976.001475 28.65 
L 1053.646275 28.65 
" clip-path="url(#p42fa483757)" style="fill: none; stroke-dasharray: 1.5625,0.9375; stroke-dashoffset: 0; stroke: #000000; stroke-width: 1.25"/>
   </g>
   <g id="patch_3">
    <path d="M 92.791875 479.1 
L 92.791875 7.2 
" style="fill: none; stroke: #cccccc; stroke-width: 1.25; stroke-linejoin: miter; stroke-linecap: square"/>
   </g>
   <g id="patch_4">
    <path d="M 1063.351875 479.1 
L 1063.351875 7.2 
" style="fill: none; stroke: #cccccc; stroke-width: 1.25; stroke-linejoin: miter; stroke-linecap: square"/>
   </g>
   <g id="patch_5">
    <path d="M 92.791875 479.1 
L 1063.351875 479.1 
" style="fill: none; stroke: #cccccc; stroke-width: 1.25; stroke-linejoin: miter; stroke-linecap: square"/>
   </g>
   <g id="patch_6">
    <path d="M 92.791875 7.2 
L 1063.351875 7.2 
" style="fill: none; stroke: #cccccc; stroke-width: 1.25; stroke-linejoin: miter; stroke-linecap: square"/>
   </g>
  </g>
 </g>
 <defs>
  <clipPath id="p42fa483757">
   <rect x="92.791875" y="7.2" width="970.56" height="471.9"/>
  </clipPath>
 </defs>
</svg>
