<?xml version="1.0" encoding="utf-8" standalone="no"?>
<!DOCTYPE svg PUBLIC "-//W3C//DTD SVG 1.1//EN"
  "http://www.w3.org/Graphics/SVG/1.1/DTD/svg11.dtd">
<svg xmlns:xlink="http://www.w3.org/1999/xlink" width="638.076562pt" height="350.44875pt" viewBox="0 0 638.076562 350.44875" xmlns="http://www.w3.org/2000/svg" version="1.1">
 <metadata>
  <rdf:RDF xmlns:dc="http://purl.org/dc/elements/1.1/" xmlns:cc="http://creativecommons.org/ns#" xmlns:rdf="http://www.w3.org/1999/02/22-rdf-syntax-ns#">
   <cc:Work>
    <dc:type rdf:resource="http://purl.org/dc/dcmitype/StillImage"/>
    <dc:date>2026-06-29T04:15:04.204573</dc:date>
    <dc:format>image/svg+xml</dc:format>
    <dc:creator>
     <cc:Agent>
      <dc:title>Matplotlib v3.10.9, https://matplotlib.org/</dc:title>
     </cc:Agent>
    </dc:creator>
   </cc:Work>
  </rdf:RDF>
 </metadata>
 <defs>
  <style type="text/css">*{stroke-linejoin: round; stroke-linecap: butt}</style>
 </defs>
 <g id="figure_1">
  <g id="patch_1">
   <path d="M 0 350.44875 
L 638.076562 350.44875 
L 638.076562 0 
L 0 0 
L 0 350.44875 
z
" style="fill: none"/>
  </g>
  <g id="axes_1">
   <g id="patch_2">
    <path d="M 81.126563 314.98 
L 630.876562 314.98 
L 630.876562 7.2 
L 81.126563 7.2 
L 81.126563 314.98 
z
" style="fill: none"/>
   </g>
   <g id="matplotlib.axis_1">
    <g id="xtick_1">
     <g id="line2d_1">
      <path d="M 218.564063 314.98 
L 218.564063 7.2 
" clip-path="url(#p7cf85dc431)" style="fill: none; stroke: #d3d3d3; stroke-opacity: 0.3; stroke-linecap: round"/>
     </g>
     <g id="text_1">
      <text style="font-size: 20px; font-family: 'Arial', 'DejaVu Sans', 'Liberation Sans', 'Bitstream Vera Sans', sans-serif; text-anchor: middle; fill: #262626" x="218.564063" y="339.039375" transform="rotate(-0 218.564063 339.039375)">Affluent (ADI 1)</text>
     </g>
    </g>
    <g id="xtick_2">
     <g id="line2d_2">
      <path d="M 493.439062 314.98 
L 493.439062 7.2 
" clip-path="url(#p7cf85dc431)" style="fill: none; stroke: #d3d3d3; stroke-opacity: 0.3; stroke-linecap: round"/>
     </g>
     <g id="text_2">
      <text style="font-size: 20px; font-family: 'Arial', 'DejaVu Sans', 'Liberation Sans', 'Bitstream Vera Sans', sans-serif; text-anchor: middle; fill: #262626" x="493.439062" y="339.039375" transform="rotate(-0 493.439062 339.039375)">Deprived (ADI 10)</text>
     </g>
    </g>
   </g>
   <g id="matplotlib.axis_2">
    <g id="ytick_1">
     <g id="line2d_3">
      <path d="M 81.126563 314.98 
L 630.876562 314.98 
" clip-path="url(#p7cf85dc431)" style="fill: none; stroke: #d3d3d3; stroke-opacity: 0.3; stroke-linecap: round"/>
     </g>
     <g id="text_3">
      <text style="font-size: 18px; font-family: 'Arial', 'DejaVu Sans', 'Liberation Sans', 'Bitstream Vera Sans', sans-serif; text-anchor: end; fill: #262626" x="71.626563" y="321.422031" transform="rotate(-0 71.626563 321.422031)">0</text>
     </g>
    </g>
    <g id="ytick_2">
     <g id="line2d_4">
      <path d="M 81.126563 232.04368 
L 630.876562 232.04368 
" clip-path="url(#p7cf85dc431)" style="fill: none; stroke: #d3d3d3; stroke-opacity: 0.3; stroke-linecap: round"/>
     </g>
     <g id="text_4">
      <text style="font-size: 18px; font-family: 'Arial', 'DejaVu Sans', 'Liberation Sans', 'Bitstream Vera Sans', sans-serif; text-anchor: end; fill: #262626" x="71.626563" y="238.485712" transform="rotate(-0 71.626563 238.485712)">2000</text>
     </g>
    </g>
    <g id="ytick_3">
     <g id="line2d_5">
      <path d="M 81.126563 149.107361 
L 630.876562 149.107361 
" clip-path="url(#p7cf85dc431)" style="fill: none; stroke: #d3d3d3; stroke-opacity: 0.3; stroke-linecap: round"/>
     </g>
     <g id="text_5">
      <text style="font-size: 18px; font-family: 'Arial', 'DejaVu Sans', 'Liberation Sans', 'Bitstream Vera Sans', sans-serif; text-anchor: end; fill: #262626" x="71.626563" y="155.549392" transform="rotate(-0 71.626563 155.549392)">4000</text>
     </g>
    </g>
    <g id="ytick_4">
     <g id="line2d_6">
      <path d="M 81.126563 66.171041 
L 630.876562 66.171041 
" clip-path="url(#p7cf85dc431)" style="fill: none; stroke: #d3d3d3; stroke-opacity: 0.3; stroke-linecap: round"/>
     </g>
     <g id="text_6">
      <text style="font-size: 18px; font-family: 'Arial', 'DejaVu Sans', 'Liberation Sans', 'Bitstream Vera Sans', sans-serif; text-anchor: end; fill: #262626" x="71.626563" y="72.613072" transform="rotate(-0 71.626563 72.613072)">6000</text>
     </g>
    </g>
    <g id="text_7">
     <text style="font-size: 22px; font-family: 'Arial', 'DejaVu Sans', 'Liberation Sans', 'Bitstream Vera Sans', sans-serif; text-anchor: middle; fill: #262626" x="23.215313" y="161.09" transform="rotate(-90 23.215313 161.09)">Calculated Finished Square Feet</text>
    </g>
   </g>
   <g id="FillBetweenPolyCollection_1">
    <path d="M 218.59855 322.565112 
L 218.529575 322.565112 
L 218.304323 313.903365 
L 217.221154 305.241618 
L 213.606579 296.579871 
L 205.069264 287.918124 
L 190.107883 279.256377 
L 169.835341 270.59463 
L 147.373256 261.932882 
L 126.347761 253.271135 
L 111.965654 244.609388 
L 108.614063 235.947641 
L 114.234798 227.285894 
L 122.760935 218.624147 
L 132.087923 209.9624 
L 143.089559 201.300653 
L 153.899752 192.638906 
L 162.445463 183.977159 
L 170.162984 175.315412 
L 178.285747 166.653665 
L 185.737232 157.991918 
L 191.146137 149.330171 
L 195.023109 140.668424 
L 199.001056 132.006677 
L 203.098913 123.34493 
L 206.350149 114.683183 
L 208.314961 106.021436 
L 209.394165 97.359689 
L 210.479876 88.697942 
L 211.840554 80.036195 
L 213.046896 71.374448 
L 213.800783 62.712701 
L 214.392243 54.050954 
L 215.008524 45.389207 
L 215.581019 36.72746 
L 215.878103 28.065713 
L 215.86784 19.403966 
L 215.981598 10.742219 
L 216.394599 2.080472 
L 216.865879 -6.581275 
L 217.153486 -15.243022 
L 217.293064 -23.904769 
L 217.361249 -32.566516 
L 217.499002 -41.228263 
L 217.816551 -49.89001 
L 218.094028 -58.551757 
L 218.200056 -67.213504 
L 218.251509 -75.875251 
L 218.265531 -84.536998 
L 218.205438 -93.198745 
L 218.170238 -101.860492 
L 218.2134 -110.522239 
L 218.298561 -119.183986 
L 218.386087 -127.845733 
L 218.441456 -136.50748 
L 218.45992 -145.169227 
L 218.447449 -153.830974 
L 218.43232 -162.492721 
L 218.465194 -171.154468 
L 218.501754 -179.816215 
L 218.496793 -188.477962 
L 218.489583 -197.139709 
L 218.489544 -205.801456 
L 218.490563 -214.463203 
L 218.491384 -223.12495 
L 218.458102 -231.786697 
L 218.438266 -240.448444 
L 218.486949 -249.110191 
L 218.541436 -257.771938 
L 218.560784 -266.433686 
L 218.561993 -275.095433 
L 218.551355 -283.75718 
L 218.523063 -292.418927 
L 218.501444 -301.080674 
L 218.51876 -309.742421 
L 218.547642 -318.404168 
L 218.553568 -327.065915 
L 218.532045 -335.727662 
L 218.504043 -344.389409 
L 218.509716 -353.051156 
L 218.533884 -361.712903 
L 218.528578 -370.37465 
L 218.504097 -379.036397 
L 218.509909 -387.698144 
L 218.540774 -396.359891 
L 218.559322 -405.021638 
L 218.563595 -413.683385 
L 218.56377 -422.345132 
L 218.560816 -431.006879 
L 218.545733 -439.668626 
L 218.515091 -448.330373 
L 218.502157 -456.99212 
L 218.527036 -465.653867 
L 218.553567 -474.315614 
L 218.562273 -482.977361 
L 218.559774 -491.639108 
L 218.542465 -500.300855 
L 218.511525 -508.962602 
L 218.503586 -517.624349 
L 218.531124 -526.286096 
L 218.555574 -534.947843 
L 218.572551 -534.947843 
L 218.572551 -534.947843 
L 218.597001 -526.286096 
L 218.624539 -517.624349 
L 218.6166 -508.962602 
L 218.58566 -500.300855 
L 218.568351 -491.639108 
L 218.565852 -482.977361 
L 218.574558 -474.315614 
L 218.601089 -465.653867 
L 218.625968 -456.99212 
L 218.613034 -448.330373 
L 218.582392 -439.668626 
L 218.567309 -431.006879 
L 218.564355 -422.345132 
L 218.56453 -413.683385 
L 218.568803 -405.021638 
L 218.587351 -396.359891 
L 218.618216 -387.698144 
L 218.624028 -379.036397 
L 218.599547 -370.37465 
L 218.594241 -361.712903 
L 218.618409 -353.051156 
L 218.624082 -344.389409 
L 218.59608 -335.727662 
L 218.574557 -327.065915 
L 218.580483 -318.404168 
L 218.609365 -309.742421 
L 218.626681 -301.080674 
L 218.605062 -292.418927 
L 218.57677 -283.75718 
L 218.566132 -275.095433 
L 218.567341 -266.433686 
L 218.586689 -257.771938 
L 218.641176 -249.110191 
L 218.689859 -240.448444 
L 218.670023 -231.786697 
L 218.636741 -223.12495 
L 218.637562 -214.463203 
L 218.638581 -205.801456 
L 218.638542 -197.139709 
L 218.631332 -188.477962 
L 218.626371 -179.816215 
L 218.662931 -171.154468 
L 218.695805 -162.492721 
L 218.680676 -153.830974 
L 218.668205 -145.169227 
L 218.686669 -136.50748 
L 218.742038 -127.845733 
L 218.829564 -119.183986 
L 218.914725 -110.522239 
L 218.957887 -101.860492 
L 218.922687 -93.198745 
L 218.862594 -84.536998 
L 218.876616 -75.875251 
L 218.928069 -67.213504 
L 219.034097 -58.551757 
L 219.311574 -49.89001 
L 219.629123 -41.228263 
L 219.766876 -32.566516 
L 219.835061 -23.904769 
L 219.974639 -15.243022 
L 220.262246 -6.581275 
L 220.733526 2.080472 
L 221.146527 10.742219 
L 221.260285 19.403966 
L 221.250022 28.065713 
L 221.547106 36.72746 
L 222.119601 45.389207 
L 222.735882 54.050954 
L 223.327342 62.712701 
L 224.081229 71.374448 
L 225.287571 80.036195 
L 226.648249 88.697942 
L 227.73396 97.359689 
L 228.813164 106.021436 
L 230.777976 114.683183 
L 234.029212 123.34493 
L 238.127069 132.006677 
L 242.105016 140.668424 
L 245.981988 149.330171 
L 251.390893 157.991918 
L 258.842378 166.653665 
L 266.965141 175.315412 
L 274.682662 183.977159 
L 283.228373 192.638906 
L 294.038566 201.300653 
L 305.040202 209.9624 
L 314.36719 218.624147 
L 322.893327 227.285894 
L 328.514063 235.947641 
L 325.162471 244.609388 
L 310.780364 253.271135 
L 289.754869 261.932882 
L 267.292784 270.59463 
L 247.020242 279.256377 
L 232.058861 287.918124 
L 223.521546 296.579871 
L 219.906971 305.241618 
L 218.823802 313.903365 
L 218.59855 322.565112 
z
" clip-path="url(#p7cf85dc431)" style="fill: #68afd7; stroke: #404040; stroke-width: 1.25"/>
   </g>
   <g id="FillBetweenPolyCollection_2">
    <defs>
     <path id="m3a03d5b153" d="M 493.486748 -31.099938 
L 493.391377 -31.099938 
L 493.33838 -32.905565 
L 493.253654 -34.711192 
L 493.140421 -36.516819 
L 493.016668 -38.322446 
L 492.911089 -40.128073 
L 492.84876 -41.9337 
L 492.834231 -43.739327 
L 492.844413 -45.544954 
L 492.837057 -47.350581 
L 492.767073 -49.156208 
L 492.596075 -50.961835 
L 492.288884 -52.767463 
L 491.805285 -54.57309 
L 491.09665 -56.378717 
L 490.102093 -58.184344 
L 488.731273 -59.989971 
L 486.839192 -61.795598 
L 484.218768 -63.601225 
L 480.621823 -65.406852 
L 475.783307 -67.212479 
L 469.42758 -69.018106 
L 461.290694 -70.823733 
L 451.224102 -72.62936 
L 439.386955 -74.434987 
L 426.42394 -76.240614 
L 413.470505 -78.046242 
L 401.896468 -79.851869 
L 392.866462 -81.657496 
L 386.949779 -83.463123 
L 384.018699 -85.26875 
L 383.489062 -87.074377 
L 384.710996 -88.880004 
L 387.233428 -90.685631 
L 390.823733 -92.491258 
L 395.348656 -94.296885 
L 400.67959 -96.102512 
L 406.666164 -97.908139 
L 413.128859 -99.713766 
L 419.858649 -101.519393 
L 426.655294 -103.325021 
L 433.379499 -105.130648 
L 439.945542 -106.936275 
L 446.257795 -108.741902 
L 452.187803 -110.547529 
L 457.635057 -112.353156 
L 462.584279 -114.158783 
L 467.067245 -115.96441 
L 471.069816 -117.770037 
L 474.502631 -119.575664 
L 477.271524 -121.381291 
L 479.361914 -123.186918 
L 480.848569 -124.992545 
L 481.843514 -126.798172 
L 482.457673 -128.6038 
L 482.808349 -130.409427 
L 483.034451 -132.215054 
L 483.27895 -134.020681 
L 483.647034 -135.826308 
L 484.175046 -137.631935 
L 484.831263 -139.437562 
L 485.547162 -141.243189 
L 486.261076 -143.048816 
L 486.945778 -144.854443 
L 487.603302 -146.66007 
L 488.240897 -148.465697 
L 488.853966 -150.271324 
L 489.423564 -152.076951 
L 489.921594 -153.882579 
L 490.322495 -155.688206 
L 490.62121 -157.493833 
L 490.844513 -159.29946 
L 491.04173 -161.105087 
L 491.25996 -162.910714 
L 491.522789 -164.716341 
L 491.823648 -166.521968 
L 492.130659 -168.327595 
L 492.396832 -170.133222 
L 492.574395 -171.938849 
L 492.632992 -173.744476 
L 492.576302 -175.550103 
L 492.44736 -177.35573 
L 492.315254 -179.161358 
L 492.245381 -180.966985 
L 492.267919 -182.772612 
L 492.364756 -184.578239 
L 492.484609 -186.383866 
L 492.575323 -188.189493 
L 492.611118 -189.99512 
L 492.60056 -191.800747 
L 492.576226 -193.606374 
L 492.575479 -195.412001 
L 492.622888 -197.217628 
L 492.722113 -199.023255 
L 492.858789 -200.828882 
L 493.009442 -202.634509 
L 493.150529 -204.440137 
L 493.264979 -206.245764 
L 493.34563 -208.051391 
L 493.394843 -209.857018 
L 493.483282 -209.857018 
L 493.483282 -209.857018 
L 493.532495 -208.051391 
L 493.613146 -206.245764 
L 493.727596 -204.440137 
L 493.868683 -202.634509 
L 494.019336 -200.828882 
L 494.156012 -199.023255 
L 494.255237 -197.217628 
L 494.302646 -195.412001 
L 494.301899 -193.606374 
L 494.277565 -191.800747 
L 494.267007 -189.99512 
L 494.302802 -188.189493 
L 494.393516 -186.383866 
L 494.513369 -184.578239 
L 494.610206 -182.772612 
L 494.632744 -180.966985 
L 494.562871 -179.161358 
L 494.430765 -177.35573 
L 494.301823 -175.550103 
L 494.245133 -173.744476 
L 494.30373 -171.938849 
L 494.481293 -170.133222 
L 494.747466 -168.327595 
L 495.054477 -166.521968 
L 495.355336 -164.716341 
L 495.618165 -162.910714 
L 495.836395 -161.105087 
L 496.033612 -159.29946 
L 496.256915 -157.493833 
L 496.55563 -155.688206 
L 496.956531 -153.882579 
L 497.454561 -152.076951 
L 498.024159 -150.271324 
L 498.637228 -148.465697 
L 499.274823 -146.66007 
L 499.932347 -144.854443 
L 500.617049 -143.048816 
L 501.330963 -141.243189 
L 502.046862 -139.437562 
L 502.703079 -137.631935 
L 503.231091 -135.826308 
L 503.599175 -134.020681 
L 503.843674 -132.215054 
L 504.069776 -130.409427 
L 504.420452 -128.6038 
L 505.034611 -126.798172 
L 506.029556 -124.992545 
L 507.516211 -123.186918 
L 509.606601 -121.381291 
L 512.375494 -119.575664 
L 515.808309 -117.770037 
L 519.81088 -115.96441 
L 524.293846 -114.158783 
L 529.243068 -112.353156 
L 534.690322 -110.547529 
L 540.62033 -108.741902 
L 546.932583 -106.936275 
L 553.498626 -105.130648 
L 560.222831 -103.325021 
L 567.019476 -101.519393 
L 573.749266 -99.713766 
L 580.211961 -97.908139 
L 586.198535 -96.102512 
L 591.529469 -94.296885 
L 596.054392 -92.491258 
L 599.644697 -90.685631 
L 602.167129 -88.880004 
L 603.389063 -87.074377 
L 602.859426 -85.26875 
L 599.928346 -83.463123 
L 594.011663 -81.657496 
L 584.981657 -79.851869 
L 573.40762 -78.046242 
L 560.454185 -76.240614 
L 547.49117 -74.434987 
L 535.654023 -72.62936 
L 525.587431 -70.823733 
L 517.450545 -69.018106 
L 511.094818 -67.212479 
L 506.256302 -65.406852 
L 502.659357 -63.601225 
L 500.038933 -61.795598 
L 498.146852 -59.989971 
L 496.776032 -58.184344 
L 495.781475 -56.378717 
L 495.07284 -54.57309 
L 494.589241 -52.767463 
L 494.28205 -50.961835 
L 494.111052 -49.156208 
L 494.041068 -47.350581 
L 494.033712 -45.544954 
L 494.043894 -43.739327 
L 494.029365 -41.9337 
L 493.967036 -40.128073 
L 493.861457 -38.322446 
L 493.737704 -36.516819 
L 493.624471 -34.711192 
L 493.539745 -32.905565 
L 493.486748 -31.099938 
z
" style="stroke: #404040; stroke-width: 1.25"/>
    </defs>
    <g clip-path="url(#p7cf85dc431)">
     <use xlink:href="#m3a03d5b153" x="0" y="350.44875" style="fill: #ba611b; stroke: #404040; stroke-width: 1.25"/>
    </g>
   </g>
   <g id="line2d_7">
    <path d="M 218.564063 302.539552 
L 218.564063 91.756895 
" clip-path="url(#p7cf85dc431)" style="fill: none; stroke: #404040; stroke-width: 1.875; stroke-linecap: round"/>
   </g>
   <g id="line2d_8">
    <path d="M 218.564063 243.945042 
L 218.564063 182.945379 
" clip-path="url(#p7cf85dc431)" style="fill: none; stroke: #404040; stroke-width: 5.625; stroke-linecap: round"/>
   </g>
   <g id="line2d_9">
    <path d="M 218.564063 219.43736 
" clip-path="url(#p7cf85dc431)" style="fill: none; stroke: #404040; stroke-width: 4; stroke-linecap: round"/>
    <defs>
     <path id="mf74fb7289f" d="M 2.34375 0 
L -2.34375 -0 
" style="stroke: #ffffff; stroke-width: 1.125"/>
    </defs>
    <g clip-path="url(#p7cf85dc431)">
     <use xlink:href="#mf74fb7289f" x="218.564063" y="219.43736" style="fill: #ffffff; stroke: #ffffff; stroke-width: 1.125"/>
    </g>
   </g>
   <g id="line2d_10">
    <path d="M 493.439062 298.392736 
L 493.439062 216.119907 
" clip-path="url(#p7cf85dc431)" style="fill: none; stroke: #404040; stroke-width: 1.875; stroke-linecap: round"/>
   </g>
   <g id="line2d_11">
    <path d="M 493.439062 267.87217 
L 493.439062 247.044787 
" clip-path="url(#p7cf85dc431)" style="fill: none; stroke: #404040; stroke-width: 5.625; stroke-linecap: round"/>
   </g>
   <g id="line2d_12">
    <path d="M 493.439062 258.894314 
" clip-path="url(#p7cf85dc431)" style="fill: none; stroke: #404040; stroke-width: 4; stroke-linecap: round"/>
    <g clip-path="url(#p7cf85dc431)">
     <use xlink:href="#mf74fb7289f" x="493.439062" y="258.894314" style="fill: #ffffff; stroke: #ffffff; stroke-width: 1.125"/>
    </g>
   </g>
   <g id="patch_3">
    <path d="M 81.126563 314.98 
L 81.126563 7.2 
" style="fill: none; stroke: #cccccc; stroke-width: 1.25; stroke-linejoin: miter; stroke-linecap: square"/>
   </g>
   <g id="patch_4">
    <path d="M 630.876562 314.98 
L 630.876562 7.2 
" style="fill: none; stroke: #cccccc; stroke-width: 1.25; stroke-linejoin: miter; stroke-linecap: square"/>
   </g>
   <g id="patch_5">
    <path d="M 81.126563 314.98 
L 630.876562 314.98 
" style="fill: none; stroke: #cccccc; stroke-width: 1.25; stroke-linejoin: miter; stroke-linecap: square"/>
   </g>
   <g id="patch_6">
    <path d="M 81.126563 7.2 
L 630.876562 7.2 
" style="fill: none; stroke: #cccccc; stroke-width: 1.25; stroke-linejoin: miter; stroke-linecap: square"/>
   </g>
  </g>
 </g>
 <defs>
  <clipPath id="p7cf85dc431">
   <rect x="81.126563" y="7.2" width="549.75" height="307.78"/>
  </clipPath>
 </defs>
</svg>
